{
.appVersion = "3428";
.formatVersion = 3;
DisplayStrings = (
"HˉĦĦħĥ"
);
axes = (
{
name = Weight;
tag = wght;
}
);
customParameters = (
{
name = vendorID;
value = " ";
},
{
name = panose;
value = (
0,
0,
0,
0,
0,
0,
0,
0,
0,
0
);
},
{
name = unicodeRanges;
value = (
0,
1,
2,
5,
6,
7,
31,
32
);
},
{
name = codePageRanges;
value = (
"1252",
"1250",
"1253",
"1254",
"1257"
);
},
{
name = fsType;
value = (
);
},
{
disabled = 1;
name = glyphOrder;
value = (
.notdef,
.null,
uni000D,
space,
exclam,
quotedbl,
numbersign,
dollar,
percent,
ampersand,
quotesingle,
parenleft,
parenright,
asterisk,
plus,
comma,
hyphen,
period,
slash,
zero,
one,
two,
three,
four,
five,
six,
seven,
eight,
nine,
colon,
semicolon,
less,
equal,
greater,
question,
at,
A,
B,
C,
D,
E,
F,
G,
H,
J,
K,
L,
M,
N,
O,
P,
Q,
R,
S,
T,
U,
V,
W,
X,
Y,
Z,
bracketleft,
backslash,
bracketright,
asciicircum,
underscore,
grave,
a,
b,
c,
d,
e,
f,
g,
h,
i,
j,
k,
l,
m,
n,
o,
p,
q,
r,
s,
t,
u,
v,
w,
x,
y,
z,
braceleft,
bar,
braceright,
asciitilde,
uni00A0,
exclamdown,
cent,
sterling,
currency,
yen,
brokenbar,
section,
dieresis,
copyright,
ordfeminine,
guillemotleft,
logicalnot,
uni00AD,
registered,
degree,
plusminus,
twosuperior,
threesuperior,
acute,
uni03BC,
paragraph,
periodcentered,
cedilla,
onesuperior,
ordmasculine,
guillemotright,
onequarter,
onehalf,
threequarters,
questiondown,
Agrave,
Aacute,
Acircumflex,
Atilde,
Adieresis,
Aring,
AE,
Egrave,
Eacute,
Ecircumflex,
Edieresis,
Eth,
Ntilde,
Ograve,
Oacute,
Ocircumflex,
Otilde,
Odieresis,
multiply,
Oslash,
Ugrave,
Uacute,
Ucircumflex,
Udieresis,
Yacute,
Thorn,
germandbls,
agrave,
aacute,
acircumflex,
atilde,
adieresis,
aring,
ae,
ccedilla,
egrave,
eacute,
ecircumflex,
edieresis,
igrave,
iacute,
idieresis,
eth,
ntilde,
ograve,
oacute,
ocircumflex,
otilde,
odieresis,
divide,
oslash,
ugrave,
uacute,
ucircumflex,
udieresis,
yacute,
thorn,
ydieresis,
Amacron,
amacron,
Abreve,
abreve,
Aogonek,
aogonek,
Cacute,
cacute,
Ccircumflex,
ccircumflex,
cdotaccent,
Ccaron,
ccaron,

glyphs = (
{
color = 1;
glyphname = A;
lastChange = "2025-10-31 11:39:54 +0000";
layers = (
{
anchors = (
{
name = bottom;
pos = (337,0);
},
{
name = ogonek;
pos = (728,0);
},
{
name = top;
pos = (462,712);
}
);
layerId = "EE0A04B7-467B-4BD9-A2DD-E8921F00673F";
shapes = (
{
closed = 1;
nodes = (
(149,0,l),
(221,125,l),
(491,125,l),
(520,0,l),
(728,0,l),
(554,705,l),
(367,705,l),
(-55,0,l)
);
},
{
closed = 1;
nodes = (
(419,475,l),
(462,276,l),
(305,276,l)
);
}
);
width = 767;
},
{
anchors = (
{
name = bottom;
pos = (299,0);
},
{
name = ogonek;
pos = (651,0);
},
{
name = top;
pos = (424,712);
}
);
layerId = "179DD43A-A894-42A9-B4B6-A7F9368B08A7";
shapes = (
{
closed = 1;
nodes = (
(57,0,l),
(170,185,l),
(493,185,l),
(538,0,l),
(651,0,l),
(467,705,l),
(378,705,l),
(-53,0,l)
);
},
{
closed = 1;
nodes = (
(401,584,l),
(472,273,l),
(221,273,l)
);
}
);
width = 692;
},
{
anchors = (
{
name = bottom;
pos = (292,0);
},
{
name = ogonek;
pos = (635,0);
},
{
name = top;
pos = (417,712);
}
);
layerId = "7F84CDEE-FC45-41A5-88A7-11DFAD5E6C3A";
shapes = (
{
closed = 1;
nodes = (
(39,0,l),
(159,197,l),
(493,197,l),
(542,0,l),
(635,0,l),
(450,705,l),
(380,705,l),
(-52,0,l)
);
},
{
closed = 1;
nodes = (
(398,606,l),
(474,272,l),
(204,272,l)
);
}
);
width = 677;
}
);
unicode = 65;
},
{
glyphname = Aringacute;
lastChange = "2025-10-31 11:39:54 +0000";
layers = (
{
layerId = "EE0A04B7-467B-4BD9-A2DD-E8921F00673F";
shapes = (
{
closed = 1;
nodes = (
(149,0,l),
(206,95,l),
(497,95,l),
(520,0,l),
(728,0,l),
(545,646,l),
(566,667,o),
(582,693,o),
(588,724,cs),
(599,790,o),
(553,843,o),
(485,843,cs),
(420,843,o),
(352,790,o),
(340,723,cs),
(335,692,o),
(341,667,o),
(356,646,c),
(-55,0,l)
);
},
{
closed = 1;
nodes = (
(411,438,l),
(459,246,l),
(296,246,l)
);
},
{
closed = 1;
nodes = (
(449,700,o),
(440,709,o),
(442,724,cs),
(444,737,o),
(456,747,o),
(471,747,cs),
(483,747,o),
(493,737,o),
(490,723,cs),
(487,709,o),
(474,700,o),
(461,700,cs)
);
},
{
closed = 1;
nodes = (
(558,871,l),
(727,999,l),
(560,1056,l),
(424,871,l)
);
}
);
width = 767;
},
{
layerId = "179DD43A-A894-42A9-B4B6-A7F9368B08A7";
shapes = (
{
closed = 1;
nodes = (
(57,0,l),
(152,155,l),
(481,155,l),
(522,0,l),
(634,0,l),
(454,625,l),
(489,641,o),
(517,673,o),
(524,712,cs),
(534,771,o),
(494,817,o),
(435,817,cs),
(380,817,o),
(323,772,o),
(313,713,cs),
(306,676,o),
(320,646,o),
(348,627,c),
(-53,0,l)
);
},
{
closed = 1;
nodes = (
(385,536,l),
(460,243,l),
(206,243,l)
);
},
{
closed = 1;
nodes = (
(390,663,o),
(359,673,o),
(367,714,cs),
(372,742,o),
(397,765,o),
(428,765,cs),
(459,765,o),
(476,741,o),
(471,713,cs),
(466,685,o),
(441,663,o),
(410,663,cs)
);
},
{
closed = 1;
nodes = (
(474,833,l),
(628,962,l),
(522,988,l),
(402,833,l)
);
}
);
width = 675;
},
{
layerId = "7F84CDEE-FC45-41A5-88A7-11DFAD5E6C3A";
shapes = (
{
closed = 1;
nodes = (
(39,0,l),
(141,167,l),
(478,167,l),
(522,0,l),
(615,0,l),
(436,621,l),
(474,636,o),
(503,669,o),
(510,709,cs),
(520,766,o),
(482,812,o),
(425,812,cs),
(372,812,o),
(317,767,o),
(307,711,cs),
(300,672,o),
(317,640,o),
(346,623,c),
(-52,0,l)
);
},
{
closed = 1;
nodes = (
(379,555,l),
(460,242,l),
(188,242,l)
);
},
{
closed = 1;
nodes = (
(378,656,o),
(343,668,o),
(352,712,cs),
(358,743,o),
(386,768,o),
(419,768,cs),
(452,768,o),
(472,742,o),
(466,711,cs),
(461,680,o),
(435,656,o),
(400,656,cs)
);
},
{
closed = 1;
nodes = (
(464,825,l),
(615,954,l),
(523,974,l),
(405,825,l)
);
}
);
width = 657;
}
);
unicode = (506,507);
},
{
glyphname = AE;
lastChange = "2025-10-31 11:39:54 +0000";
layers = (
{
layerId = "EE0A04B7-467B-4BD9-A2DD-E8921F00673F";
shapes = (
{
closed = 1;
nodes = (
(149,0,l),
(230,125,l),
(420,125,l),
(398,0,l),
(968,0,l),
(997,165,l),
(619,165,l),
(639,276,l),
(977,276,l),
(1004,429,l),
(666,429,l),
(684,535,l),
(1057,535,l),
(1086,700,l),
(366,700,l),
(-55,0,l)
);
},
{
closed = 1;
nodes = (
(501,582,l),
(447,276,l),
(314,276,l)
);
}
);
width = 1007;
},
{
layerId = "179DD43A-A894-42A9-B4B6-A7F9368B08A7";
shapes = (
{
closed = 1;
nodes = (
(57,0,l),
(200,185,l),
(439,185,l),
(406,0,l),
(894,0,l),
(910,91,l),
(526,91,l),
(565,314,l),
(909,314,l),
(925,402,l),
(581,402,l),
(618,613,l),
(992,613,l),
(1008,704,l),
(484,704,l),
(-53,0,l)
);
},
{
closed = 1;
nodes = (
(512,599,l),
(454,273,l),
(263,273,l)
);
}
);
width = 940;
},
{
layerId = "7F84CDEE-FC45-41A5-88A7-11DFAD5E6C3A";
shapes = (
{
closed = 1;
nodes = (
(39,0,l),
(194,197,l),
(443,197,l),
(408,0,l),
(879,0,l),
(892,76,l),
(507,76,l),
(551,321,l),
(896,321,l),
(909,397,l),
(564,397,l),
(605,629,l),
(979,629,l),
(992,705,l),
(507,705,l),
(-52,0,l)
);
},
{
closed = 1;
nodes = (
(514,602,l),
(456,272,l),
(253,272,l)
);
}
);
width = 926;
}
);
unicode = 198;
},
{
color = 1;
glyphname = B;
lastChange = "2025-10-31 11:39:54 +0000";
layers = (
{
anchors = (
{
name = bottom;
pos = (312,0);
},
{
name = center;
pos = (375,356);
},
{
name = top;
pos = (437,712);
}
);
layerId = "EE0A04B7-467B-4BD9-A2DD-E8921F00673F";
shapes = (
{
closed = 1;
nodes = (
(370,0,ls),
(539,0,o),
(650,75,o),
(671,195,cs),
(688,290,o),
(643,341,o),
(563,366,c),
(631,393,o),
(684,443,o),
(698,524,cs),
(718,635,o),
(638,700,o),
(491,700,cs),
(134,700,l),
(11,0,l)
);
},
{
closed = 1;
nodes = (
(250,285,l),
(397,285,ls),
(461,285,o),
(489,260,o),
(482,222,cs),
(475,181,o),
(437,156,o),
(377,156,cs),
(228,156,l)
);
},
{
closed = 1;
nodes = (
(296,544,l),
(421,544,ls),
(478,544,o),
(504,523,o),
(497,484,cs),
(490,443,o),
(454,421,o),
(395,421,cs),
(274,421,l)
);
}
);
width = 718;
},
{
anchors = (
{
name = bottom;
pos = (279,0);
},
{
name = center;
pos = (342,356);
},
{
name = top;
pos = (404,712);
}
);
layerId = "179DD43A-A894-42A9-B4B6-A7F9368B08A7";
shapes = (
{
closed = 1;
nodes = (
(280,0,ls),
(477,0,o),
(575,87,o),
(594,194,cs),
(610,281,o),
(572,349,o),
(463,366,c),
(535,391,o),
(581,451,o),
(594,527,cs),
(617,656,o),
(508,704,o),
(380,704,cs),
(153,704,l),
(29,0,l)
);
},
{
closed = 1;
nodes = (
(187,316,l),
(316,316,ls),
(460,316,o),
(505,275,o),
(493,202,cs),
(480,129,o),
(421,88,o),
(304,88,cs),
(147,88,l)
);
},
{
closed = 1;
nodes = (
(240,617,l),
(367,617,ls),
(454,617,o),
(502,583,o),
(489,510,cs),
(478,447,o),
(425,400,o),
(328,400,cs),
(202,400,l)
);
}
);
width = 651;
},
{
anchors = (
{
name = bottom;
pos = (272,0);
},
{
name = center;
pos = (335,356);
},
{
name = top;
pos = (397,712);
}
);
layerId = "7F84CDEE-FC45-41A5-88A7-11DFAD5E6C3A";
shapes = (
{
closed = 1;
nodes = (
(262,0,ls),
(465,0,o),
(560,89,o),
(578,194,cs),
(593,279,o),
(557,350,o),
(443,366,c),
(515,391,o),
(560,451,o),
(573,527,cs),
(596,660,o),
(482,705,o),
(358,705,cs),
(157,705,l),
(33,0,l)
);
},
{
closed = 1;
nodes = (
(174,322,l),
(300,322,ls),
(460,322,o),
(509,278,o),
(495,198,cs),
(481,118,o),
(418,74,o),
(289,74,cs),
(130,74,l)
);
},
{
closed = 1;
nodes = (
(228,631,l),
(355,631,ls),
(447,631,o),
(501,595,o),
(487,515,cs),
(475,448,o),
(419,396,o),
(314,396,cs),
(187,396,l)
);
}
);
width = 637;
}
);
unicode = 66;
},
{
color = 1;
glyphname = C;
lastChange = "2025-10-31 11:39:54 +0000";
layers = (
{
anchors = (
{
name = bottom;
pos = (346,0);
},
{
name = top;
pos = (481,712);
}
);
layerId = "EE0A04B7-467B-4BD9-A2DD-E8921F00673F";
shapes = (
{
closed = 1;
nodes = (
(436,-14,o),
(511,9,o),
(584,54,c),
(618,248,l),
(547,192,o),
(479,163,o),
(405,163,cs),
(286,163,o),
(232,245,o),
(251,352,cs),
(269,454,o),
(353,537,o),
(471,537,cs),
(550,537,o),
(613,502,o),
(649,455,c),
(684,652,l),
(635,691,o),
(572,714,o),
(484,714,cs),
(272,714,o),
(87,554,o),
(51,350,cs),
(14,141,o),
(148,-14,o),
(348,-14,cs)
);
}
);
width = 665;
},
{
anchors = (
{
name = bottom;
pos = (373,0);
},
{
name = top;
pos = (488,712);
}
);
layerId = "179DD43A-A894-42A9-B4B6-A7F9368B08A7";
shapes = (
{
closed = 1;
nodes = (
(460,-14,o),
(536,21,o),
(609,74,c),
(629,187,l),
(552,128,o),
(478,80,o),
(379,80,cs),
(226,80,o),
(143,201,o),
(170,352,cs),
(197,502,o),
(322,625,o),
(475,625,cs),
(579,625,o),
(637,587,o),
(677,532,c),
(697,645,l),
(648,688,o),
(587,718,o),
(494,718,cs),
(283,718,o),
(100,556,o),
(64,351,cs),
(27,144,o),
(157,-14,o),
(361,-14,cs)
);
}
);
width = 699;
},
{
anchors = (
{
name = bottom;
pos = (376,0);
},
{
name = top;
pos = (501,712);
}
);
layerId = "7F84CDEE-FC45-41A5-88A7-11DFAD5E6C3A";
shapes = (
{
closed = 1;
nodes = (
(463,-14,o),
(540,22,o),
(614,78,c),
(631,175,l),
(552,116,o),
(476,63,o),
(374,63,cs),
(214,63,o),
(125,192,o),
(153,352,cs),
(181,512,o),
(316,643,o),
(476,643,cs),
(585,643,o),
(641,604,o),
(682,547,c),
(699,643,l),
(650,687,o),
(591,719,o),
(495,719,cs),
(285,719,o),
(102,558,o),
(66,351,cs),
(29,144,o),
(158,-14,o),
(363,-14,cs)
);
}
);
width = 706;
}
);
unicode = 67;
},
{
color = 1;
glyphname = D;
lastChange = "2025-10-31 11:39:54 +0000";
layers = (
{
anchors = (
{
name = bottom;
pos = (334,0);
},
{
name = center;
pos = (397,356);
},
{
name = top;
pos = (459,712);
}
);
layerId = "EE0A04B7-467B-4BD9-A2DD-E8921F00673F";
shapes = (
{
closed = 1;
nodes = (
(277,0,ls),
(529,0,o),
(703,152,o),
(738,354,cs),
(774,557,o),
(655,700,o),
(404,700,cs),
(134,700,l),
(11,0,l)
);
},
{
closed = 1;
nodes = (
(298,528,l),
(377,528,ls),
(492,528,o),
(559,463,o),
(539,351,cs),
(519,238,o),
(430,172,o),
(314,172,cs),
(235,172,l)
);
}
);
width = 761;
},
{
anchors = (
{
name = bottom;
pos = (320,0);
},
{
name = center;
pos = (383,356);
},
{
name = top;
pos = (445,712);
}
);
layerId = "179DD43A-A894-42A9-B4B6-A7F9368B08A7";
shapes = (
{
closed = 1;
nodes = (
(257,0,ls),
(488,0,o),
(664,147,o),
(700,353,cs),
(738,565,o),
(603,704,o),
(383,704,cs),
(153,704,l),
(29,0,l)
);
},
{
closed = 1;
nodes = (
(241,611,l),
(403,611,ls),
(554,611,o),
(614,479,o),
(592,351,cs),
(565,199,o),
(447,92,o),
(271,92,cs),
(149,92,l)
);
}
);
width = 734;
},
{
anchors = (
{
name = bottom;
pos = (318,0);
},
{
name = center;
pos = (381,356);
},
{
name = top;
pos = (443,712);
}
);
layerId = "7F84CDEE-FC45-41A5-88A7-11DFAD5E6C3A";
shapes = (
{
closed = 1;
nodes = (
(253,0,ls),
(480,0,o),
(656,146,o),
(692,353,cs),
(730,566,o),
(592,705,o),
(378,705,cs),
(157,705,l),
(33,0,l)
);
},
{
closed = 1;
nodes = (
(229,628,l),
(408,628,ls),
(566,628,o),
(625,482,o),
(602,351,cs),
(574,191,o),
(450,76,o),
(262,76,cs),
(131,76,l)
);
}
);
width = 729;
}
);
unicode = 68;
},
{
glyphname = Eth;
lastChange = "2025-10-31 11:39:54 +0000";
layers = (
{
layerId = "EE0A04B7-467B-4BD9-A2DD-E8921F00673F";
shapes = (
{
closed = 1;
nodes = (
(300,0,ls),
(552,0,o),
(726,152,o),
(761,354,cs),
(797,557,o),
(678,700,o),
(427,700,cs),
(157,700,l),
(34,0,l)
);
},
{
closed = 1;
nodes = (
(332,249,l),
(361,416,l),
(33,416,l),
(4,249,l)
);
},
{
closed = 1;
nodes = (
(321,528,l),
(400,528,ls),
(515,528,o),
(582,463,o),
(562,351,cs),
(542,238,o),
(453,172,o),
(337,172,cs),
(258,172,l)
);
}
);
width = 784;
},
{
layerId = "179DD43A-A894-42A9-B4B6-A7F9368B08A7";
shapes = (
{
closed = 1;
nodes = (
(288,0,ls),
(519,0,o),
(694,147,o),
(730,353,cs),
(768,565,o),
(633,704,o),
(413,704,cs),
(184,704,l),
(60,0,l)
);
},
{
closed = 1;
nodes = (
(302,307,l),
(318,399,l),
(38,399,l),
(22,307,l)
);
},
{
closed = 1;
nodes = (
(271,611,l),
(433,611,ls),
(584,611,o),
(644,479,o),
(622,351,cs),
(595,199,o),
(477,92,o),
(301,92,cs),
(179,92,l)
);
}
);
width = 765;
},
{
layerId = "7F84CDEE-FC45-41A5-88A7-11DFAD5E6C3A";
shapes = (
{
closed = 1;
nodes = (
(285,0,ls),
(512,0,o),
(688,146,o),
(724,353,cs),
(762,566,o),
(624,705,o),
(410,705,cs),
(189,705,l),
(65,0,l)
);
},
{
closed = 1;
nodes = (
(296,319,l),
(310,396,l),
(39,396,l),
(25,319,l)
);
},
{
closed = 1;
nodes = (
(261,628,l),
(440,628,ls),
(598,628,o),
(657,482,o),
(634,351,cs),
(606,191,o),
(482,76,o),
(294,76,cs),
(163,76,l)
);
}
);
width = 761;
}
);
unicode = 208;
},
{
color = 1;
glyphname = E;
lastChange = "2025-10-31 11:39:54 +0000";
layers = (
{
anchors = (
{
name = bottom;
pos = (291,0);
},
{
name = ogonek;
pos = (578,0);
},
{
name = top;
pos = (416,712);
},
{
name = topleft;
pos = (98,712);
}
);
layerId = "EE0A04B7-467B-4BD9-A2DD-E8921F00673F";
shapes = (
{
closed = 1;
nodes = (
(579,0,l),
(608,165,l),
(232,165,l),
(252,276,l),
(588,276,l),
(615,429,l),
(279,429,l),
(297,535,l),
(668,535,l),
(697,700,l),
(134,700,l),
(11,0,l)
);
}
);
width = 675;
},
{
anchors = (
{
name = bottom;
pos = (267,0);
},
{
name = ogonek;
pos = (517,0);
},
{
name = top;
pos = (392,712);
},
{
name = topleft;
pos = (98,712);
}
);
layerId = "179DD43A-A894-42A9-B4B6-A7F9368B08A7";
shapes = (
{
closed = 1;
nodes = (
(517,0,l),
(533,91,l),
(149,91,l),
(188,314,l),
(532,314,l),
(548,402,l),
(204,402,l),
(241,613,l),
(615,613,l),
(631,704,l),
(153,704,l),
(29,0,l)
);
}
);
width = 628;
},
{
anchors = (
{
name = bottom;
pos = (262,0);
},
{
name = ogonek;
pos = (504,0);
},
{
name = top;
pos = (387,712);
},
{
name = topleft;
pos = (98,712);
}
);
layerId = "7F84CDEE-FC45-41A5-88A7-11DFAD5E6C3A";
shapes = (
{
closed = 1;
nodes = (
(504,0,l),
(517,76,l),
(132,76,l),
(176,321,l),
(521,321,l),
(534,397,l),
(189,397,l),
(230,629,l),
(604,629,l),
(617,705,l),
(157,705,l),
(33,0,l)
);
}
);
width = 618;
}
);
unicode = 69;
},
{
color = 1;
glyphname = F;
lastChange = "2025-10-31 11:39:54 +0000";
layers = (
{
anchors = (
{
name = bottom;
pos = (283,0);
},
{
name = top;
pos = (408,712);
}
);
layerId = "EE0A04B7-467B-4BD9-A2DD-E8921F00673F";
shapes = (
{
closed = 1;
nodes = (
(205,0,l),
(249,250,l),
(580,250,l),
(608,411,l),
(277,411,l),
(298,530,l),
(664,530,l),
(694,700,l),
(134,700,l),
(11,0,l)
);
}
);
width = 659;
},
{
anchors = (
{
name = bottom;
pos = (254,0);
},
{
name = top;
pos = (379,712);
}
);
layerId = "179DD43A-A894-42A9-B4B6-A7F9368B08A7";
shapes = (
{
closed = 1;
nodes = (
(133,-2,l),
(186,303,l),
(525,303,l),
(541,393,l),
(202,393,l),
(241,613,l),
(612,613,l),
(628,704,l),
(153,704,l),
(29,-2,l)
);
}
);
width = 601;
},
{
anchors = (
{
name = bottom;
pos = (248,0);
},
{
name = top;
pos = (373,712);
}
);
layerId = "7F84CDEE-FC45-41A5-88A7-11DFAD5E6C3A";
shapes = (
{
closed = 1;
nodes = (
(128,0,l),
(183,313,l),
(524,313,l),
(538,389,l),
(197,389,l),
(239,629,l),
(611,629,l),
(624,705,l),
(167,705,l),
(43,0,l)
);
}
);
width = 589;
}
);
unicode = 70;
},
{
color = 1;
glyphname = G;
lastChange = "2025-10-31 11:39:54 +0000";
layers = (
{
anchors = (
{
name = bottom;
pos = (363,0);
},
{
name = top;
pos = (478,712);
}
);
layerId = "EE0A04B7-467B-4BD9-A2DD-E8921F00673F";
shapes = (
{
closed = 1;
nodes = (
(503,-14,o),
(686,68,o),
(739,369,cs),
(746,409,l),
(424,409,l),
(399,267,l),
(537,267,l),
(522,183,o),
(441,153,o),
(387,153,cs),
(293,153,o),
(229,234,o),
(250,349,cs),
(268,456,o),
(361,541,o),
(472,541,cs),
(537,541,o),
(596,518,o),
(640,475,c),
(676,680,l),
(631,701,o),
(560,714,o),
(492,714,cs),
(275,714,o),
(87,554,o),
(51,350,cs),
(13,138,o),
(150,-14,o),
(348,-14,cs)
);
}
);
width = 759;
},
{
anchors = (
{
name = bottom;
pos = (373,0);
},
{
name = top;
pos = (518,712);
}
);
layerId = "179DD43A-A894-42A9-B4B6-A7F9368B08A7";
shapes = (
{
closed = 1;
nodes = (
(598,-16,o),
(750,147,o),
(789,372,cs),
(794,401,l),
(498,401,l),
(482,312,l),
(681,312,l),
(656,168,o),
(529,77,o),
(389,77,cs),
(236,77,o),
(140,195,o),
(168,352,cs),
(194,500,o),
(345,626,o),
(500,626,cs),
(592,626,o),
(659,591,o),
(701,540,c),
(721,653,l),
(661,700,o),
(587,718,o),
(510,718,cs),
(298,718,o),
(100,556,o),
(64,352,cs),
(28,147,o),
(154,-16,o),
(366,-16,cs)
);
}
);
width = 819;
},
{
anchors = (
{
name = bottom;
pos = (379,0);
},
{
name = top;
pos = (524,712);
}
);
layerId = "7F84CDEE-FC45-41A5-88A7-11DFAD5E6C3A";
shapes = (
{
closed = 1;
nodes = (
(617,-16,o),
(767,162,o),
(799,373,cs),
(803,399,l),
(512,399,l),
(499,321,l),
(710,321,l),
(682,165,o),
(545,62,o),
(389,62,cs),
(224,62,o),
(122,187,o),
(151,352,cs),
(179,510,o),
(342,643,o),
(505,643,cs),
(602,643,o),
(671,604,o),
(713,553,c),
(730,647,l),
(667,699,o),
(593,719,o),
(513,719,cs),
(302,719,o),
(102,557,o),
(66,352,cs),
(30,149,o),
(156,-16,o),
(369,-16,cs)
);
}
);
width = 831;
}
);
unicode = 71;
},
{
color = 1;
glyphname = H;
lastChange = "2025-10-31 11:39:54 +0000";
layers = (
{
anchors = (
{
name = bottom;
pos = (330,0);
},
{
name = center;
pos = (393,356);
},
{
name = top;
pos = (455,712);
},
{
name = topleft;
pos = (98,712);
}
);
layerId = "EE0A04B7-467B-4BD9-A2DD-E8921F00673F";
shapes = (
{
closed = 1;
nodes = (
(205,0,l),
(252,266,l),
(501,266,l),
(454,0,l),
(648,0,l),
(771,700,l),
(577,700,l),
(531,438,l),
(282,438,l),
(328,700,l),
(134,700,l),
(11,0,l)
);
}
);
width = 754;
},
{
anchors = (
{
name = bottom;
pos = (312,0);
},
{
name = center;
pos = (375,356);
},
{
name = top;
pos = (437,712);
},
{
name = topleft;
pos = (98,712);
}
);
layerId = "179DD43A-A894-42A9-B4B6-A7F9368B08A7";
shapes = (
{
closed = 1;
nodes = (
(132,0,l),
(187,311,l),
(547,311,l),
(492,0,l),
(594,0,l),
(718,705,l),
(616,705,l),
(563,405,l),
(203,405,l),
(256,705,l),
(153,705,l),
(29,0,l)
);
}
);
width = 717;
},
{
anchors = (
{
name = bottom;
pos = (308,0);
},
{
name = center;
pos = (371,356);
},
{
name = top;
pos = (433,712);
},
{
name = topleft;
pos = (98,712);
}
);
layerId = "7F84CDEE-FC45-41A5-88A7-11DFAD5E6C3A";
shapes = (
{
closed = 1;
nodes = (
(117,0,l),
(173,320,l),
(555,320,l),
(499,0,l),
(583,0,l),
(707,706,l),
(623,706,l),
(569,398,l),
(187,398,l),
(241,706,l),
(157,706,l),
(33,0,l)
);
}
);
width = 709;
}
);
unicode = 72;
},
{
glyphname = Hbar;
lastChange = "2025-11-13 10:45:45 +0000";
layers = (
{
layerId = "EE0A04B7-467B-4BD9-A2DD-E8921F00673F";
shapes = (
{
alignment = -1;
pos = (12,0);
ref = H;
},
{
closed = 1;
nodes = (
(822,624,l),
(84,624,l),
(58,507,l),
(796,507,l)
);
}
);
width = 778;
},
{
layerId = "179DD43A-A894-42A9-B4B6-A7F9368B08A7";
shapes = (
{
alignment = -1;
pos = (14,0);
ref = H;
},
{
closed = 1;
nodes = (
(765,599,l),
(100,599,l),
(85,532,l),
(749,532,l)
);
}
);
width = 744;
},
{
layerId = "7F84CDEE-FC45-41A5-88A7-11DFAD5E6C3A";
shapes = (
{
alignment = -1;
pos = (19,0);
ref = H;
},
{
closed = 1;
nodes = (
(750,596,l),
(102,596,l),
(88,539,l),
(736,539,l)
);
}
);
width = 729;
}
);
unicode = 294;
},
{
color = 1;
glyphname = I;
lastChange = "2025-10-31 11:39:54 +0000";
layers = (
{
anchors = (
{
name = bottom;
pos = (109,0);
},
{
name = ogonek;
pos = (207,0);
},
{
name = top;
pos = (234,712);
},
{
name = topleft;
pos = (98,712);
}
);
layerId = "EE0A04B7-467B-4BD9-A2DD-E8921F00673F";
shapes = (
{
closed = 1;
nodes = (
(206,0,l),
(329,700,l),
(134,700,l),
(11,0,l)
);
}
);
width = 311;
},
{
anchors = (
{
name = bottom;
pos = (80,0);
},
{
name = ogonek;
pos = (132,0);
},
{
name = top;
pos = (205,712);
},
{
name = topleft;
pos = (98,712);
}
);
layerId = "179DD43A-A894-42A9-B4B6-A7F9368B08A7";
shapes = (
{
closed = 1;
nodes = (
(132,0,l),
(256,704,l),
(153,704,l),
(29,0,l)
);
}
);
width = 254;
},
{
anchors = (
{
name = bottom;
pos = (75,0);
},
{
name = ogonek;
pos = (117,0);
},
{
name = top;
pos = (200,712);
},
{
name = topleft;
pos = (98,712);
}
);
layerId = "7F84CDEE-FC45-41A5-88A7-11DFAD5E6C3A";
shapes = (
{
closed = 1;
nodes = (
(117,0,l),
(241,705,l),
(157,705,l),
(33,0,l)
);
}
);
width = 243;
}
);
unicode = 73;
},
{
color = 1;
glyphname = J;
lastChange = "2025-10-31 11:39:54 +0000";
layers = (
{
anchors = (
{
name = bottom;
pos = (191,0);
},
{
name = top;
pos = (316,712);
}
);
layerId = "EE0A04B7-467B-4BD9-A2DD-E8921F00673F";
shapes = (
{
closed = 1;
nodes = (
(288,-12,o),
(392,96,o),
(420,256,cs),
(498,700,l),
(305,700,l),
(227,257,ls),
(216,192,o),
(171,159,o),
(120,159,cs),
(63,159,o),
(27,198,o),
(-6,235,c),
(-40,41,l),
(2,9,o),
(54,-12,o),
(112,-12,cs)
);
}
);
width = 475;
},
{
anchors = (
{
name = bottom;
pos = (146,0);
},
{
name = top;
pos = (271,712);
}
);
layerId = "179DD43A-A894-42A9-B4B6-A7F9368B08A7";
shapes = (
{
closed = 1;
nodes = (
(194,-11,o),
(282,69,o),
(308,217,cs),
(394,704,l),
(290,704,l),
(204,215,ls),
(186,116,o),
(145,81,o),
(84,81,cs),
(39,81,o),
(7,101,o),
(-25,124,c),
(-43,25,l),
(-12,2,o),
(27,-11,o),
(68,-11,cs)
);
}
);
width = 386;
},
{
anchors = (
{
name = bottom;
pos = (137,0);
},
{
name = top;
pos = (262,712);
}
);
layerId = "7F84CDEE-FC45-41A5-88A7-11DFAD5E6C3A";
shapes = (
{
closed = 1;
nodes = (
(178,-11,o),
(260,64,o),
(286,209,cs),
(373,705,l),
(287,705,l),
(199,207,ls),
(181,102,o),
(140,65,o),
(76,65,cs),
(33,65,o),
(2,81,o),
(-29,102,c),
(-43,22,l),
(-15,1,o),
(22,-11,o),
(61,-11,cs)
);
}
);
width = 368;
}
);
unicode = 74;
},
{
color = 1;
glyphname = K;
lastChange = "2025-10-31 11:39:54 +0000";
layers = (
{
anchors = (
{
name = bottom;
pos = (315,0);
},
{
name = top;
pos = (440,712);
}
);
layerId = "EE0A04B7-467B-4BD9-A2DD-E8921F00673F";
shapes = (
{
closed = 1;
nodes = (
(205,0,l),
(270,368,l),
(452,0,l),
(685,0,l),
(481,399,l),
(799,700,l),
(569,700,l),
(278,416,l),
(328,700,l),
(134,700,l),
(11,0,l)
);
}
);
width = 724;
},
{
anchors = (
{
name = bottom;
pos = (250,0);
},
{
name = top;
pos = (375,712);
}
);
layerId = "179DD43A-A894-42A9-B4B6-A7F9368B08A7";
shapes = (
{
closed = 1;
nodes = (
(132,0,l),
(191,336,l),
(419,0,l),
(548,0,l),
(293,379,l),
(647,704,l),
(518,704,l),
(204,410,l),
(256,704,l),
(153,704,l),
(29,0,l)
);
}
);
width = 593;
},
{
anchors = (
{
name = bottom;
pos = (237,0);
},
{
name = top;
pos = (362,712);
}
);
layerId = "7F84CDEE-FC45-41A5-88A7-11DFAD5E6C3A";
shapes = (
{
closed = 1;
nodes = (
(117,0,l),
(175,330,l),
(412,0,l),
(520,0,l),
(255,375,l),
(616,705,l),
(508,705,l),
(189,409,l),
(241,705,l),
(157,705,l),
(33,0,l)
);
}
);
width = 567;
}
);
unicode = 75;
},
{
color = 1;
glyphname = L;
lastChange = "2025-10-31 11:39:54 +0000";
layers = (
{
anchors = (
{
name = bottom;
pos = (267,0);
},
{
name = center;
pos = (320,356);
},
{
name = top;
pos = (412,712);
},
{
name = topright;
pos = (585,712);
}
);
layerId = "EE0A04B7-467B-4BD9-A2DD-E8921F00673F";
shapes = (
{
closed = 1;
nodes = (
(544,0,l),
(574,170,l),
(235,170,l),
(328,700,l),
(134,700,l),
(11,0,l)
);
}
);
width = 607;
},
{
anchors = (
{
name = bottom;
pos = (243,0);
},
{
name = center;
pos = (286,356);
},
{
name = top;
pos = (398,712);
},
{
name = topright;
pos = (558,712);
}
);
layerId = "179DD43A-A894-42A9-B4B6-A7F9368B08A7";
shapes = (
{
closed = 1;
nodes = (
(477,0,l),
(493,92,l),
(149,92,l),
(257,704,l),
(153,704,l),
(29,0,l)
);
}
);
width = 540;
},
{
anchors = (
{
name = bottom;
pos = (226,0);
},
{
name = center;
pos = (279,356);
},
{
name = top;
pos = (381,712);
},
{
name = topright;
pos = (554,712);
}
);
layerId = "7F84CDEE-FC45-41A5-88A7-11DFAD5E6C3A";
shapes = (
{
closed = 1;
nodes = (
(463,0,l),
(476,76,l),
(131,76,l),
(242,705,l),
(157,705,l),
(33,0,l)
);
}
);
width = 526;
}
);
unicode = 76;
},
{
glyphname = Lslash;
lastChange = "2025-10-31 11:43:10 +0000";
layers = (
{
layerId = "EE0A04B7-467B-4BD9-A2DD-E8921F00673F";
shapes = (
{
alignment = -1;
pos = (-4,0);
ref = L;
},
{
closed = 1;
nodes = (
(368,358,l),
(397,521,l),
(26,401,l),
(-3,238,l)
);
}
);
width = 590;
},
{
layerId = "179DD43A-A894-42A9-B4B6-A7F9368B08A7";
shapes = (
{
alignment = -1;
pos = (2,0);
ref = L;
},
{
closed = 1;
nodes = (
(337,396,l),
(353,486,l),
(15,316,l),
(-1,226,l)
);
}
);
width = 541;
},
{
layerId = "7F84CDEE-FC45-41A5-88A7-11DFAD5E6C3A";
shapes = (
{
alignment = -1;
pos = (4,0);
ref = L;
},
{
closed = 1;
nodes = (
(295,381,l),
(308,457,l),
(20,297,l),
(7,221,l)
);
}
);
width = 522;
}
);
unicode = 321;
},
{
color = 1;
glyphname = M;
lastChange = "2025-10-31 11:39:54 +0000";
layers = (
{
anchors = (
{
name = bottom;
pos = (343,0);
},
{
name = top;
pos = (468,712);
}
);
layerId = "EE0A04B7-467B-4BD9-A2DD-E8921F00673F";
shapes = (
{
closed = 1;
nodes = (
(161,0,l),
(232,400,l),
(364,128,l),
(593,402,l),
(522,0,l),
(715,0,l),
(838,700,l),
(633,700,l),
(419,429,l),
(299,700,l),
(94,700,l),
(-29,0,l)
);
}
);
width = 780;
},
{
anchors = (
{
name = bottom;
pos = (340,0);
},
{
name = top;
pos = (465,712);
}
);
layerId = "179DD43A-A894-42A9-B4B6-A7F9368B08A7";
shapes = (
{
closed = 1;
nodes = (
(81,0,l),
(176,538,l),
(365,149,l),
(691,538,l),
(596,0,l),
(698,0,l),
(821,700,l),
(719,700,l),
(393,304,l),
(205,700,l),
(102,700,l),
(-21,0,l)
);
}
);
width = 773;
},
{
anchors = (
{
name = bottom;
pos = (339,0);
},
{
name = top;
pos = (464,712);
}
);
layerId = "7F84CDEE-FC45-41A5-88A7-11DFAD5E6C3A";
shapes = (
{
closed = 1;
nodes = (
(65,0,l),
(165,565,l),
(365,153,l),
(711,565,l),
(611,0,l),
(695,0,l),
(818,700,l),
(736,700,l),
(387,279,l),
(186,700,l),
(104,700,l),
(-19,0,l)
);
}
);
width = 771;
}
);
unicode = 77;
},
{
color = 1;
glyphname = N;
lastChange = "2025-10-31 11:39:54 +0000";
layers = (
{
anchors = (
{
name = bottom;
pos = (342,0);
},
{
name = top;
pos = (467,712);
}
);
layerId = "EE0A04B7-467B-4BD9-A2DD-E8921F00673F";
shapes = (
{
closed = 1;
nodes = (
(203,0,l),
(271,384,l),
(502,0,l),
(672,0,l),
(795,700,l),
(603,700,l),
(538,330,l),
(315,700,l),
(134,700,l),
(11,0,l)
);
}
);
width = 778;
},
{
anchors = (
{
name = bottom;
pos = (329,0);
},
{
name = top;
pos = (454,712);
}
);
layerId = "179DD43A-A894-42A9-B4B6-A7F9368B08A7";
shapes = (
{
closed = 1;
nodes = (
(130,0,l),
(226,545,l),
(530,0,l),
(628,0,l),
(752,704,l),
(652,704,l),
(556,160,l),
(253,700,l),
(152,700,l),
(29,0,l)
);
}
);
width = 751;
},
{
anchors = (
{
name = bottom;
pos = (326,0);
},
{
name = top;
pos = (451,712);
}
);
layerId = "7F84CDEE-FC45-41A5-88A7-11DFAD5E6C3A";
shapes = (
{
closed = 1;
nodes = (
(115,0,l),
(217,577,l),
(535,0,l),
(619,0,l),
(743,705,l),
(661,705,l),
(559,126,l),
(241,700,l),
(156,700,l),
(33,0,l)
);
}
);
width = 746;
}
);
unicode = 78;
},
{
glyphname = Eng;
lastChange = "2025-10-31 11:39:54 +0000";
layers = (
{
layerId = "EE0A04B7-467B-4BD9-A2DD-E8921F00673F";
shapes = (
{
closed = 1;
nodes = (
(573,-163,o),
(652,-113,o),
(676,24,cs),
(686,81,l),
(795,700,l),
(603,700,l),
(538,330,l),
(315,700,l),
(134,700,l),
(11,0,l),
(203,0,l),
(271,384,l),
(487,26,l),
(486,25,l),
(479,-16,o),
(458,-31,o),
(434,-31,cs),
(422,-31,o),
(411,-28,o),
(397,-23,c),
(373,-156,l),
(396,-160,o),
(419,-163,o),
(450,-163,cs)
);
}
);
width = 778;
},
{
layerId = "179DD43A-A894-42A9-B4B6-A7F9368B08A7";
shapes = (
{
closed = 1;
nodes = (
(572,-189,o),
(607,-121,o),
(623,-27,cs),
(630,14,l),
(752,704,l),
(652,704,l),
(556,160,l),
(253,700,l),
(152,700,l),
(29,0,l),
(130,0,l),
(226,545,l),
(529,1,l),
(521,-48,ls),
(515,-81,o),
(501,-109,o),
(461,-109,cs),
(450,-109,o),
(439,-107,o),
(428,-103,c),
(414,-182,l),
(429,-186,o),
(445,-189,o),
(468,-189,cs)
);
}
);
width = 751;
},
{
layerId = "7F84CDEE-FC45-41A5-88A7-11DFAD5E6C3A";
shapes = (
{
closed = 1;
nodes = (
(572,-194,o),
(597,-122,o),
(612,-37,cs),
(619,0,l),
(743,705,l),
(661,705,l),
(559,126,l),
(241,700,l),
(156,700,l),
(33,0,l),
(115,0,l),
(217,577,l),
(537,-4,l),
(527,-62,ls),
(521,-94,o),
(509,-125,o),
(466,-125,cs),
(455,-125,o),
(444,-123,o),
(434,-119,c),
(422,-187,l),
(436,-191,o),
(451,-194,o),
(471,-194,cs)
);
}
);
width = 746;
}
);
unicode = 330;
},
{
color = 1;
glyphname = O;
lastChange = "2025-10-31 11:39:54 +0000";
layers = (
{
anchors = (
{
name = bottom;
pos = (367,0);
},
{
name = center;
pos = (430,356);
},
{
name = ogonek;
pos = (440,0);
},
{
name = top;
pos = (492,712);
},
{
name = topleft;
pos = (98,712);
},
{
name = topright;
pos = (886,712);
}
);
layerId = "EE0A04B7-467B-4BD9-A2DD-E8921F00673F";
shapes = (
{
closed = 1;
nodes = (
(610,-14,o),
(764,154,o),
(803,342,cs),
(846,552,o),
(708,714,o),
(492,714,cs),
(276,714,o),
(86,551,o),
(51,350,cs),
(15,149,o),
(147,-14,o),
(363,-14,cs)
);
},
{
closed = 1;
nodes = (
(289,161,o),
(232,251,o),
(250,352,cs),
(268,453,o),
(354,539,o),
(460,539,cs),
(583,539,o),
(623,446,o),
(606,350,cs),
(589,250,o),
(501,161,o),
(394,161,cs)
);
}
);
width = 828;
},
{
anchors = (
{
name = bottom;
pos = (369,0);
},
{
name = center;
pos = (432,356);
},
{
name = ogonek;
pos = (416,0);
},
{
name = top;
pos = (494,712);
},
{
name = topleft;
pos = (98,712);
},
{
name = topright;
pos = (890,712);
}
);
layerId = "179DD43A-A894-42A9-B4B6-A7F9368B08A7";
shapes = (
{
closed = 1;
nodes = (
(613,-14,o),
(771,162,o),
(799,354,cs),
(829,553,o),
(710,718,o),
(498,718,cs),
(285,718,o),
(100,554,o),
(64,351,cs),
(28,148,o),
(154,-14,o),
(367,-14,cs)
);
},
{
closed = 1;
nodes = (
(229,79,o),
(142,200,o),
(169,354,cs),
(196,504,o),
(325,625,o),
(480,625,cs),
(659,625,o),
(721,500,o),
(693,350,cs),
(665,201,o),
(536,79,o),
(384,79,cs)
);
}
);
width = 832;
},
{
anchors = (
{
name = bottom;
pos = (370,0);
},
{
name = center;
pos = (433,356);
},
{
name = ogonek;
pos = (405,0);
},
{
name = top;
pos = (495,712);
},
{
name = topleft;
pos = (98,712);
},
{
name = topright;
pos = (891,712);
}
);
layerId = "7F84CDEE-FC45-41A5-88A7-11DFAD5E6C3A";
shapes = (
{
closed = 1;
nodes = (
(613,-14,o),
(764,176,o),
(797,354,cs),
(834,553,o),
(710,719,o),
(499,719,cs),
(286,719,o),
(102,555,o),
(66,352,cs),
(30,148,o),
(155,-14,o),
(368,-14,cs)
);
},
{
closed = 1;
nodes = (
(217,63,o),
(124,190,o),
(153,354,cs),
(182,514,o),
(319,642,o),
(484,642,cs),
(668,642,o),
(735,491,o),
(710,350,cs),
(681,191,o),
(543,63,o),
(382,63,cs)
);
}
);
width = 833;
}
);
unicode = 79;
},
{
glyphname = Oslash;
lastChange = "2025-10-31 11:41:40 +0000";
layers = (
{
layerId = "EE0A04B7-467B-4BD9-A2DD-E8921F00673F";
shapes = (
{
closed = 1;
nodes = (
(274,-5,l),
(300,-10,o),
(327,-14,o),
(358,-14,cs),
(573,-14,o),
(765,151,o),
(800,352,cs),
(821,473,o),
(784,577,o),
(700,645,c),
(753,728,l),
(647,798,l),
(584,702,l),
(553,710,o),
(522,714,o),
(487,714,cs),
(271,714,o),
(81,551,o),
(46,350,cs),
(23,222,o),
(67,115,o),
(155,47,c),
(88,-58,l),
(194,-128,l)
);
},
{
closed = 1;
nodes = (
(243,257,o),
(237,304,o),
(245,352,cs),
(263,456,o),
(351,539,o),
(455,539,cs),
(462,539,o),
(469,539,o),
(476,538,c),
(269,221,l)
);
},
{
closed = 1;
nodes = (
(406,162,o),
(392,161,o),
(383,161,c),
(583,467,l),
(602,434,o),
(608,393,o),
(601,350,cs),
(585,262,o),
(510,173,o),
(415,163,cs)
);
}
);
width = 818;
},
{
layerId = "179DD43A-A894-42A9-B4B6-A7F9368B08A7";
shapes = (
{
closed = 1;
nodes = (
(165,58,l),
(214,13,o),
(282,-14,o),
(367,-14,cs),
(579,-14,o),
(763,151,o),
(798,354,cs),
(816,451,o),
(796,538,o),
(743,603,c),
(828,685,l),
(785,730,l),
(696,646,l),
(645,691,o),
(581,718,o),
(497,718,cs),
(284,718,o),
(99,554,o),
(63,351,cs),
(45,252,o),
(64,166,o),
(117,101,c),
(34,19,l),
(77,-26,l)
);
},
{
closed = 1;
nodes = (
(167,227,o),
(157,283,o),
(169,350,cs),
(194,496,o),
(321,622,o),
(470,624,cs),
(530,625,o),
(580,607,o),
(621,571,c),
(194,180,l)
);
},
{
closed = 1;
nodes = (
(330,79,o),
(284,97,o),
(240,134,c),
(666,523,l),
(694,475,o),
(704,417,o),
(692,350,cs),
(666,204,o),
(545,87,o),
(394,81,cs)
);
}
);
width = 831;
},
{
layerId = "7F84CDEE-FC45-41A5-88A7-11DFAD5E6C3A";
shapes = (
{
closed = 1;
nodes = (
(144,71,l),
(198,18,o),
(272,-14,o),
(368,-14,cs),
(579,-14,o),
(762,151,o),
(797,354,cs),
(814,446,o),
(796,530,o),
(752,594,c),
(851,679,l),
(812,716,l),
(718,635,l),
(663,687,o),
(591,719,o),
(499,719,cs),
(286,719,o),
(102,555,o),
(66,351,cs),
(50,259,o),
(64,176,o),
(109,112,c),
(20,36,l),
(54,-6,l)
);
},
{
closed = 1;
nodes = (
(151,221,o),
(141,282,o),
(153,354,cs),
(182,514,o),
(319,642,o),
(484,642,cs),
(549,642,o),
(608,619,o),
(650,577,c),
(178,172,l)
);
},
{
closed = 1;
nodes = (
(317,63,o),
(252,84,o),
(211,129,c),
(682,534,l),
(712,483,o),
(722,422,o),
(710,350,cs),
(682,191,o),
(545,63,o),
(382,63,cs)
);
}
);
width = 833;
}
);
unicode = 216;
},
{
glyphname = OE;
lastChange = "2025-10-31 11:39:54 +0000";
layers = (
{
layerId = "EE0A04B7-467B-4BD9-A2DD-E8921F00673F";
shapes = (
{
closed = 1;
nodes = (
(397,-14,o),
(438,-10,o),
(471,0,c),
(1030,0,l),
(1059,165,l),
(683,165,l),
(703,276,l),
(1039,276,l),
(1066,429,l),
(730,429,l),
(748,535,l),
(1119,535,l),
(1148,700,l),
(596,700,l),
(563,709,o),
(531,714,o),
(492,714,cs),
(276,714,o),
(86,551,o),
(51,350,cs),
(15,149,o),
(147,-14,o),
(363,-14,cs)
);
},
{
closed = 1;
nodes = (
(289,161,o),
(232,251,o),
(250,352,cs),
(268,453,o),
(354,539,o),
(460,539,cs),
(493,539,o),
(525,530,o),
(552,510,c),
(495,189,l),
(465,170,o),
(429,161,o),
(394,161,cs)
);
}
);
width = 1127;
},
{
layerId = "179DD43A-A894-42A9-B4B6-A7F9368B08A7";
shapes = (
{
closed = 1;
nodes = (
(412,-13,o),
(449,-8,o),
(483,0,c),
(951,0,l),
(967,91,l),
(584,91,l),
(623,314,l),
(966,314,l),
(982,402,l),
(639,402,l),
(676,613,l),
(1049,613,l),
(1065,704,l),
(599,704,l),
(569,713,o),
(535,718,o),
(498,718,cs),
(285,718,o),
(100,554,o),
(64,351,cs),
(27,141,o),
(166,-13,o),
(377,-13,cs)
);
},
{
closed = 1;
nodes = (
(230,80,o),
(144,212,o),
(169,354,cs),
(196,508,o),
(327,625,o),
(484,625,cs),
(516,625,o),
(545,618,o),
(571,607,c),
(481,97,l),
(453,86,o),
(418,80,o),
(387,80,cs)
);
}
);
width = 1062;
},
{
layerId = "7F84CDEE-FC45-41A5-88A7-11DFAD5E6C3A";
shapes = (
{
closed = 1;
nodes = (
(403,-14,o),
(440,-10,o),
(473,0,c),
(935,0,l),
(948,76,l),
(563,76,l),
(607,321,l),
(952,321,l),
(965,397,l),
(620,397,l),
(661,629,l),
(1035,629,l),
(1048,705,l),
(599,705,l),
(569,714,o),
(535,719,o),
(499,719,cs),
(286,719,o),
(102,555,o),
(66,351,cs),
(29,143,o),
(162,-14,o),
(368,-14,cs)
);
},
{
closed = 1;
nodes = (
(214,63,o),
(125,192,o),
(153,354,cs),
(182,514,o),
(319,642,o),
(484,642,cs),
(517,642,o),
(547,637,o),
(574,626,c),
(478,78,l),
(451,69,o),
(411,63,o),
(382,63,cs)
);
}
);
width = 1049;
}
);
unicode = 338;
},
{
color = 1;
glyphname = P;
lastChange = "2025-10-31 11:39:54 +0000";
layers = (
{
anchors = (
{
name = bottom;
pos = (289,0);
},
{
name = top;
pos = (414,712);
}
);
layerId = "EE0A04B7-467B-4BD9-A2DD-E8921F00673F";
shapes = (
{
closed = 1;
nodes = (
(205,0,l),
(240,200,l),
(336,200,ls),
(510,200,o),
(653,289,o),
(682,454,cs),
(710,610,o),
(611,700,o),
(434,700,cs),
(134,700,l),
(11,0,l)
);
},
{
closed = 1;
nodes = (
(300,537,l),
(391,537,ls),
(463,537,o),
(497,505,o),
(486,445,cs),
(477,389,o),
(428,352,o),
(359,352,cs),
(267,352,l)
);
}
);
width = 672;
},
{
anchors = (
{
name = bottom;
pos = (254,0);
},
{
name = top;
pos = (379,712);
}
);
layerId = "179DD43A-A894-42A9-B4B6-A7F9368B08A7";
shapes = (
{
closed = 1;
nodes = (
(133,-2,l),
(180,266,l),
(308,266,ls),
(457,266,o),
(587,347,o),
(612,490,cs),
(636,625,o),
(548,704,o),
(393,704,cs),
(153,704,l),
(29,-2,l)
);
},
{
closed = 1;
nodes = (
(241,614,l),
(368,614,ls),
(472,614,o),
(523,572,o),
(508,485,cs),
(493,402,o),
(425,355,o),
(322,355,cs),
(196,355,l)
);
}
);
width = 602;
},
{
anchors = (
{
name = bottom;
pos = (247,0);
},
{
name = top;
pos = (372,712);
}
);
layerId = "7F84CDEE-FC45-41A5-88A7-11DFAD5E6C3A";
shapes = (
{
closed = 1;
nodes = (
(119,-2,l),
(168,279,l),
(302,279,ls),
(446,279,o),
(574,358,o),
(599,497,cs),
(622,628,o),
(534,705,o),
(384,705,cs),
(157,705,l),
(33,-2,l)
);
},
{
closed = 1;
nodes = (
(230,629,l),
(364,629,ls),
(473,629,o),
(528,585,o),
(512,493,cs),
(496,405,o),
(423,355,o),
(314,355,cs),
(182,355,l)
);
}
);
width = 588;
}
);
unicode = 80;
},
{
glyphname = Thorn;
lastChange = "2025-10-31 11:39:54 +0000";
layers = (
{
layerId = "EE0A04B7-467B-4BD9-A2DD-E8921F00673F";
shapes = (
{
closed = 1;
nodes = (
(203,0,l),
(227,135,l),
(327,135,ls),
(471,135,o),
(571,216,o),
(597,363,cs),
(627,531,o),
(529,603,o),
(373,603,cs),
(309,603,l),
(327,706,l),
(135,706,l),
(11,0,l)
);
},
{
closed = 1;
nodes = (
(282,449,l),
(307,449,ls),
(367,449,o),
(418,441,o),
(405,368,cs),
(392,293,o),
(343,281,o),
(280,281,cs),
(253,281,l)
);
}
);
width = 603;
},
{
layerId = "179DD43A-A894-42A9-B4B6-A7F9368B08A7";
shapes = (
{
closed = 1;
nodes = (
(127,0,l),
(157,171,l),
(221,171,ls),
(352,171,o),
(467,230,o),
(492,374,cs),
(520,533,o),
(408,580,o),
(271,580,cs),
(229,580,l),
(251,706,l),
(153,706,l),
(29,0,l)
);
},
{
closed = 1;
nodes = (
(214,493,l),
(243,493,ls),
(328,493,o),
(414,485,o),
(394,376,cs),
(378,281,o),
(304,256,o),
(220,256,cs),
(172,256,l)
);
}
);
width = 501;
},
{
layerId = "7F84CDEE-FC45-41A5-88A7-11DFAD5E6C3A";
shapes = (
{
closed = 1;
nodes = (
(112,0,l),
(143,178,l),
(200,178,ls),
(328,178,o),
(445,233,o),
(470,376,cs),
(498,533,o),
(383,575,o),
(250,575,cs),
(213,575,l),
(236,706,l),
(157,706,l),
(33,0,l)
);
},
{
closed = 1;
nodes = (
(201,502,l),
(230,502,ls),
(322,502,o),
(412,494,o),
(392,378,cs),
(374,277,o),
(295,251,o),
(208,251,cs),
(156,251,l)
);
}
);
width = 481;
}
);
unicode = 222;
},
{
color = 1;
glyphname = Q;
lastChange = "2025-10-31 11:39:54 +0000";
layers = (
{
anchors = (
{
name = bottom;
pos = (395,0);
},
{
name = top;
pos = (520,712);
}
);
layerId = "EE0A04B7-467B-4BD9-A2DD-E8921F00673F";
shapes = (
{
closed = 1;
nodes = (
(808,52,l),
(718,163,l),
(767,220,o),
(791,274,o),
(805,350,cs),
(841,553,o),
(708,714,o),
(492,714,cs),
(276,714,o),
(86,551,o),
(51,350,cs),
(15,147,o),
(147,-14,o),
(363,-14,cs),
(447,-14,o),
(544,13,o),
(597,55,c),
(773,-148,l)
);
},
{
closed = 1;
nodes = (
(289,161,o),
(232,250,o),
(250,350,cs),
(268,453,o),
(354,539,o),
(460,539,cs),
(584,539,o),
(622,441,o),
(606,350,cs),
(588,247,o),
(501,161,o),
(394,161,cs)
);
}
);
width = 884;
},
{
anchors = (
{
name = bottom;
pos = (372,0);
},
{
name = top;
pos = (497,712);
}
);
layerId = "179DD43A-A894-42A9-B4B6-A7F9368B08A7";
shapes = (
{
closed = 1;
nodes = (
(749,34,l),
(667,114,l),
(734,178,o),
(781,257,o),
(798,353,cs),
(834,553,o),
(709,718,o),
(497,718,cs),
(284,718,o),
(99,554,o),
(63,350,cs),
(27,149,o),
(153,-14,o),
(366,-14,cs),
(446,-14,o),
(515,10,o),
(581,46,c),
(727,-91,l)
);
},
{
closed = 1;
nodes = (
(228,79,o),
(141,201,o),
(168,353,cs),
(195,504,o),
(324,625,o),
(479,625,cs),
(660,625,o),
(721,499,o),
(692,350,cs),
(664,201,o),
(535,79,o),
(383,79,cs)
);
}
);
width = 837;
},
{
anchors = (
{
name = bottom;
pos = (367,0);
},
{
name = top;
pos = (492,712);
}
);
layerId = "7F84CDEE-FC45-41A5-88A7-11DFAD5E6C3A";
shapes = (
{
closed = 1;
nodes = (
(737,30,l),
(656,104,l),
(728,169,o),
(779,254,o),
(796,354,cs),
(832,553,o),
(709,719,o),
(498,719,cs),
(285,719,o),
(101,554,o),
(65,350,cs),
(29,149,o),
(154,-14,o),
(367,-14,cs),
(447,-14,o),
(508,9,o),
(578,44,c),
(718,-79,l)
);
},
{
closed = 1;
nodes = (
(216,63,o),
(124,190,o),
(152,354,cs),
(181,514,o),
(318,642,o),
(483,642,cs),
(675,642,o),
(735,504,o),
(709,350,cs),
(683,191,o),
(542,63,o),
(381,63,cs)
);
}
);
width = 828;
}
);
unicode = 81;
},
{
color = 1;
glyphname = R;
lastChange = "2025-10-31 11:39:54 +0000";
layers = (
{
anchors = (
{
name = bottom;
pos = (301,0);
},
{
name = top;
pos = (426,712);
}
);
layerId = "EE0A04B7-467B-4BD9-A2DD-E8921F00673F";
shapes = (
{
closed = 1;
nodes = (
(206,0,l),
(243,212,l),
(328,212,l),
(431,0,l),
(655,0,l),
(531,244,l),
(626,281,o),
(694,353,o),
(713,461,cs),
(739,605,o),
(660,700,o),
(465,700,cs),
(134,700,l),
(11,0,l)
);
},
{
closed = 1;
nodes = (
(300,532,l),
(426,532,ls),
(491,532,o),
(526,505,o),
(516,449,cs),
(507,398,o),
(463,364,o),
(397,364,cs),
(270,364,l)
);
}
);
width = 695;
},
{
anchors = (
{
name = bottom;
pos = (255,0);
},
{
name = top;
pos = (380,712);
}
);
layerId = "179DD43A-A894-42A9-B4B6-A7F9368B08A7";
shapes = (
{
closed = 1;
nodes = (
(134,0,l),
(184,285,l),
(273,285,l),
(429,0,l),
(552,0,l),
(385,294,l),
(502,317,o),
(587,388,o),
(606,496,cs),
(628,620,o),
(543,704,o),
(391,704,cs),
(153,704,l),
(29,0,l)
);
},
{
closed = 1;
nodes = (
(242,613,l),
(365,613,ls),
(465,613,o),
(517,576,o),
(502,492,cs),
(486,403,o),
(407,367,o),
(308,367,cs),
(199,367,l)
);
}
);
width = 604;
},
{
anchors = (
{
name = bottom;
pos = (246,0);
},
{
name = top;
pos = (371,712);
}
);
layerId = "7F84CDEE-FC45-41A5-88A7-11DFAD5E6C3A";
shapes = (
{
closed = 1;
nodes = (
(119,0,l),
(172,299,l),
(262,299,l),
(428,0,l),
(531,0,l),
(356,304,l),
(476,324,o),
(566,395,o),
(585,503,cs),
(606,623,o),
(520,705,o),
(376,705,cs),
(157,705,l),
(33,0,l)
);
},
{
closed = 1;
nodes = (
(230,629,l),
(353,629,ls),
(461,629,o),
(514,589,o),
(498,500,cs),
(481,404,o),
(395,368,o),
(290,368,cs),
(184,368,l)
);
}
);
width = 586;
}
);
unicode = 82;
},
{
color = 1;
glyphname = S;
lastChange = "2025-10-31 11:39:54 +0000";
layers = (
{
anchors = (
{
name = bottom;
pos = (282,0);
},
{
name = top;
pos = (427,712);
}
);
layerId = "EE0A04B7-467B-4BD9-A2DD-E8921F00673F";
shapes = (
{
closed = 1;
nodes = (
(453,-12,o),
(574,59,o),
(612,181,c),
(689,482,o),
(270,399,o),
(289,506,cs),
(293,530,o),
(324,556,o),
(388,556,cs),
(479,556,o),
(580,503,o),
(641,442,c),
(672,619,l),
(607,680,o),
(522,712,o),
(401,712,cs),
(260,712,o),
(117,640,o),
(90,488,cs),
(45,231,o),
(439,302,o),
(421,197,cs),
(413,154,o),
(353,149,o),
(322,149,cs),
(210,149,o),
(92,206,o),
(20,278,c),
(-11,104,l),
(63,24,o),
(180,-12,o),
(297,-12,cs)
);
}
);
width = 657;
},
{
anchors = (
{
name = bottom;
pos = (222,0);
},
{
name = top;
pos = (367,712);
}
);
layerId = "179DD43A-A894-42A9-B4B6-A7F9368B08A7";
shapes = (
{
closed = 1;
nodes = (
(342,-12,o),
(472,42,o),
(500,179,cs),
(545,414,o),
(175,403,o),
(200,544,cs),
(210,599,o),
(265,629,o),
(340,629,cs),
(401,629,o),
(466,607,o),
(511,539,c),
(531,654,l),
(488,698,o),
(427,717,o),
(352,717,cs),
(234,717,o),
(115,655,o),
(96,543,cs),
(56,320,o),
(422,330,o),
(395,175,cs),
(381,94,o),
(301,77,o),
(238,77,cs),
(161,77,o),
(80,107,o),
(14,183,c),
(-4,77,l),
(52,12,o),
(128,-12,o),
(217,-12,cs)
);
}
);
width = 557;
},
{
anchors = (
{
name = bottom;
pos = (212,0);
},
{
name = top;
pos = (357,712);
}
);
layerId = "7F84CDEE-FC45-41A5-88A7-11DFAD5E6C3A";
shapes = (
{
closed = 1;
nodes = (
(324,-12,o),
(452,38,o),
(476,178,cs),
(516,402,o),
(156,404,o),
(182,552,cs),
(193,612,o),
(254,643,o),
(330,643,cs),
(374,643,o),
(445,627,o),
(485,558,c),
(504,661,l),
(464,701,o),
(408,718,o),
(333,718,cs),
(230,718,o),
(115,658,o),
(97,554,cs),
(59,338,o),
(418,334,o),
(389,170,cs),
(374,83,o),
(288,63,o),
(220,63,cs),
(161,63,o),
(80,91,o),
(13,164,c),
(-3,71,l),
(54,14,o),
(127,-12,o),
(211,-12,cs)
);
}
);
width = 537;
}
);
unicode = 83;
},
{
glyphname = Germandbls;
lastChange = "2025-10-31 11:39:54 +0000";
layers = (
{
layerId = "EE0A04B7-467B-4BD9-A2DD-E8921F00673F";
shapes = (
{
closed = 1;
nodes = (
(412,-16,o),
(594,39,o),
(623,204,cs),
(641,304,o),
(585,372,o),
(499,385,c),
(642,511,l),
(666,647,o),
(572,739,o),
(397,739,cs),
(190,739,o),
(72,635,o),
(41,459,cs),
(-40,0,l),
(149,0,l),
(229,453,ls),
(245,545,o),
(296,580,o),
(366,580,cs),
(427,580,o),
(465,552,o),
(457,505,c),
(357,404,l),
(339,303,l),
(407,298,o),
(445,268,o),
(437,220,cs),
(428,172,o),
(380,136,o),
(275,133,c),
(251,-3,l)
);
}
);
width = 663;
},
{
layerId = "179DD43A-A894-42A9-B4B6-A7F9368B08A7";
shapes = (
{
closed = 1;
nodes = (
(365,-6,o),
(506,62,o),
(533,216,cs),
(552,323,o),
(489,394,o),
(374,405,c),
(546,546,l),
(569,674,o),
(485,751,o),
(350,751,cs),
(178,751,o),
(77,643,o),
(54,510,cs),
(-36,0,l),
(62,0,l),
(152,508,ls),
(166,591,o),
(230,663,o),
(331,663,cs),
(411,663,o),
(461,623,o),
(449,554,c),
(292,419,l),
(280,351,l),
(387,343,o),
(448,303,o),
(432,211,cs),
(415,115,o),
(332,74,o),
(192,74,c),
(178,-3,l)
);
}
);
width = 576;
},
{
layerId = "7F84CDEE-FC45-41A5-88A7-11DFAD5E6C3A";
shapes = (
{
closed = 1;
nodes = (
(364,-3,o),
(499,67,o),
(525,218,cs),
(545,327,o),
(480,398,o),
(359,409,c),
(538,553,l),
(560,680,o),
(478,753,o),
(351,753,cs),
(185,753,o),
(89,644,o),
(67,520,cs),
(-25,0,l),
(55,0,l),
(147,519,ls),
(161,599,o),
(226,680,o),
(334,680,cs),
(417,680,o),
(469,637,o),
(456,564,c),
(288,422,l),
(277,360,l),
(393,352,o),
(459,310,o),
(441,209,cs),
(423,105,o),
(332,62,o),
(185,62,c),
(173,-3,l)
);
}
);
width = 559;
}
);
unicode = 7838;
},
{
color = 1;
glyphname = T;
lastChange = "2025-10-31 11:39:54 +0000";
layers = (
{
anchors = (
{
name = bottom;
pos = (272,0);
},
{
name = center;
pos = (335,356);
},
{
name = top;
pos = (397,712);
}
);
layerId = "EE0A04B7-467B-4BD9-A2DD-E8921F00673F";
shapes = (
{
closed = 1;
nodes = (
(368,0,l),
(461,530,l),
(671,530,l),
(701,700,l),
(87,700,l),
(57,530,l),
(267,530,l),
(174,0,l)
);
}
);
width = 637;
},
{
anchors = (
{
name = bottom;
pos = (223,0);
},
{
name = center;
pos = (286,356);
},
{
name = top;
pos = (348,712);
}
);
layerId = "179DD43A-A894-42A9-B4B6-A7F9368B08A7";
shapes = (
{
closed = 1;
nodes = (
(274,0,l),
(382,613,l),
(592,613,l),
(608,704,l),
(86,704,l),
(70,613,l),
(280,613,l),
(172,0,l)
);
}
);
width = 540;
},
{
anchors = (
{
name = bottom;
pos = (213,0);
},
{
name = center;
pos = (276,356);
},
{
name = top;
pos = (338,712);
}
);
layerId = "7F84CDEE-FC45-41A5-88A7-11DFAD5E6C3A";
shapes = (
{
closed = 1;
nodes = (
(255,0,l),
(366,629,l),
(576,629,l),
(589,705,l),
(85,705,l),
(72,629,l),
(282,629,l),
(171,0,l)
);
}
);
width = 520;
}
);
unicode = 84;
},
{
color = 1;
glyphname = U;
lastChange = "2025-10-31 11:39:54 +0000";
layers = (
{
anchors = (
{
name = bottom;
pos = (332,0);
},
{
name = ogonek;
pos = (407,0);
},
{
name = top;
pos = (457,712);
},
{
name = topright;
pos = (816,712);
}
);
layerId = "EE0A04B7-467B-4BD9-A2DD-E8921F00673F";
shapes = (
{
closed = 1;
nodes = (
(543,-13,o),
(672,86,o),
(712,312,cs),
(780,700,l),
(583,700,l),
(514,306,ls),
(496,206,o),
(440,162,o),
(360,162,cs),
(263,162,o),
(239,210,o),
(257,311,cs),
(325,700,l),
(128,700,l),
(59,307,ls),
(16,65,o),
(133,-13,o),
(327,-13,cs)
);
}
);
width = 758;
},
{
anchors = (
{
name = bottom;
pos = (309,0);
},
{
name = ogonek;
pos = (355,0);
},
{
name = top;
pos = (434,712);
},
{
name = topright;
pos = (769,712);
}
);
layerId = "179DD43A-A894-42A9-B4B6-A7F9368B08A7";
shapes = (
{
closed = 1;
nodes = (
(514,-15,o),
(612,98,o),
(646,291,cs),
(719,705,l),
(617,705,l),
(544,289,ls),
(519,148,o),
(440,80,o),
(323,80,cs),
(198,80,o),
(150,150,o),
(175,292,cs),
(248,705,l),
(145,705,l),
(72,288,ls),
(34,71,o),
(152,-15,o),
(306,-15,cs)
);
}
);
width = 711;
},
{
anchors = (
{
name = bottom;
pos = (304,0);
},
{
name = ogonek;
pos = (342,0);
},
{
name = top;
pos = (429,712);
},
{
name = topright;
pos = (760,712);
}
);
layerId = "7F84CDEE-FC45-41A5-88A7-11DFAD5E6C3A";
shapes = (
{
closed = 1;
nodes = (
(486,-15,o),
(601,100,o),
(634,287,cs),
(707,706,l),
(623,706,l),
(549,285,ls),
(523,136,o),
(440,63,o),
(315,63,cs),
(171,63,o),
(131,128,o),
(159,288,cs),
(232,706,l),
(148,706,l),
(74,284,ls),
(37,72,o),
(131,-15,o),
(302,-15,cs)
);
}
);
width = 702;
}
);
unicode = 85;
},
{
color = 1;
glyphname = V;
lastChange = "2025-10-31 11:39:54 +0000";
layers = (
{
anchors = (
{
name = bottom;
pos = (320,0);
},
{
name = top;
pos = (445,712);
}
);
layerId = "EE0A04B7-467B-4BD9-A2DD-E8921F00673F";
shapes = (
{
closed = 1;
nodes = (
(408,-5,l),
(816,700,l),
(603,700,l),
(366,257,l),
(285,700,l),
(68,700,l),
(228,-5,l)
);
}
);
width = 733;
},
{
anchors = (
{
name = bottom;
pos = (284,0);
},
{
name = top;
pos = (409,712);
}
);
layerId = "179DD43A-A894-42A9-B4B6-A7F9368B08A7";
shapes = (
{
closed = 1;
nodes = (
(341,-1,l),
(741,704,l),
(629,704,l),
(305,116,l),
(187,704,l),
(72,704,l),
(227,-1,l)
);
}
);
width = 661;
},
{
anchors = (
{
name = bottom;
pos = (276,0);
},
{
name = top;
pos = (401,712);
}
);
layerId = "7F84CDEE-FC45-41A5-88A7-11DFAD5E6C3A";
shapes = (
{
closed = 1;
nodes = (
(327,0,l),
(726,705,l),
(634,705,l),
(294,88,l),
(167,705,l),
(73,705,l),
(226,0,l)
);
}
);
width = 646;
}
);
unicode = 86;
},
{
color = 1;
glyphname = W;
lastChange = "2025-10-31 11:39:54 +0000";
layers = (
{
anchors = (
{
name = bottom;
pos = (494,0);
},
{
name = top;
pos = (619,712);
}
);
layerId = "EE0A04B7-467B-4BD9-A2DD-E8921F00673F";
shapes = (
{
closed = 1;
nodes = (
(352,-5,l),
(563,398,l),
(633,-5,l),
(802,-5,l),
(1160,700,l),
(959,700,l),
(766,295,l),
(703,702,l),
(536,702,l),
(329,295,l),
(278,700,l),
(73,700,l),
(183,-5,l)
);
}
);
width = 1081;
},
{
anchors = (
{
name = bottom;
pos = (457,0);
},
{
name = top;
pos = (582,712);
}
);
layerId = "179DD43A-A894-42A9-B4B6-A7F9368B08A7";
shapes = (
{
closed = 1;
nodes = (
(289,-1,l),
(553,551,l),
(629,-1,l),
(724,-1,l),
(1082,704,l),
(975,704,l),
(704,154,l),
(631,705,l),
(535,705,l),
(272,154,l),
(190,704,l),
(80,704,l),
(192,-1,l)
);
}
);
width = 1008;
},
{
anchors = (
{
name = bottom;
pos = (450,0);
},
{
name = top;
pos = (575,712);
}
);
layerId = "7F84CDEE-FC45-41A5-88A7-11DFAD5E6C3A";
shapes = (
{
closed = 1;
nodes = (
(276,0,l),
(552,582,l),
(628,0,l),
(708,0,l),
(1066,705,l),
(978,705,l),
(692,126,l),
(616,706,l),
(535,706,l),
(260,126,l),
(172,705,l),
(81,705,l),
(194,0,l)
);
}
);
width = 993;
}
);
unicode = 87;
},
{
color = 1;
glyphname = X;
lastChange = "2025-10-31 11:39:54 +0000";
layers = (
{
anchors = (
{
name = bottom;
pos = (308,0);
},
{
name = top;
pos = (433,712);
}
);
layerId = "EE0A04B7-467B-4BD9-A2DD-E8921F00673F";
shapes = (
{
closed = 1;
nodes = (
(171,0,l),
(343,211,l),
(440,0,l),
(663,0,l),
(486,358,l),
(776,700,l),
(558,700,l),
(399,503,l),
(309,700,l),
(86,700,l),
(256,356,l),
(-47,0,l)
);
}
);
width = 710;
},
{
anchors = (
{
name = bottom;
pos = (274,0);
},
{
name = top;
pos = (399,712);
}
);
layerId = "179DD43A-A894-42A9-B4B6-A7F9368B08A7";
shapes = (
{
closed = 1;
nodes = (
(80,0,l),
(323,282,l),
(467,0,l),
(585,0,l),
(398,362,l),
(696,704,l),
(580,704,l),
(353,439,l),
(217,704,l),
(97,704,l),
(277,360,l),
(-39,0,l)
);
}
);
width = 641;
},
{
anchors = (
{
name = bottom;
pos = (267,0);
},
{
name = top;
pos = (392,712);
}
);
layerId = "7F84CDEE-FC45-41A5-88A7-11DFAD5E6C3A";
shapes = (
{
closed = 1;
nodes = (
(62,0,l),
(318,296,l),
(472,0,l),
(569,0,l),
(380,363,l),
(680,705,l),
(584,705,l),
(344,426,l),
(198,705,l),
(99,705,l),
(282,361,l),
(-37,0,l)
);
}
);
width = 627;
}
);
unicode = 88;
},
{
color = 1;
glyphname = Y;
lastChange = "2025-10-31 11:39:54 +0000";
layers = (
{
anchors = (
{
name = bottom;
pos = (310,0);
},
{
name = top;
pos = (435,712);
},
{
name = topleft;
pos = (98,712);
}
);
layerId = "EE0A04B7-467B-4BD9-A2DD-E8921F00673F";
shapes = (
{
closed = 1;
nodes = (
(407,0,l),
(454,265,l),
(796,700,l),
(579,700,l),
(389,445,l),
(290,700,l),
(69,700,l),
(258,262,l),
(212,0,l)
);
}
);
width = 713;
},
{
anchors = (
{
name = bottom;
pos = (271,0);
},
{
name = top;
pos = (396,712);
},
{
name = topleft;
pos = (98,712);
}
);
layerId = "179DD43A-A894-42A9-B4B6-A7F9368B08A7";
shapes = (
{
closed = 1;
nodes = (
(323,0,l),
(372,278,l),
(716,704,l),
(601,704,l),
(340,373,l),
(194,704,l),
(74,704,l),
(269,277,l),
(220,0,l)
);
}
);
width = 636;
},
{
anchors = (
{
name = bottom;
pos = (264,0);
},
{
name = top;
pos = (389,712);
},
{
name = topleft;
pos = (98,712);
}
);
layerId = "7F84CDEE-FC45-41A5-88A7-11DFAD5E6C3A";
shapes = (
{
closed = 1;
nodes = (
(306,0,l),
(356,281,l),
(700,705,l),
(605,705,l),
(330,358,l),
(175,705,l),
(75,705,l),
(271,280,l),
(222,0,l)
);
}
);
width = 621;
}
);
unicode = 89;
},
{
color = 1;
glyphname = Z;
lastChange = "2025-10-31 11:39:54 +0000";
layers = (
{
anchors = (
{
name = bottom;
pos = (265,0);
},
{
name = center;
pos = (328,356);
},
{
name = top;
pos = (390,712);
}
);
layerId = "EE0A04B7-467B-4BD9-A2DD-E8921F00673F";
shapes = (
{
closed = 1;
nodes = (
(568,0,l),
(597,164,l),
(246,164,l),
(667,559,l),
(691,700,l),
(84,700,l),
(55,536,l),
(394,536,l),
(-26,141,l),
(-51,0,l)
);
}
);
width = 624;
},
{
anchors = (
{
name = bottom;
pos = (273,0);
},
{
name = center;
pos = (336,356);
},
{
name = top;
pos = (398,712);
}
);
layerId = "179DD43A-A894-42A9-B4B6-A7F9368B08A7";
shapes = (
{
closed = 1;
nodes = (
(552,0,l),
(568,90,l),
(116,90,l),
(679,620,l),
(694,704,l),
(113,704,l),
(97,614,l),
(547,614,l),
(-21,84,l),
(-36,0,l)
);
}
);
width = 639;
},
{
anchors = (
{
name = bottom;
pos = (274,0);
},
{
name = center;
pos = (337,356);
},
{
name = top;
pos = (399,712);
}
);
layerId = "7F84CDEE-FC45-41A5-88A7-11DFAD5E6C3A";
shapes = (
{
closed = 1;
nodes = (
(549,0,l),
(562,75,l),
(90,75,l),
(681,632,l),
(694,705,l),
(119,705,l),
(106,630,l),
(578,630,l),
(-20,72,l),
(-33,0,l)
);
}
);
width = 642;
}
);
unicode = 90;
},
{
color = 1;
glyphname = a;
lastChange = "2025-10-31 11:39:54 +0000";
layers = (
{
anchors = (
{
name = bottom;
pos = (259,0);
},
{
name = ogonek;
pos = (510,0);
},
{
name = top;
pos = (353,536);
}
);
layerId = "EE0A04B7-467B-4BD9-A2DD-E8921F00673F";
shapes = (
{
closed = 1;
nodes = (
(236,-12,o),
(290,15,o),
(334,56,c),
(508,-12,l),
(565,311,ls),
(592,466,o),
(527,549,o),
(339,549,cs),
(251,549,o),
(186,532,o),
(117,507,c),
(94,373,l),
(158,396,o),
(210,404,o),
(263,404,cs),
(352,404,o),
(395,377,o),
(381,315,cs),
(379,306,l),
(350,317,o),
(303,327,o),
(251,327,cs),
(126,327,o),
(28,269,o),
(9,157,cs),
(-10,49,o),
(59,-12,o),
(164,-12,cs)
);
},
{
closed = 1;
nodes = (
(218,107,o),
(189,133,o),
(196,170,cs),
(202,206,o),
(239,235,o),
(295,235,cs),
(322,235,o),
(348,229,o),
(364,221,c),
(350,139,l),
(318,116,o),
(288,107,o),
(257,107,cs)
);
}
);
width = 611;
},
{
anchors = (
{
name = bottom;
pos = (233,0);
},
{
name = ogonek;
pos = (447,0);
},
{
name = top;
pos = (327,536);
}
);
layerId = "179DD43A-A894-42A9-B4B6-A7F9368B08A7";
shapes = (
{
closed = 1;
nodes = (
(251,-11,o),
(303,10,o),
(354,50,c),
(446,-2,l),
(500,309,ls),
(522,437,o),
(433,502,o),
(305,502,cs),
(226,502,o),
(155,480,o),
(103,460,c),
(88,372,l),
(154,407,o),
(216,419,o),
(279,419,cs),
(364,419,o),
(415,391,o),
(403,318,cs),
(400,300,l),
(363,323,o),
(313,332,o),
(257,332,cs),
(153,332,o),
(39,293,o),
(17,169,cs),
(-4,53,o),
(87,-11,o),
(183,-11,cs)
);
},
{
closed = 1;
nodes = (
(156,65,o),
(103,96,o),
(115,163,cs),
(127,232,o),
(201,261,o),
(264,261,cs),
(323,261,o),
(359,244,o),
(387,227,c),
(369,125,l),
(331,88,o),
(283,65,o),
(223,65,cs)
);
}
);
width = 559;
},
{
anchors = (
{
name = bottom;
pos = (227,0);
},
{
name = ogonek;
pos = (433,0);
},
{
name = top;
pos = (321,536);
}
);
layerId = "7F84CDEE-FC45-41A5-88A7-11DFAD5E6C3A";
shapes = (
{
closed = 1;
nodes = (
(254,-11,o),
(306,9,o),
(358,49,c),
(433,0,l),
(487,308,ls),
(509,431,o),
(413,492,o),
(297,492,cs),
(221,492,o),
(148,470,o),
(99,450,c),
(86,372,l),
(152,408,o),
(217,422,o),
(281,422,cs),
(365,422,o),
(419,394,o),
(407,318,cs),
(404,299,l),
(365,324,o),
(315,333,o),
(258,333,cs),
(158,333,o),
(40,296,o),
(18,171,cs),
(-2,54,o),
(91,-11,o),
(186,-11,cs)
);
},
{
closed = 1;
nodes = (
(144,57,o),
(86,90,o),
(98,161,cs),
(112,238,o),
(193,266,o),
(258,266,cs),
(322,266,o),
(362,247,o),
(391,228,c),
(373,122,l),
(332,82,o),
(281,57,o),
(216,57,cs)
);
}
);
width = 548;
}
);
unicode = 97;
},
{
glyphname = ae;
lastChange = "2025-10-31 11:41:05 +0000";
layers = (
{
layerId = "EE0A04B7-467B-4BD9-A2DD-E8921F00673F";
shapes = (
{
closed = 1;
nodes = (
(687,-17,o),
(770,3,o),
(838,42,c),
(864,190,l),
(797,138,o),
(715,121,o),
(640,121,cs),
(604,121,o),
(576,128,o),
(555,148,c),
(926,240,l),
(955,401,o),
(889,548,o),
(713,548,cs),
(644,548,o),
(580,527,o),
(527,491,c),
(490,530,o),
(428,549,o),
(336,549,cs),
(260,549,o),
(190,536,o),
(114,507,c),
(91,373,l),
(155,396,o),
(207,404,o),
(260,404,cs),
(349,404,o),
(392,377,o),
(378,315,cs),
(376,306,l),
(347,317,o),
(300,327,o),
(248,327,cs),
(136,327,o),
(28,281,o),
(6,157,cs),
(-13,49,o),
(81,-12,o),
(206,-12,cs),
(292,-12,o),
(353,3,o),
(437,48,c),
(478,7,o),
(537,-17,o),
(613,-17,cs)
);
},
{
closed = 1;
nodes = (
(215,107,o),
(186,133,o),
(193,170,cs),
(199,206,o),
(236,235,o),
(292,235,cs),
(319,235,o),
(345,229,o),
(361,221,c),
(347,139,l),
(315,116,o),
(285,107,o),
(254,107,cs)
);
},
{
closed = 1;
nodes = (
(568,332,o),
(607,407,o),
(677,407,cs),
(724,407,o),
(752,375,o),
(754,319,c),
(562,272,l)
);
}
);
width = 962;
},
{
layerId = "179DD43A-A894-42A9-B4B6-A7F9368B08A7";
shapes = (
{
closed = 1;
nodes = (
(678,-12,o),
(740,11,o),
(789,44,c),
(806,142,l),
(744,89,o),
(694,69,o),
(620,69,cs),
(540,69,o),
(498,111,o),
(485,171,c),
(873,262,l),
(883,393,o),
(820,504,o),
(677,504,cs),
(598,504,o),
(532,470,o),
(483,417,c),
(455,468,o),
(398,501,o),
(309,501,cs),
(251,501,o),
(168,487,o),
(99,460,c),
(84,372,l),
(143,404,o),
(212,419,o),
(275,419,cs),
(360,419,o),
(412,391,o),
(399,318,cs),
(396,300,l),
(359,323,o),
(310,332,o),
(253,332,cs),
(151,332,o),
(43,293,o),
(15,174,cs),
(-13,58,o),
(82,-11,o),
(189,-11,cs),
(267,-11,o),
(355,17,o),
(423,75,c),
(462,13,o),
(532,-13,o),
(609,-12,cs)
);
},
{
closed = 1;
nodes = (
(152,65,o),
(99,96,o),
(111,163,cs),
(123,232,o),
(197,261,o),
(261,261,cs),
(318,261,o),
(355,244,o),
(383,227,c),
(365,125,l),
(327,88,o),
(279,65,o),
(219,65,cs)
);
},
{
closed = 1;
nodes = (
(505,339,o),
(569,422,o),
(663,422,cs),
(735,422,o),
(776,377,o),
(783,317,c),
(489,251,l)
);
}
);
width = 906;
},
{
layerId = "7F84CDEE-FC45-41A5-88A7-11DFAD5E6C3A";
shapes = (
{
closed = 1;
nodes = (
(671,-11,o),
(733,12,o),
(779,44,c),
(794,132,l),
(732,79,o),
(691,59,o),
(616,59,cs),
(528,59,o),
(482,107,o),
(471,175,c),
(862,266,l),
(868,390,o),
(807,495,o),
(669,495,cs),
(589,495,o),
(522,459,o),
(473,402,c),
(442,466,o),
(367,492,o),
(293,492,cs),
(217,492,o),
(144,470,o),
(95,450,c),
(82,372,l),
(144,407,o),
(212,422,o),
(277,422,cs),
(361,422,o),
(416,394,o),
(403,318,cs),
(400,299,l),
(361,324,o),
(311,333,o),
(254,333,cs),
(154,333,o),
(36,296,o),
(14,171,cs),
(-5,60,o),
(76,-11,o),
(182,-11,cs),
(267,-11,o),
(350,19,o),
(420,80,c),
(457,18,o),
(522,-11,o),
(599,-11,cs)
);
},
{
closed = 1;
nodes = (
(140,57,o),
(82,90,o),
(94,161,cs),
(108,238,o),
(189,266,o),
(254,266,cs),
(318,266,o),
(358,247,o),
(387,228,c),
(369,122,l),
(328,82,o),
(277,57,o),
(212,57,cs)
);
},
{
closed = 1;
nodes = (
(491,340,o),
(563,425,o),
(660,425,cs),
(736,425,o),
(781,377,o),
(788,316,c),
(475,247,l)
);
}
);
width = 895;
}
);
unicode = 230;
},
{
color = 1;
glyphname = b;
lastChange = "2025-10-31 11:40:28 +0000";
layers = (
{
anchors = (
{
name = bottom;
pos = (291,0);
},
{
name = center;
pos = (338,268);
},
{
name = top;
pos = (485,536);
}
);
layerId = "EE0A04B7-467B-4BD9-A2DD-E8921F00673F";
shapes = (
{
closed = 1;
nodes = (
(486,-12,o),
(616,95,o),
(647,271,cs),
(678,446,o),
(585,553,o),
(457,553,cs),
(376,553,o),
(323,514,o),
(278,469,c),
(324,730,l),
(134,730,l),
(3,-12,l),
(207,66,l),
(246,3,o),
(311,-12,o),
(358,-12,cs)
);
},
{
closed = 1;
nodes = (
(266,147,o),
(227,198,o),
(240,270,cs),
(252,343,o),
(309,394,o),
(370,394,cs),
(449,394,o),
(471,336,o),
(460,272,cs),
(447,197,o),
(389,147,o),
(327,147,cs)
);
}
);
width = 675;
},
{
anchors = (
{
name = bottom;
pos = (262,0);
},
{
name = center;
pos = (309,268);
},
{
name = top;
pos = (386,536);
}
);
layerId = "179DD43A-A894-42A9-B4B6-A7F9368B08A7";
shapes = (
{
closed = 1;
nodes = (
(428,-10,o),
(553,92,o),
(580,246,cs),
(608,402,o),
(520,504,o),
(389,504,cs),
(309,504,o),
(243,464,o),
(190,407,c),
(247,732,l),
(147,732,l),
(18,-1,l),
(137,70,l),
(180,5,o),
(246,-10,o),
(296,-10,cs)
);
},
{
closed = 1;
nodes = (
(201,74,o),
(141,147,o),
(158,246,cs),
(176,346,o),
(262,417,o),
(350,417,cs),
(465,417,o),
(499,339,o),
(481,245,cs),
(462,145,o),
(382,74,o),
(289,74,cs)
);
}
);
width = 618;
},
{
anchors = (
{
name = bottom;
pos = (256,0);
},
{
name = center;
pos = (303,268);
},
{
name = top;
pos = (380,536);
}
);
layerId = "7F84CDEE-FC45-41A5-88A7-11DFAD5E6C3A";
shapes = (
{
closed = 1;
nodes = (
(416,-10,o),
(541,91,o),
(567,241,cs),
(594,393,o),
(506,494,o),
(375,494,cs),
(295,494,o),
(225,454,o),
(171,394,c),
(231,732,l),
(149,732,l),
(20,1,l),
(124,71,l),
(164,5,o),
(236,-10,o),
(284,-10,cs)
);
},
{
closed = 1;
nodes = (
(187,59,o),
(123,138,o),
(141,241,cs),
(160,346,o),
(251,422,o),
(345,422,cs),
(466,422,o),
(501,340,o),
(485,240,cs),
(467,134,o),
(380,59,o),
(281,59,cs)
);
}
);
width = 606;
}
);
unicode = 98;
},
{
color = 1;
glyphname = c;
lastChange = "2025-10-31 11:39:54 +0000";
layers = (
{
anchors = (
{
name = bottom;
pos = (270,0);
},
{
name = top;
pos = (364,536);
}
);
layerId = "EE0A04B7-467B-4BD9-A2DD-E8921F00673F";
shapes = (
{
closed = 1;
nodes = (
(308,-13,o),
(355,-6,o),
(390,6,c),
(421,183,l),
(384,156,o),
(347,147,o),
(316,147,cs),
(247,147,o),
(202,201,o),
(215,270,cs),
(227,338,o),
(285,392,o),
(356,392,cs),
(395,392,o),
(422,378,o),
(447,355,c),
(479,537,l),
(450,548,o),
(406,552,o),
(369,552,cs),
(198,552,o),
(56,422,o),
(30,270,cs),
(2,115,o),
(105,-13,o),
(268,-13,cs)
);
}
);
width = 473;
},
{
anchors = (
{
name = bottom;
pos = (239,0);
},
{
name = top;
pos = (343,536);
}
);
layerId = "179DD43A-A894-42A9-B4B6-A7F9368B08A7";
shapes = (
{
closed = 1;
nodes = (
(292,-10,o),
(342,7,o),
(385,30,c),
(404,135,l),
(362,98,o),
(313,75,o),
(261,75,cs),
(170,75,o),
(114,155,o),
(131,250,cs),
(148,347,o),
(228,418,o),
(319,418,cs),
(370,418,o),
(409,397,o),
(438,358,c),
(457,466,l),
(427,491,o),
(379,502,o),
(332,502,cs),
(179,502,o),
(55,385,o),
(30,245,cs),
(5,101,o),
(93,-10,o),
(235,-10,cs)
);
}
);
width = 471;
},
{
anchors = (
{
name = bottom;
pos = (238,0);
},
{
name = top;
pos = (342,536);
}
);
layerId = "7F84CDEE-FC45-41A5-88A7-11DFAD5E6C3A";
shapes = (
{
closed = 1;
nodes = (
(288,-9,o),
(341,11,o),
(384,35,c),
(400,125,l),
(357,86,o),
(306,60,o),
(250,60,cs),
(155,60,o),
(97,146,o),
(115,247,cs),
(132,347,o),
(215,423,o),
(311,423,cs),
(364,423,o),
(406,399,o),
(436,359,c),
(453,452,l),
(421,479,o),
(372,492,o),
(324,492,cs),
(175,492,o),
(55,379,o),
(30,240,cs),
(5,99,o),
(90,-9,o),
(228,-9,cs)
);
}
);
width = 470;
}
);
unicode = 99;
},
{
color = 1;
glyphname = d;
lastChange = "2025-10-31 11:39:54 +0000";
layers = (
{
anchors = (
{
name = bottom;
pos = (291,0);
},
{
name = center;
pos = (338,268);
},
{
name = top;
pos = (422,747);
},
{
name = topright;
pos = (549,747);
}
);
layerId = "EE0A04B7-467B-4BD9-A2DD-E8921F00673F";
shapes = (
{
closed = 1;
nodes = (
(299,-12,o),
(353,27,o),
(398,72,c),
(573,-12,l),
(704,730,l),
(514,730,l),
(469,475,l),
(440,516,o),
(398,553,o),
(317,553,cs),
(189,553,o),
(60,446,o),
(29,270,cs),
(-2,95,o),
(91,-12,o),
(219,-12,cs)
);
},
{
closed = 1;
nodes = (
(227,147,o),
(203,207,o),
(216,270,cs),
(231,344,o),
(288,394,o),
(347,394,cs),
(408,394,o),
(448,343,o),
(436,272,cs),
(423,197,o),
(365,147,o),
(304,147,cs)
);
}
);
width = 675;
},
{
anchors = (
{
name = bottom;
pos = (262,0);
},
{
name = center;
pos = (309,268);
},
{
name = top;
pos = (393,747);
},
{
name = topright;
pos = (542,747);
}
);
layerId = "179DD43A-A894-42A9-B4B6-A7F9368B08A7";
shapes = (
{
closed = 1;
nodes = (
(303,-10,o),
(358,25,o),
(410,76,c),
(505,-1,l),
(634,732,l),
(534,732,l),
(477,411,l),
(447,467,o),
(394,504,o),
(313,504,cs),
(185,504,o),
(58,403,o),
(30,246,cs),
(3,89,o),
(93,-10,o),
(224,-10,cs)
);
},
{
closed = 1;
nodes = (
(145,75,o),
(112,154,o),
(131,247,cs),
(151,350,o),
(233,419,o),
(318,419,cs),
(405,419,o),
(469,346,o),
(452,247,cs),
(434,147,o),
(346,75,o),
(257,75,cs)
);
}
);
width = 618;
},
{
anchors = (
{
name = bottom;
pos = (256,0);
},
{
name = center;
pos = (303,268);
},
{
name = top;
pos = (387,747);
},
{
name = topright;
pos = (540,747);
}
);
layerId = "7F84CDEE-FC45-41A5-88A7-11DFAD5E6C3A";
shapes = (
{
closed = 1;
nodes = (
(304,-10,o),
(359,24,o),
(413,77,c),
(491,1,l),
(620,732,l),
(538,732,l),
(479,398,l),
(449,458,o),
(392,494,o),
(311,494,cs),
(183,494,o),
(57,394,o),
(30,241,cs),
(4,88,o),
(94,-10,o),
(225,-10,cs)
);
},
{
closed = 1;
nodes = (
(129,60,o),
(95,144,o),
(114,242,cs),
(134,351,o),
(220,424,o),
(312,424,cs),
(404,424,o),
(473,347,o),
(455,242,cs),
(436,137,o),
(343,60,o),
(248,60,cs)
);
}
);
width = 606;
}
);
unicode = 100;
},
{
glyphname = dcaron;
lastChange = "2025-10-31 14:04:33 +0000";
layers = (
{
background = {
anchors = (
{
name = bottom;
pos = (291,0);
},
{
name = center;
pos = (338,268);
},
{
name = top;
pos = (422,747);
},
{
name = topright;
pos = (549,747);
}
);
shapes = (
{
closed = 1;
nodes = (
(299,-12,o),
(353,27,o),
(398,72,c),
(573,-12,l),
(704,730,l),
(514,730,l),
(469,475,l),
(440,516,o),
(398,553,o),
(317,553,cs),
(189,553,o),
(60,446,o),
(29,270,cs),
(-2,95,o),
(91,-12,o),
(219,-12,cs)
);
},
{
closed = 1;
nodes = (
(227,147,o),
(203,207,o),
(216,270,cs),
(231,344,o),
(288,394,o),
(347,394,cs),
(408,394,o),
(448,343,o),
(436,272,cs),
(423,197,o),
(365,147,o),
(304,147,cs)
);
},
{
closed = 1;
nodes = (
(812,586,l),
(920,820,l),
(795,820,l),
(713,586,l)
);
}
);
};
layerId = "EE0A04B7-467B-4BD9-A2DD-E8921F00673F";
shapes = (
{
ref = d;
},
{
pos = (500,60);
ref = caroncomb.alt;
}
);
width = 675;
},
{
background = {
anchors = (
{
name = bottom;
pos = (262,0);
},
{
name = center;
pos = (309,268);
},
{
name = top;
pos = (393,747);
},
{
name = topright;
pos = (542,747);
}
);
shapes = (
{
closed = 1;
nodes = (
(303,-10,o),
(358,25,o),
(410,76,c),
(505,-1,l),
(634,732,l),
(534,732,l),
(477,411,l),
(447,467,o),
(394,504,o),
(313,504,cs),
(185,504,o),
(58,403,o),
(30,246,cs),
(3,89,o),
(93,-10,o),
(224,-10,cs)
);
},
{
closed = 1;
nodes = (
(145,75,o),
(112,154,o),
(131,247,cs),
(151,350,o),
(233,419,o),
(318,419,cs),
(405,419,o),
(469,346,o),
(452,247,cs),
(434,147,o),
(346,75,o),
(257,75,cs)
);
},
{
closed = 1;
nodes = (
(713,591,l),
(797,770,l),
(707,770,l),
(644,591,l)
);
}
);
};
layerId = "179DD43A-A894-42A9-B4B6-A7F9368B08A7";
shapes = (
{
ref = d;
},
{
pos = (398,10);
ref = caroncomb.alt;
}
);
width = 618;
},
{
background = {
anchors = (
{
name = bottom;
pos = (256,0);
},
{
name = center;
pos = (303,268);
},
{
name = top;
pos = (387,747);
},
{
name = topright;
pos = (540,747);
}
);
shapes = (
{
closed = 1;
nodes = (
(304,-10,o),
(359,24,o),
(413,77,c),
(491,1,l),
(620,732,l),
(538,732,l),
(479,398,l),
(449,458,o),
(392,494,o),
(311,494,cs),
(183,494,o),
(57,394,o),
(30,241,cs),
(4,88,o),
(94,-10,o),
(225,-10,cs)
);
},
{
closed = 1;
nodes = (
(129,60,o),
(95,144,o),
(114,242,cs),
(134,351,o),
(220,424,o),
(312,424,cs),
(404,424,o),
(473,347,o),
(455,242,cs),
(436,137,o),
(343,60,o),
(248,60,cs)
);
},
{
closed = 1;
nodes = (
(689,592,l),
(767,760,l),
(684,760,l),
(625,592,l)
);
}
);
};
layerId = "7F84CDEE-FC45-41A5-88A7-11DFAD5E6C3A";
shapes = (
{
ref = d;
},
{
pos = (373,0);
ref = caroncomb.alt;
}
);
width = 606;
}
);
unicode = 271;
},
{
glyphname = dcroat;
lastChange = "2025-10-31 11:39:54 +0000";
layers = (
{
layerId = "EE0A04B7-467B-4BD9-A2DD-E8921F00673F";
shapes = (
{
closed = 1;
nodes = (
(300,-12,o),
(354,27,o),
(399,72,c),
(574,-12,l),
(705,730,l),
(515,730,l),
(470,475,l),
(441,516,o),
(400,553,o),
(319,553,cs),
(191,553,o),
(61,446,o),
(30,270,cs),
(-1,95,o),
(92,-12,o),
(220,-12,cs)
);
},
{
closed = 1;
nodes = (
(227,147,o),
(207,208,o),
(217,270,cs),
(230,344,o),
(289,394,o),
(348,394,cs),
(409,394,o),
(449,343,o),
(437,272,cs),
(424,197,o),
(366,147,o),
(305,147,cs)
);
},
{
closed = 1;
nodes = (
(732,542,l),
(761,709,l),
(433,709,l),
(404,542,l)
);
}
);
width = 681;
},
{
layerId = "179DD43A-A894-42A9-B4B6-A7F9368B08A7";
shapes = (
{
closed = 1;
nodes = (
(304,-10,o),
(358,25,o),
(410,76,c),
(505,-1,l),
(634,732,l),
(534,732,l),
(477,411,l),
(447,467,o),
(394,504,o),
(313,504,cs),
(185,504,o),
(58,403,o),
(30,246,cs),
(3,89,o),
(93,-10,o),
(224,-10,cs)
);
},
{
closed = 1;
nodes = (
(145,75,o),
(119,157,o),
(132,247,cs),
(148,350,o),
(233,419,o),
(318,419,cs),
(405,419,o),
(469,346,o),
(452,247,cs),
(434,147,o),
(347,75,o),
(257,75,cs)
);
},
{
closed = 1;
nodes = (
(659,577,l),
(675,669,l),
(395,669,l),
(379,577,l)
);
}
);
width = 599;
},
{
layerId = "7F84CDEE-FC45-41A5-88A7-11DFAD5E6C3A";
shapes = (
{
closed = 1;
nodes = (
(304,-10,o),
(359,24,o),
(413,77,c),
(491,1,l),
(620,732,l),
(538,732,l),
(479,398,l),
(449,458,o),
(392,494,o),
(311,494,cs),
(183,494,o),
(57,394,o),
(30,241,cs),
(4,88,o),
(94,-10,o),
(225,-10,cs)
);
},
{
closed = 1;
nodes = (
(128,60,o),
(100,146,o),
(114,242,cs),
(131,351,o),
(220,424,o),
(312,424,cs),
(404,424,o),
(473,347,o),
(455,242,cs),
(436,137,o),
(343,60,o),
(248,60,cs)
);
},
{
closed = 1;
nodes = (
(644,584,l),
(658,661,l),
(387,661,l),
(373,584,l)
);
}
);
width = 583;
}
);
unicode = 273;
},
{
glyphname = eth;
lastChange = "2025-10-31 11:39:54 +0000";
layers = (
{
layerId = "EE0A04B7-467B-4BD9-A2DD-E8921F00673F";
shapes = (
{
closed = 1;
nodes = (
(374,-13,o),
(537,61,o),
(573,268,cs),
(599,414,o),
(559,545,o),
(454,659,c),
(573,722,l),
(528,780,l),
(402,714,l),
(372,744,o),
(348,766,o),
(316,787,c),
(181,708,l),
(208,685,o),
(231,667,o),
(257,640,c),
(135,578,l),
(182,519,l),
(310,586,l),
(341,550,o),
(365,515,o),
(386,470,c),
(370,476,o),
(347,483,o),
(310,483,cs),
(185,483,o),
(52,394,o),
(25,239,cs),
(-5,69,o),
(121,-13,o),
(252,-13,cs)
);
},
{
closed = 1;
nodes = (
(228,140,o),
(200,186,o),
(209,238,cs),
(220,299,o),
(258,339,o),
(315,339,cs),
(369,339,o),
(394,289,o),
(385,238,cs),
(376,186,o),
(332,140,o),
(280,140,cs)
);
}
);
width = 603;
},
{
layerId = "179DD43A-A894-42A9-B4B6-A7F9368B08A7";
shapes = (
{
closed = 1;
nodes = (
(330,-11,o),
(473,64,o),
(505,245,cs),
(542,455,o),
(431,594,o),
(383,652,c),
(519,732,l),
(486,773,l),
(346,691,l),
(310,728,o),
(290,745,o),
(238,780,c),
(174,731,l),
(230,691,o),
(255,666,o),
(271,649,c),
(138,571,l),
(171,529,l),
(307,609,l),
(361,549,o),
(403,484,o),
(420,403,c),
(404,419,o),
(369,456,o),
(294,456,cs),
(162,456,o),
(48,347,o),
(26,223,cs),
(3,88,o),
(94,-11,o),
(223,-11,cs)
);
},
{
closed = 1;
nodes = (
(136,98,o),
(115,169,o),
(138,241,cs),
(161,317,o),
(231,368,o),
(304,360,cs),
(382,352,o),
(412,278,o),
(392,208,cs),
(370,132,o),
(302,80,o),
(227,88,cs)
);
}
);
width = 543;
},
{
layerId = "7F84CDEE-FC45-41A5-88A7-11DFAD5E6C3A";
shapes = (
{
closed = 1;
nodes = (
(320,-11,o),
(460,64,o),
(491,240,cs),
(531,464,o),
(407,604,o),
(369,650,c),
(508,734,l),
(478,772,l),
(334,686,l),
(298,724,o),
(278,738,o),
(221,778,c),
(173,735,l),
(233,692,o),
(261,666,o),
(275,651,c),
(138,569,l),
(169,531,l),
(307,614,l),
(364,550,o),
(411,478,o),
(427,390,c),
(412,408,o),
(373,450,o),
(291,450,cs),
(157,450,o),
(47,337,o),
(27,220,cs),
(4,92,o),
(88,-11,o),
(217,-11,cs)
);
},
{
closed = 1;
nodes = (
(122,58,o),
(86,133,o),
(103,221,cs),
(121,313,o),
(197,384,o),
(289,384,cs),
(382,384,o),
(429,306,o),
(414,221,cs),
(398,133,o),
(323,58,o),
(230,58,cs)
);
}
);
width = 531;
}
);
unicode = 240;
},
{
color = 1;
glyphname = e;
lastChange = "2025-10-31 11:39:54 +0000";
layers = (
{
anchors = (
{
name = bottom;
pos = (258,0);
},
{
name = ogonek;
pos = (487,42);
},
{
name = top;
pos = (352,536);
}
);
layerId = "EE0A04B7-467B-4BD9-A2DD-E8921F00673F";
shapes = (
{
closed = 1;
nodes = (
(321,-17,o),
(410,-3,o),
(487,42,c),
(513,190,l),
(446,138,o),
(344,121,o),
(289,121,cs),
(253,121,o),
(225,128,o),
(204,148,c),
(575,240,l),
(604,401,o),
(538,548,o),
(362,548,cs),
(198,548,o),
(59,429,o),
(30,269,cs),
(1,104,o),
(95,-17,o),
(262,-17,cs)
);
},
{
closed = 1;
nodes = (
(211,275,ls),
(211,335,o),
(257,407,o),
(326,407,cs),
(373,407,o),
(401,375,o),
(403,319,c),
(211,272,l)
);
}
);
width = 609;
},
{
anchors = (
{
name = bottom;
pos = (226,0);
},
{
name = ogonek;
pos = (428,44);
},
{
name = top;
pos = (320,536);
}
);
layerId = "179DD43A-A894-42A9-B4B6-A7F9368B08A7";
shapes = (
{
closed = 1;
nodes = (
(310,-12,o),
(378,10,o),
(428,44,c),
(445,142,l),
(383,89,o),
(313,69,o),
(259,69,cs),
(179,69,o),
(137,111,o),
(124,171,c),
(512,262,l),
(522,393,o),
(459,504,o),
(316,504,cs),
(173,504,o),
(56,391,o),
(30,244,cs),
(4,95,o),
(94,-12,o),
(241,-12,cs)
);
},
{
closed = 1;
nodes = (
(128,252,l),
(143,337,o),
(207,422,o),
(301,422,cs),
(373,422,o),
(415,377,o),
(421,317,c),
(130,245,l)
);
}
);
width = 546;
},
{
anchors = (
{
name = bottom;
pos = (220,0);
},
{
name = ogonek;
pos = (416,44);
},
{
name = top;
pos = (314,536);
}
);
layerId = "7F84CDEE-FC45-41A5-88A7-11DFAD5E6C3A";
shapes = (
{
closed = 1;
nodes = (
(307,-11,o),
(370,12,o),
(416,44,c),
(431,132,l),
(369,79,o),
(308,59,o),
(253,59,cs),
(165,59,o),
(119,107,o),
(108,175,c),
(499,266,l),
(505,390,o),
(444,495,o),
(306,495,cs),
(166,495,o),
(55,382,o),
(30,239,cs),
(4,92,o),
(93,-11,o),
(236,-11,cs)
);
},
{
closed = 1;
nodes = (
(112,249,l),
(127,336,o),
(197,425,o),
(297,425,cs),
(373,425,o),
(418,377,o),
(425,316,c),
(114,240,l)
);
}
);
width = 533;
}
);
unicode = 101;
},
{
color = 1;
glyphname = f;
lastChange = "2025-10-31 11:39:54 +0000";
layers = (
{
anchors = (
{
name = bottom;
pos = (153,0);
},
{
name = top;
pos = (284,747);
}
);
layerId = "EE0A04B7-467B-4BD9-A2DD-E8921F00673F";
shapes = (
{
closed = 1;
nodes = (
(231,0,l),
(300,389,l),
(421,389,l),
(446,535,l),
(292,535,l),
(295,548,ls),
(301,583,o),
(347,599,o),
(382,599,cs),
(405,599,o),
(435,595,o),
(457,588,c),
(480,722,l),
(451,731,o),
(416,737,o),
(367,737,cs),
(246,737,o),
(162,681,o),
(139,550,cs),
(136,535,l),
(28,389,l),
(111,389,l),
(42,0,l)
);
}
);
width = 399;
},
{
anchors = (
{
name = bottom;
pos = (121,0);
},
{
name = top;
pos = (252,747);
}
);
layerId = "179DD43A-A894-42A9-B4B6-A7F9368B08A7";
shapes = (
{
closed = 1;
nodes = (
(157,0,l),
(229,409,l),
(350,409,l),
(365,491,l),
(239,491,l),
(249,552,ls),
(261,621,o),
(294,657,o),
(352,657,cs),
(371,657,o),
(388,653,o),
(406,646,c),
(420,725,l),
(402,732,o),
(380,736,o),
(351,736,cs),
(252,736,o),
(181,684,o),
(158,556,cs),
(147,493,l),
(36,409,l),
(132,409,l),
(60,0,l)
);
}
);
width = 335;
},
{
anchors = (
{
name = bottom;
pos = (114,0);
},
{
name = top;
pos = (245,747);
}
);
layerId = "7F84CDEE-FC45-41A5-88A7-11DFAD5E6C3A";
shapes = (
{
closed = 1;
nodes = (
(142,0,l),
(215,413,l),
(336,413,l),
(348,482,l),
(227,482,l),
(239,553,ls),
(253,628,o),
(283,668,o),
(346,668,cs),
(363,668,o),
(379,665,o),
(395,658,c),
(407,726,l),
(392,731,o),
(372,736,o),
(348,736,cs),
(253,736,o),
(184,685,o),
(161,557,cs),
(148,484,l),
(38,413,l),
(136,413,l),
(63,0,l)
);
}
);
width = 322;
}
);
unicode = 102;
},
{
color = 1;
glyphname = g;
lastChange = "2025-10-31 11:39:54 +0000";
layers = (
{
anchors = (
{
name = bottom;
pos = (251,-235);
},
{
name = top;
pos = (387,536);
}
);
layerId = "EE0A04B7-467B-4BD9-A2DD-E8921F00673F";
shapes = (
{
closed = 1;
nodes = (
(409,-162,o),
(570,-66,o),
(605,131,cs),
(677,541,l),
(476,477,l),
(443,520,o),
(401,553,o),
(325,553,cs),
(194,553,o),
(69,457,o),
(41,301,cs),
(14,145,o),
(104,48,o),
(235,48,cs),
(316,48,o),
(371,85,o),
(418,130,c),
(414,109,ls),
(406,65,o),
(379,-25,o),
(235,-25,cs),
(148,-25,o),
(61,16,o),
(12,50,c),
(-15,-100,l),
(57,-140,o),
(116,-162,o),
(212,-162,cs)
);
},
{
closed = 1;
nodes = (
(247,196,o),
(218,245,o),
(228,299,cs),
(237,360,o),
(291,405,o),
(356,405,cs),
(420,405,o),
(459,361,o),
(448,302,cs),
(437,241,o),
(384,196,o),
(320,196,cs)
);
}
);
width = 680;
},
{
anchors = (
{
name = bottom;
pos = (223,-235);
},
{
name = top;
pos = (359,536);
}
);
layerId = "179DD43A-A894-42A9-B4B6-A7F9368B08A7";
shapes = (
{
closed = 1;
nodes = (
(361,-189,o),
(492,-101,o),
(522,69,cs),
(597,492,l),
(476,423,l),
(443,471,o),
(396,504,o),
(316,504,cs),
(188,504,o),
(63,407,o),
(37,261,cs),
(13,122,o),
(98,24,o),
(231,24,cs),
(312,24,o),
(375,61,o),
(432,118,c),
(422,64,ls),
(412,3,o),
(380,-108,o),
(210,-108,cs),
(132,-108,o),
(70,-82,o),
(21,-39,c),
(3,-139,l),
(51,-168,o),
(115,-189,o),
(196,-189,cs)
);
},
{
closed = 1;
nodes = (
(161,107,o),
(123,177,o),
(140,265,cs),
(157,357,o),
(232,421,o),
(323,421,cs),
(414,421,o),
(474,356,o),
(457,263,cs),
(441,172,o),
(358,107,o),
(269,107,cs)
);
}
);
width = 623;
},
{
anchors = (
{
name = bottom;
pos = (217,-235);
},
{
name = top;
pos = (353,536);
}
);
layerId = "7F84CDEE-FC45-41A5-88A7-11DFAD5E6C3A";
shapes = (
{
closed = 1;
nodes = (
(350,-194,o),
(475,-108,o),
(504,56,cs),
(579,482,l),
(475,412,l),
(442,461,o),
(393,494,o),
(313,494,cs),
(185,494,o),
(61,397,o),
(36,253,cs),
(12,117,o),
(96,19,o),
(229,19,cs),
(310,19,o),
(376,55,o),
(433,115,c),
(423,55,ls),
(412,-10,o),
(367,-124,o),
(204,-124,cs),
(129,-124,o),
(70,-102,o),
(22,-57,c),
(6,-147,l),
(49,-174,o),
(114,-194,o),
(192,-194,cs)
);
},
{
closed = 1;
nodes = (
(144,89,o),
(102,160,o),
(120,258,cs),
(140,357,o),
(220,424,o),
(316,424,cs),
(412,424,o),
(475,354,o),
(458,255,cs),
(441,159,o),
(352,89,o),
(258,89,cs)
);
}
);
width = 611;
}
);
unicode = 103;
},
{
color = 1;
glyphname = h;
lastChange = "2025-10-31 11:39:54 +0000";
layers = (
{
anchors = (
{
name = bottom;
pos = (271,0);
},
{
name = center;
pos = (337,374);
},
{
name = top;
pos = (402,747);
}
);
layerId = "EE0A04B7-467B-4BD9-A2DD-E8921F00673F";
shapes = (
{
closed = 1;
nodes = (
(194,0,l),
(246,293,ls),
(256,352,o),
(299,384,o),
(342,384,cs),
(385,384,o),
(412,353,o),
(402,293,cs),
(350,0,l),
(540,0,l),
(602,354,ls),
(626,488,o),
(562,553,o),
(453,553,cs),
(376,553,o),
(319,512,o),
(276,467,c),
(323,730,l),
(133,730,l),
(4,0,l)
);
}
);
width = 635;
},
{
anchors = (
{
name = bottom;
pos = (232,0);
},
{
name = center;
pos = (298,374);
},
{
name = top;
pos = (363,747);
}
);
layerId = "179DD43A-A894-42A9-B4B6-A7F9368B08A7";
shapes = (
{
closed = 1;
nodes = (
(117,0,l),
(167,282,ls),
(182,366,o),
(252,407,o),
(319,407,cs),
(388,407,o),
(417,366,o),
(402,282,cs),
(352,0,l),
(452,0,l),
(507,312,ls),
(531,446,o),
(465,503,o),
(367,503,cs),
(292,503,o),
(229,468,o),
(186,425,c),
(240,732,l),
(146,732,l),
(17,0,l)
);
}
);
width = 558;
},
{
anchors = (
{
name = bottom;
pos = (224,0);
},
{
name = center;
pos = (290,374);
},
{
name = top;
pos = (355,747);
}
);
layerId = "7F84CDEE-FC45-41A5-88A7-11DFAD5E6C3A";
shapes = (
{
closed = 1;
nodes = (
(102,0,l),
(151,280,ls),
(167,369,o),
(242,412,o),
(314,412,cs),
(390,412,o),
(417,368,o),
(401,280,cs),
(352,0,l),
(434,0,l),
(487,303,ls),
(511,439,o),
(448,493,o),
(349,493,cs),
(276,493,o),
(210,459,o),
(167,416,c),
(223,732,l),
(149,732,l),
(20,0,l)
);
}
);
width = 542;
}
);
unicode = 104;
},
{
color = 1;
glyphname = i;
lastChange = "2025-10-31 11:39:54 +0000";
layers = (
{
anchors = (
{
name = bottom;
pos = (99,0);
}
);
layerId = "EE0A04B7-467B-4BD9-A2DD-E8921F00673F";
shapes = (
{
closed = 1;
nodes = (
(193,0,l),
(288,541,l),
(98,541,l),
(3,0,l)
);
},
{
closed = 1;
nodes = (
(260,587,o),
(314,620,o),
(326,684,cs),
(337,748,o),
(295,780,o),
(235,780,cs),
(205,780,o),
(126,767,o),
(111,684,cs),
(98,620,o),
(140,587,o),
(200,587,cs)
);
}
);
width = 291;
},
{
anchors = (
{
name = bottom;
pos = (73,0);
}
);
layerId = "179DD43A-A894-42A9-B4B6-A7F9368B08A7";
shapes = (
{
closed = 1;
nodes = (
(121,0,l),
(208,492,l),
(109,492,l),
(22,0,l)
);
},
{
closed = 1;
nodes = (
(212,580,o),
(246,608,o),
(253,645,cs),
(260,686,o),
(236,712,o),
(196,712,cs),
(172,712,o),
(126,698,o),
(117,645,cs),
(110,608,o),
(136,580,o),
(172,580,cs)
);
}
);
width = 239;
},
{
anchors = (
{
name = bottom;
pos = (68,0);
}
);
layerId = "7F84CDEE-FC45-41A5-88A7-11DFAD5E6C3A";
shapes = (
{
closed = 1;
nodes = (
(108,0,l),
(193,482,l),
(112,482,l),
(27,0,l)
);
},
{
closed = 1;
nodes = (
(203,578,o),
(234,606,o),
(239,637,cs),
(246,673,o),
(224,698,o),
(189,698,cs),
(148,698,o),
(123,667,o),
(118,637,cs),
(114,606,o),
(136,578,o),
(168,578,cs)
);
}
);
width = 229;
}
);
unicode = 105;
},
{
glyphname = idotless;
lastChange = "2025-10-31 11:39:54 +0000";
layers = (
{
anchors = (
{
name = top;
pos = (194,536);
}
);
layerId = "EE0A04B7-467B-4BD9-A2DD-E8921F00673F";
shapes = (
{
closed = 1;
nodes = (
(194,0,l),
(289,541,l),
(99,541,l),
(4,0,l)
);
}
);
width = 293;
},
{
anchors = (
{
name = top;
pos = (156,536);
}
);
layerId = "179DD43A-A894-42A9-B4B6-A7F9368B08A7";
shapes = (
{
closed = 1;
nodes = (
(117,0,l),
(204,492,l),
(104,492,l),
(17,0,l)
);
}
);
width = 230;
},
{
anchors = (
{
name = top;
pos = (154,536);
}
);
layerId = "7F84CDEE-FC45-41A5-88A7-11DFAD5E6C3A";
shapes = (
{
closed = 1;
nodes = (
(101,0,l),
(186,482,l),
(105,482,l),
(20,0,l)
);
}
);
width = 217;
}
);
unicode = 305;
},
{
color = 1;
glyphname = j;
lastChange = "2025-10-31 11:39:54 +0000";
layers = (
{
layerId = "EE0A04B7-467B-4BD9-A2DD-E8921F00673F";
shapes = (
{
closed = 1;
nodes = (
(163,-163,o),
(242,-113,o),
(266,24,cs),
(357,541,l),
(167,541,l),
(78,32,ls),
(69,-15,o),
(48,-31,o),
(24,-31,cs),
(12,-31,o),
(1,-28,o),
(-13,-23,c),
(-37,-156,l),
(-14,-160,o),
(9,-163,o),
(40,-163,cs)
);
},
{
closed = 1;
nodes = (
(329,587,o),
(383,620,o),
(395,684,cs),
(406,748,o),
(364,780,o),
(304,780,cs),
(274,780,o),
(195,767,o),
(180,684,cs),
(167,620,o),
(209,587,o),
(269,587,cs)
);
}
);
width = 359;
},
{
layerId = "179DD43A-A894-42A9-B4B6-A7F9368B08A7";
shapes = (
{
closed = 1;
nodes = (
(130,-189,o),
(164,-121,o),
(180,-27,cs),
(272,492,l),
(173,492,l),
(78,-46,ls),
(72,-81,o),
(58,-109,o),
(18,-109,cs),
(7,-109,o),
(-4,-107,o),
(-14,-103,c),
(-28,-182,l),
(-13,-186,o),
(2,-189,o),
(25,-189,cs)
);
},
{
closed = 1;
nodes = (
(273,580,o),
(307,608,o),
(314,645,cs),
(321,686,o),
(297,712,o),
(257,712,cs),
(233,712,o),
(187,698,o),
(178,645,cs),
(171,608,o),
(197,580,o),
(233,580,cs)
);
}
);
width = 299;
},
{
layerId = "7F84CDEE-FC45-41A5-88A7-11DFAD5E6C3A";
shapes = (
{
closed = 1;
nodes = (
(123,-194,o),
(148,-122,o),
(163,-37,cs),
(255,482,l),
(174,482,l),
(78,-62,ls),
(72,-94,o),
(60,-125,o),
(17,-125,cs),
(6,-125,o),
(-5,-123,o),
(-15,-119,c),
(-27,-187,l),
(-13,-191,o),
(2,-194,o),
(22,-194,cs)
);
},
{
closed = 1;
nodes = (
(261,578,o),
(292,606,o),
(297,637,cs),
(304,673,o),
(282,698,o),
(247,698,cs),
(206,698,o),
(181,667,o),
(176,637,cs),
(172,606,o),
(194,578,o),
(226,578,cs)
);
}
);
width = 287;
}
);
unicode = 106;
},
{
glyphname = jdotless;
lastChange = "2025-10-31 11:39:54 +0000";
layers = (
{
anchors = (
{
name = top;
pos = (193,536);
}
);
layerId = "EE0A04B7-467B-4BD9-A2DD-E8921F00673F";
shapes = (
{
closed = 1;
nodes = (
(96,-163,o),
(175,-113,o),
(199,24,cs),
(290,541,l),
(100,541,l),
(11,32,ls),
(3,-15,o),
(-19,-31,o),
(-43,-31,cs),
(-55,-31,o),
(-66,-28,o),
(-80,-23,c),
(-104,-156,l),
(-81,-160,o),
(-58,-163,o),
(-27,-163,cs)
);
}
);
width = 286;
},
{
anchors = (
{
name = top;
pos = (154,536);
}
);
layerId = "179DD43A-A894-42A9-B4B6-A7F9368B08A7";
shapes = (
{
closed = 1;
nodes = (
(54,-189,o),
(88,-121,o),
(104,-27,cs),
(196,492,l),
(97,492,l),
(2,-46,ls),
(-4,-81,o),
(-18,-109,o),
(-58,-109,cs),
(-69,-109,o),
(-80,-107,o),
(-91,-103,c),
(-105,-182,l),
(-89,-186,o),
(-74,-189,o),
(-51,-189,cs)
);
}
);
width = 198;
},
{
anchors = (
{
name = top;
pos = (140,536);
}
);
layerId = "7F84CDEE-FC45-41A5-88A7-11DFAD5E6C3A";
shapes = (
{
closed = 1;
nodes = (
(43,-194,o),
(68,-122,o),
(83,-37,cs),
(175,482,l),
(94,482,l),
(-2,-62,ls),
(-8,-94,o),
(-20,-125,o),
(-63,-125,cs),
(-74,-125,o),
(-85,-123,o),
(-95,-119,c),
(-107,-187,l),
(-93,-191,o),
(-78,-194,o),
(-58,-194,cs)
);
}
);
width = 180;
}
);
unicode = 567;
},
{
color = 1;
glyphname = k;
lastChange = "2025-10-31 11:39:54 +0000";
layers = (
{
anchors = (
{
name = bottom;
pos = (257,0);
},
{
name = top;
pos = (388,747);
}
);
layerId = "EE0A04B7-467B-4BD9-A2DD-E8921F00673F";
shapes = (
{
closed = 1;
nodes = (
(194,0,l),
(244,283,l),
(352,0,l),
(561,0,l),
(425,324,l),
(651,541,l),
(436,541,l),
(257,360,l),
(323,730,l),
(133,730,l),
(4,0,l)
);
}
);
width = 608;
},
{
anchors = (
{
name = bottom;
pos = (190,0);
},
{
name = top;
pos = (321,747);
}
);
layerId = "179DD43A-A894-42A9-B4B6-A7F9368B08A7";
shapes = (
{
closed = 1;
nodes = (
(117,0,l),
(157,227,l),
(308,0,l),
(427,0,l),
(252,266,l),
(506,492,l),
(382,492,l),
(169,294,l),
(246,732,l),
(146,732,l),
(17,0,l)
);
}
);
width = 474;
},
{
anchors = (
{
name = bottom;
pos = (177,0);
},
{
name = top;
pos = (308,747);
}
);
layerId = "7F84CDEE-FC45-41A5-88A7-11DFAD5E6C3A";
shapes = (
{
closed = 1;
nodes = (
(102,0,l),
(140,216,l),
(299,0,l),
(400,0,l),
(217,254,l),
(476,482,l),
(371,482,l),
(152,281,l),
(231,732,l),
(149,732,l),
(20,0,l)
);
}
);
width = 447;
}
);
unicode = 107;
},
{
glyphname = kgreenlandic;
lastChange = "2025-10-31 11:39:54 +0000";
layers = (
{
layerId = "EE0A04B7-467B-4BD9-A2DD-E8921F00673F";
shapes = (
{
closed = 1;
nodes = (
(194,0,l),
(244,283,l),
(352,0,l),
(561,0,l),
(425,324,l),
(651,541,l),
(436,541,l),
(257,360,l),
(289,541,l),
(99,541,l),
(4,0,l)
);
}
);
width = 609;
},
{
layerId = "179DD43A-A894-42A9-B4B6-A7F9368B08A7";
shapes = (
{
closed = 1;
nodes = (
(117,0,l),
(157,227,l),
(308,0,l),
(427,0,l),
(252,266,l),
(506,492,l),
(382,492,l),
(169,294,l),
(204,492,l),
(104,492,l),
(17,0,l)
);
}
);
width = 480;
},
{
layerId = "7F84CDEE-FC45-41A5-88A7-11DFAD5E6C3A";
shapes = (
{
closed = 1;
nodes = (
(102,0,l),
(140,216,l),
(299,0,l),
(400,0,l),
(217,254,l),
(476,482,l),
(371,482,l),
(152,281,l),
(187,482,l),
(105,482,l),
(20,0,l)
);
}
);
width = 454;
}
);
unicode = 312;
},
{
color = 1;
glyphname = l;
lastChange = "2025-10-31 11:39:54 +0000";
layers = (
{
anchors = (
{
name = bottom;
pos = (100,0);
},
{
name = center;
pos = (166,374);
},
{
name = top;
pos = (231,747);
},
{
name = topright;
pos = (417,747);
}
);
layerId = "EE0A04B7-467B-4BD9-A2DD-E8921F00673F";
shapes = (
{
closed = 1;
nodes = (
(194,0,l),
(323,730,l),
(133,730,l),
(4,0,l)
);
}
);
width = 293;
},
{
anchors = (
{
name = bottom;
pos = (68,0);
},
{
name = center;
pos = (134,374);
},
{
name = top;
pos = (199,747);
},
{
name = topright;
pos = (374,747);
}
);
layerId = "179DD43A-A894-42A9-B4B6-A7F9368B08A7";
shapes = (
{
closed = 1;
nodes = (
(117,0,l),
(246,732,l),
(146,732,l),
(17,0,l)
);
}
);
width = 230;
},
{
anchors = (
{
name = bottom;
pos = (62,0);
},
{
name = center;
pos = (128,374);
},
{
name = top;
pos = (193,747);
},
{
name = topright;
pos = (361,747);
}
);
layerId = "7F84CDEE-FC45-41A5-88A7-11DFAD5E6C3A";
shapes = (
{
closed = 1;
nodes = (
(101,0,l),
(230,732,l),
(149,732,l),
(20,0,l)
);
}
);
width = 217;
}
);
unicode = 108;
},
{
glyphname = lslash;
lastChange = "2025-10-31 11:39:54 +0000";
layers = (
{
layerId = "EE0A04B7-467B-4BD9-A2DD-E8921F00673F";
shapes = (
{
closed = 1;
nodes = (
(331,371,l),
(360,534,l),
(25,334,l),
(-4,171,l)
);
},
{
alignment = -1;
pos = (14,0);
ref = l;
}
);
width = 370;
},
{
layerId = "179DD43A-A894-42A9-B4B6-A7F9368B08A7";
shapes = (
{
closed = 1;
nodes = (
(304,400,l),
(320,490,l),
(10,290,l),
(-6,200,l)
);
},
{
alignment = -1;
pos = (26,0);
ref = l;
}
);
width = 329;
},
{
layerId = "7F84CDEE-FC45-41A5-88A7-11DFAD5E6C3A";
shapes = (
{
closed = 1;
nodes = (
(287,398,l),
(300,474,l),
(12,274,l),
(-1,198,l)
);
},
{
alignment = -1;
pos = (32,0);
ref = l;
}
);
width = 319;
}
);
unicode = 322;
},
{
color = 1;
glyphname = m;
lastChange = "2025-10-31 11:39:54 +0000";
layers = (
{
anchors = (
{
name = bottom;
pos = (439,0);
},
{
name = top;
pos = (533,536);
}
);
layerId = "EE0A04B7-467B-4BD9-A2DD-E8921F00673F";
shapes = (
{
closed = 1;
nodes = (
(194,0,l),
(246,294,ls),
(256,353,o),
(296,384,o),
(339,384,cs),
(382,384,o),
(407,353,o),
(397,294,cs),
(345,0,l),
(535,0,l),
(587,294,ls),
(595,341,o),
(630,384,o),
(681,384,cs),
(724,384,o),
(749,354,o),
(739,294,cs),
(687,0,l),
(877,0,l),
(940,355,ls),
(958,462,o),
(906,553,o),
(791,553,cs),
(711,553,o),
(650,521,o),
(593,465,c),
(575,525,o),
(519,553,o),
(455,553,cs),
(387,553,o),
(329,520,o),
(276,467,c),
(99,541,l),
(4,0,l)
);
}
);
width = 971;
},
{
anchors = (
{
name = bottom;
pos = (383,0);
},
{
name = top;
pos = (477,536);
}
);
layerId = "179DD43A-A894-42A9-B4B6-A7F9368B08A7";
shapes = (
{
closed = 1;
nodes = (
(117,0,l),
(167,282,ls),
(180,355,o),
(231,415,o),
(306,415,cs),
(381,415,o),
(398,358,o),
(385,282,cs),
(335,0,l),
(435,0,l),
(485,282,ls),
(497,353,o),
(548,415,o),
(624,415,cs),
(688,415,o),
(720,375,o),
(704,282,cs),
(654,0,l),
(754,0,l),
(809,313,ls),
(828,421,o),
(788,503,o),
(673,503,cs),
(600,503,o),
(534,471,o),
(489,414,c),
(473,478,o),
(422,503,o),
(357,503,cs),
(297,503,o),
(236,480,o),
(191,431,c),
(104,491,l),
(17,0,l)
);
}
);
width = 859;
},
{
anchors = (
{
name = bottom;
pos = (371,0);
},
{
name = top;
pos = (465,536);
}
);
layerId = "7F84CDEE-FC45-41A5-88A7-11DFAD5E6C3A";
shapes = (
{
closed = 1;
nodes = (
(102,0,l),
(151,279,ls),
(165,355,o),
(219,421,o),
(299,421,cs),
(380,421,o),
(396,359,o),
(382,279,cs),
(333,0,l),
(415,0,l),
(464,279,ls),
(478,355,o),
(532,421,o),
(613,421,cs),
(681,421,o),
(714,379,o),
(696,279,cs),
(647,0,l),
(729,0,l),
(783,304,ls),
(801,411,o),
(764,493,o),
(649,493,cs),
(577,493,o),
(509,461,o),
(468,404,c),
(453,468,o),
(402,493,o),
(337,493,cs),
(280,493,o),
(217,472,o),
(174,424,c),
(105,481,l),
(20,0,l)
);
}
);
width = 836;
}
);
unicode = 109;
},
{
color = 1;
glyphname = n;
lastChange = "2025-10-31 11:39:54 +0000";
layers = (
{
anchors = (
{
name = bottom;
pos = (271,0);
},
{
name = top;
pos = (365,536);
}
);
layerId = "EE0A04B7-467B-4BD9-A2DD-E8921F00673F";
shapes = (
{
closed = 1;
nodes = (
(194,0,l),
(246,293,ls),
(256,352,o),
(299,384,o),
(342,384,cs),
(385,384,o),
(412,352,o),
(402,293,cs),
(350,0,l),
(540,0,l),
(602,354,ls),
(625,483,o),
(567,553,o),
(453,553,cs),
(376,553,o),
(319,510,o),
(276,465,c),
(99,541,l),
(4,0,l)
);
}
);
width = 635;
},
{
anchors = (
{
name = bottom;
pos = (232,0);
},
{
name = top;
pos = (326,536);
}
);
layerId = "179DD43A-A894-42A9-B4B6-A7F9368B08A7";
shapes = (
{
closed = 1;
nodes = (
(117,0,l),
(167,282,ls),
(185,383,o),
(261,415,o),
(314,415,cs),
(368,415,o),
(419,382,o),
(402,282,cs),
(352,0,l),
(452,0,l),
(507,312,ls),
(525,415,o),
(481,503,o),
(365,503,cs),
(296,503,o),
(238,472,o),
(194,428,c),
(104,492,l),
(17,0,l)
);
}
);
width = 558;
},
{
anchors = (
{
name = bottom;
pos = (224,0);
},
{
name = top;
pos = (318,536);
}
);
layerId = "7F84CDEE-FC45-41A5-88A7-11DFAD5E6C3A";
shapes = (
{
closed = 1;
nodes = (
(102,0,l),
(151,280,ls),
(171,390,o),
(253,421,o),
(308,421,cs),
(365,421,o),
(420,388,o),
(401,280,cs),
(352,0,l),
(434,0,l),
(487,303,ls),
(507,413,o),
(462,493,o),
(347,493,cs),
(278,493,o),
(222,464,o),
(178,421,c),
(105,482,l),
(20,0,l)
);
}
);
width = 542;
}
);
unicode = 110;
},
{
glyphname = eng;
lastChange = "2025-10-31 11:39:54 +0000";
layers = (
{
layerId = "EE0A04B7-467B-4BD9-A2DD-E8921F00673F";
shapes = (
{
closed = 1;
nodes = (
(441,-163,o),
(520,-113,o),
(544,24,cs),
(602,354,ls),
(624,477,o),
(559,553,o),
(454,553,cs),
(377,553,o),
(319,510,o),
(276,465,c),
(99,541,l),
(4,0,l),
(194,0,l),
(246,293,ls),
(256,352,o),
(299,384,o),
(342,384,cs),
(385,384,o),
(412,352,o),
(402,293,cs),
(356,32,ls),
(347,-15,o),
(326,-31,o),
(302,-31,cs),
(290,-31,o),
(279,-28,o),
(265,-23,c),
(241,-156,l),
(264,-160,o),
(287,-163,o),
(318,-163,cs)
);
}
);
width = 635;
},
{
layerId = "179DD43A-A894-42A9-B4B6-A7F9368B08A7";
shapes = (
{
closed = 1;
nodes = (
(395,-189,o),
(431,-121,o),
(447,-27,cs),
(507,312,ls),
(529,436,o),
(472,503,o),
(365,503,cs),
(296,503,o),
(238,472,o),
(194,428,c),
(104,492,l),
(17,0,l),
(117,0,l),
(167,282,ls),
(185,383,o),
(261,415,o),
(314,415,cs),
(368,415,o),
(419,382,o),
(402,282,cs),
(344,-46,ls),
(338,-81,o),
(324,-109,o),
(284,-109,cs),
(273,-109,o),
(262,-107,o),
(251,-103,c),
(237,-182,l),
(252,-186,o),
(268,-189,o),
(291,-189,cs)
);
}
);
width = 558;
},
{
layerId = "7F84CDEE-FC45-41A5-88A7-11DFAD5E6C3A";
shapes = (
{
closed = 1;
nodes = (
(385,-194,o),
(412,-122,o),
(427,-37,cs),
(487,303,ls),
(509,428,o),
(453,493,o),
(347,493,cs),
(278,493,o),
(222,464,o),
(178,421,c),
(105,482,l),
(20,0,l),
(102,0,l),
(151,280,ls),
(170,390,o),
(253,421,o),
(308,421,cs),
(365,421,o),
(420,388,o),
(401,280,cs),
(341,-62,ls),
(335,-94,o),
(323,-125,o),
(280,-125,cs),
(269,-125,o),
(258,-123,o),
(248,-119,c),
(236,-187,l),
(250,-191,o),
(265,-194,o),
(285,-194,cs)
);
}
);
width = 542;
}
);
unicode = 331;
},
{
color = 1;
glyphname = o;
lastChange = "2025-10-31 11:39:54 +0000";
layers = (
{
anchors = (
{
name = bottom;
pos = (282,0);
},
{
name = center;
pos = (329,268);
},
{
name = ogonek;
pos = (356,0);
},
{
name = top;
pos = (376,536);
},
{
name = topright;
pos = (684,536);
}
);
layerId = "EE0A04B7-467B-4BD9-A2DD-E8921F00673F";
shapes = (
{
closed = 1;
nodes = (
(471,-13,o),
(600,103,o),
(628,272,cs),
(653,427,o),
(552,553,o),
(379,553,cs),
(206,553,o),
(57,425,o),
(30,270,cs),
(2,115,o),
(105,-13,o),
(278,-13,cs)
);
},
{
closed = 1;
nodes = (
(241,148,o),
(203,205,o),
(215,272,cs),
(226,337,o),
(280,392,o),
(349,392,cs),
(428,392,o),
(455,335,o),
(443,270,cs),
(430,205,o),
(377,148,o),
(308,148,cs)
);
}
);
width = 657;
},
{
anchors = (
{
name = bottom;
pos = (252,0);
},
{
name = center;
pos = (299,268);
},
{
name = ogonek;
pos = (293,0);
},
{
name = top;
pos = (346,536);
},
{
name = topright;
pos = (625,536);
}
);
layerId = "179DD43A-A894-42A9-B4B6-A7F9368B08A7";
shapes = (
{
closed = 1;
nodes = (
(423,-11,o),
(536,105,o),
(561,247,cs),
(586,390,o),
(493,504,o),
(340,504,cs),
(187,504,o),
(56,389,o),
(30,245,cs),
(5,102,o),
(96,-11,o),
(248,-11,cs)
);
},
{
closed = 1;
nodes = (
(171,74,o),
(113,149,o),
(131,247,cs),
(147,343,o),
(225,420,o),
(324,420,cs),
(438,420,o),
(479,343,o),
(460,246,cs),
(442,154,o),
(360,74,o),
(264,74,cs)
);
}
);
width = 598;
},
{
anchors = (
{
name = bottom;
pos = (246,0);
},
{
name = center;
pos = (293,268);
},
{
name = ogonek;
pos = (272,0);
},
{
name = top;
pos = (340,536);
},
{
name = topright;
pos = (613,536);
}
);
layerId = "7F84CDEE-FC45-41A5-88A7-11DFAD5E6C3A";
shapes = (
{
closed = 1;
nodes = (
(415,-10,o),
(523,106,o),
(547,242,cs),
(572,383,o),
(481,494,o),
(332,494,cs),
(183,494,o),
(55,382,o),
(30,240,cs),
(5,99,o),
(94,-10,o),
(242,-10,cs)
);
},
{
closed = 1;
nodes = (
(156,59,o),
(95,138,o),
(114,242,cs),
(131,343,o),
(215,425,o),
(319,425,cs),
(442,425,o),
(483,342,o),
(463,241,cs),
(443,142,o),
(357,59,o),
(255,59,cs)
);
}
);
width = 586;
}
);
unicode = 111;
},
{
glyphname = oslash;
lastChange = "2025-10-31 11:40:42 +0000";
layers = (
{
layerId = "EE0A04B7-467B-4BD9-A2DD-E8921F00673F";
shapes = (
{
closed = 1;
nodes = (
(156,25,l),
(196,1,o),
(245,-13,o),
(302,-13,cs),
(475,-13,o),
(624,115,o),
(652,270,cs),
(664,342,o),
(650,405,o),
(616,454,c),
(708,540,l),
(642,608,l),
(548,515,l),
(509,539,o),
(459,553,o),
(403,553,cs),
(230,553,o),
(81,425,o),
(54,270,cs),
(41,198,o),
(55,136,o),
(89,87,c),
(-18,-3,l),
(47,-70,l)
);
},
{
closed = 1;
nodes = (
(315,140,o),
(300,143,o),
(288,148,c),
(474,322,l),
(478,306,o),
(478,289,o),
(475,270,cs),
(462,199,o),
(404,140,o),
(331,140,cs)
);
},
{
closed = 1;
nodes = (
(227,234,o),
(227,251,o),
(231,270,cs),
(243,341,o),
(302,400,o),
(375,400,cs),
(391,400,o),
(406,398,o),
(418,391,c),
(231,218,l)
);
}
);
width = 687;
},
{
layerId = "179DD43A-A894-42A9-B4B6-A7F9368B08A7";
shapes = (
{
closed = 1;
nodes = (
(95,37,l),
(132,4,o),
(176,-12,o),
(240,-12,cs),
(391,-12,o),
(520,98,o),
(546,242,cs),
(558,310,o),
(544,363,o),
(516,407,c),
(580,467,l),
(546,509,l),
(476,448,l),
(439,483,o),
(389,495,o),
(329,495,cs),
(178,495,o),
(52,384,o),
(27,242,cs),
(15,177,o),
(26,124,o),
(56,76,c),
(-27,3,l),
(9,-41,l)
);
},
{
closed = 1;
nodes = (
(213,68,o),
(187,78,o),
(163,98,c),
(439,340,l),
(451,312,o),
(456,281,o),
(449,242,cs),
(431,144,o),
(353,68,o),
(252,68,cs)
);
},
{
closed = 1;
nodes = (
(116,171,o),
(115,201,o),
(123,242,cs),
(140,338,o),
(216,415,o),
(316,415,cs),
(356,415,o),
(385,404,o),
(406,384,c),
(132,142,l)
);
}
);
width = 573;
},
{
layerId = "7F84CDEE-FC45-41A5-88A7-11DFAD5E6C3A";
shapes = (
{
closed = 1;
nodes = (
(84,39,l),
(121,4,o),
(165,-12,o),
(229,-12,cs),
(376,-12,o),
(501,95,o),
(526,236,cs),
(538,304,o),
(524,354,o),
(497,398,c),
(556,451,l),
(528,489,l),
(464,435,l),
(427,470,o),
(376,483,o),
(316,483,cs),
(169,483,o),
(47,376,o),
(23,236,cs),
(11,172,o),
(22,122,o),
(52,74,c),
(-29,4,l),
(3,-35,l)
);
},
{
closed = 1;
nodes = (
(195,53,o),
(164,65,o),
(140,88,c),
(434,344,l),
(447,313,o),
(453,279,o),
(446,236,cs),
(427,133,o),
(344,53,o),
(238,53,cs)
);
},
{
closed = 1;
nodes = (
(96,158,o),
(95,191,o),
(103,236,cs),
(120,337,o),
(200,418,o),
(306,418,cs),
(351,418,o),
(382,405,o),
(405,382,c),
(113,127,l)
);
}
);
width = 550;
}
);
unicode = 248;
},
{
glyphname = oe;
lastChange = "2025-10-31 11:39:54 +0000";
layers = (
{
layerId = "EE0A04B7-467B-4BD9-A2DD-E8921F00673F";
shapes = (
{
closed = 1;
nodes = (
(740,-17,o),
(829,-3,o),
(906,42,c),
(933,190,l),
(868,140,o),
(787,121,o),
(708,121,cs),
(672,121,o),
(644,128,o),
(623,148,c),
(994,240,l),
(1023,401,o),
(957,548,o),
(781,548,cs),
(701,548,o),
(631,522,o),
(575,475,c),
(531,523,o),
(464,553,o),
(380,553,cs),
(207,553,o),
(57,425,o),
(30,270,cs),
(2,115,o),
(105,-13,o),
(278,-13,cs),
(359,-13,o),
(435,15,o),
(496,62,c),
(535,11,o),
(597,-17,o),
(681,-17,cs)
);
},
{
closed = 1;
nodes = (
(241,148,o),
(203,205,o),
(215,272,cs),
(226,337,o),
(280,392,o),
(349,392,cs),
(427,392,o),
(454,334,o),
(443,270,cs),
(432,205,o),
(377,148,o),
(308,148,cs)
);
},
{
closed = 1;
nodes = (
(636,332,o),
(675,407,o),
(745,407,cs),
(792,407,o),
(820,375,o),
(822,319,c),
(630,272,l)
);
}
);
width = 1030;
},
{
layerId = "179DD43A-A894-42A9-B4B6-A7F9368B08A7";
shapes = (
{
closed = 1;
nodes = (
(760,-12,o),
(828,10,o),
(878,44,c),
(895,142,l),
(836,91,o),
(785,69,o),
(709,69,cs),
(630,69,o),
(597,111,o),
(584,171,c),
(962,262,l),
(972,393,o),
(909,504,o),
(766,504,cs),
(670,504,o),
(594,455,o),
(546,379,c),
(514,455,o),
(441,504,o),
(340,504,cs),
(187,504,o),
(56,389,o),
(30,245,cs),
(5,102,o),
(96,-11,o),
(248,-11,cs),
(349,-11,o),
(440,39,o),
(498,115,c),
(523,35,o),
(590,-12,o),
(691,-12,cs)
);
},
{
closed = 1;
nodes = (
(171,74,o),
(113,149,o),
(131,247,cs),
(147,343,o),
(225,420,o),
(324,420,cs),
(439,420,o),
(478,341,o),
(460,246,cs),
(442,154,o),
(360,74,o),
(264,74,cs)
);
},
{
closed = 1;
nodes = (
(600,342,o),
(644,422,o),
(737,422,cs),
(809,422,o),
(851,377,o),
(857,317,c),
(585,255,l)
);
}
);
width = 997;
},
{
layerId = "7F84CDEE-FC45-41A5-88A7-11DFAD5E6C3A";
shapes = (
{
closed = 1;
nodes = (
(763,-11,o),
(826,12,o),
(872,44,c),
(887,132,l),
(827,81,o),
(786,59,o),
(709,59,cs),
(621,59,o),
(587,108,o),
(576,176,c),
(955,266,l),
(961,390,o),
(900,495,o),
(762,495,cs),
(662,495,o),
(587,441,o),
(539,360,c),
(511,440,o),
(436,494,o),
(332,494,cs),
(183,494,o),
(55,382,o),
(30,240,cs),
(5,99,o),
(94,-10,o),
(242,-10,cs),
(347,-10,o),
(441,45,o),
(498,126,c),
(519,41,o),
(588,-11,o),
(692,-11,cs)
);
},
{
closed = 1;
nodes = (
(156,59,o),
(95,138,o),
(114,242,cs),
(131,343,o),
(215,425,o),
(319,425,cs),
(442,425,o),
(482,342,o),
(463,241,cs),
(445,142,o),
(357,59,o),
(255,59,cs)
);
},
{
closed = 1;
nodes = (
(592,344,o),
(639,425,o),
(736,425,cs),
(812,425,o),
(857,377,o),
(864,316,c),
(575,251,l)
);
}
);
width = 990;
}
);
unicode = 339;
},
{
color = 1;
glyphname = p;
lastChange = "2025-10-31 11:39:54 +0000";
layers = (
{
anchors = (
{
name = bottom;
pos = (291,0);
},
{
name = top;
pos = (385,536);
}
);
layerId = "EE0A04B7-467B-4BD9-A2DD-E8921F00673F";
shapes = (
{
closed = 1;
nodes = (
(167,-160,l),
(207,66,l),
(234,25,o),
(275,-12,o),
(358,-12,cs),
(486,-12,o),
(616,95,o),
(647,271,cs),
(678,446,o),
(585,553,o),
(457,553,cs),
(376,553,o),
(323,514,o),
(278,469,c),
(100,541,l),
(-23,-160,l)
);
},
{
closed = 1;
nodes = (
(266,147,o),
(227,198,o),
(240,270,cs),
(252,343,o),
(309,394,o),
(370,394,cs),
(442,394,o),
(471,336,o),
(460,272,cs),
(447,197,o),
(389,147,o),
(327,147,cs)
);
}
);
width = 675;
},
{
anchors = (
{
name = bottom;
pos = (262,0);
},
{
name = top;
pos = (357,536);
}
);
layerId = "179DD43A-A894-42A9-B4B6-A7F9368B08A7";
shapes = (
{
closed = 1;
nodes = (
(85,-183,l),
(131,81,l),
(164,24,o),
(217,-10,o),
(297,-10,cs),
(422,-10,o),
(553,91,o),
(581,247,cs),
(608,403,o),
(517,504,o),
(388,504,cs),
(308,504,o),
(252,468,o),
(200,417,c),
(104,492,l),
(-15,-183,l)
);
},
{
closed = 1;
nodes = (
(204,74,o),
(140,147,o),
(157,246,cs),
(175,346,o),
(262,417,o),
(350,417,cs),
(449,417,o),
(501,341,o),
(482,247,cs),
(462,143,o),
(380,74,o),
(291,74,cs)
);
}
);
width = 618;
},
{
anchors = (
{
name = bottom;
pos = (257,0);
},
{
name = top;
pos = (351,536);
}
);
layerId = "7F84CDEE-FC45-41A5-88A7-11DFAD5E6C3A";
shapes = (
{
closed = 1;
nodes = (
(70,-188,l),
(118,84,l),
(151,24,o),
(206,-10,o),
(286,-10,cs),
(411,-10,o),
(542,90,o),
(569,242,cs),
(595,394,o),
(504,494,o),
(375,494,cs),
(301,494,o),
(239,458,o),
(185,406,c),
(106,482,l),
(-12,-188,l)
);
},
{
closed = 1;
nodes = (
(192,59,o),
(123,138,o),
(141,241,cs),
(160,346,o),
(253,422,o),
(346,422,cs),
(463,422,o),
(500,328,o),
(487,242,cs),
(469,131,o),
(379,59,o),
(285,59,cs)
);
}
);
width = 607;
}
);
unicode = 112;
},
{
glyphname = thorn;
lastChange = "2025-10-31 11:39:54 +0000";
layers = (
{
layerId = "EE0A04B7-467B-4BD9-A2DD-E8921F00673F";
shapes = (
{
closed = 1;
nodes = (
(151,-225,l),
(187,-20,l),
(196,55,l),
(200,55,l),
(213,24,o),
(249,1,o),
(287,-8,cs),
(299,-11,o),
(311,-13,o),
(323,-13,cs),
(459,-13,o),
(557,121,o),
(579,243,cs),
(601,366,o),
(550,492,o),
(414,492,cs),
(399,492,o),
(384,489,o),
(369,485,c),
(323,470,o),
(282,441,o),
(259,418,c),
(259,418,l),
(263,438,o),
(268,459,o),
(273,480,c),
(278,511,o),
(284,542,o),
(292,571,c),
(328,776,l),
(142,776,l),
(-35,-225,l)
);
},
{
closed = 1;
nodes = (
(237,140,o),
(212,189,o),
(221,240,cs),
(230,288,o),
(272,339,o),
(324,339,cs),
(377,339,o),
(401,289,o),
(392,241,cs),
(381,172,o),
(354,140,o),
(289,140,c)
);
}
);
width = 612;
},
{
layerId = "179DD43A-A894-42A9-B4B6-A7F9368B08A7";
shapes = (
{
closed = 1;
nodes = (
(68,-243,l),
(109,-13,l),
(121,61,l),
(124,61,l),
(149,16,o),
(196,-10,o),
(253,-11,c),
(269,-12,o),
(283,-11,o),
(299,-8,cs),
(411,11,o),
(493,111,o),
(512,223,cs),
(532,333,o),
(484,436,o),
(380,455,cs),
(366,458,o),
(352,458,o),
(336,458,c),
(276,455,o),
(223,429,o),
(180,384,c),
(178,384,l),
(183,416,o),
(189,450,o),
(196,483,cs),
(201,511,o),
(206,539,o),
(211,567,cs),
(247,773,l),
(154,773,l),
(-25,-243,l)
);
},
{
closed = 1;
nodes = (
(169,71,o),
(133,147,o),
(147,228,cs),
(161,304,o),
(225,376,o),
(306,376,cs),
(391,376,o),
(432,308,o),
(418,227,cs),
(398,114,o),
(331,68,o),
(254,71,c)
);
}
);
width = 553;
},
{
layerId = "7F84CDEE-FC45-41A5-88A7-11DFAD5E6C3A";
shapes = (
{
closed = 1;
nodes = (
(51,-247,l),
(93,-12,l),
(106,62,l),
(108,62,l),
(135,14,o),
(186,-12,o),
(246,-12,cs),
(263,-12,o),
(278,-10,o),
(294,-7,cs),
(401,14,o),
(479,110,o),
(499,219,cs),
(518,327,o),
(471,423,o),
(374,447,c),
(359,450,o),
(345,452,o),
(329,452,cs),
(268,452,o),
(209,426,o),
(163,377,c),
(161,377,l),
(168,412,o),
(174,448,o),
(180,483,cs),
(185,511,o),
(190,538,o),
(195,566,cs),
(231,772,l),
(156,772,l),
(-24,-247,l)
);
},
{
closed = 1;
nodes = (
(153,57,o),
(117,139,o),
(132,225,cs),
(146,308,o),
(216,383,o),
(303,383,cs),
(396,383,o),
(436,313,o),
(422,224,cs),
(404,110,o),
(325,57,o),
(246,57,c)
);
}
);
width = 541;
}
);
unicode = 254;
},
{
color = 1;
glyphname = q;
lastChange = "2025-10-31 11:39:54 +0000";
layers = (
{
anchors = (
{
name = bottom;
pos = (291,0);
},
{
name = top;
pos = (385,536);
}
);
layerId = "EE0A04B7-467B-4BD9-A2DD-E8921F00673F";
shapes = (
{
closed = 1;
nodes = (
(547,-160,l),
(670,541,l),
(469,475,l),
(440,516,o),
(399,553,o),
(318,553,cs),
(190,553,o),
(60,446,o),
(29,270,cs),
(-2,97,o),
(91,-12,o),
(219,-12,cs),
(299,-12,o),
(353,27,o),
(398,72,c),
(357,-160,l)
);
},
{
closed = 1;
nodes = (
(226,147,o),
(205,211,o),
(216,272,cs),
(230,344,o),
(288,394,o),
(347,394,cs),
(408,394,o),
(448,343,o),
(436,272,cs),
(423,200,o),
(365,147,o),
(304,147,cs)
);
}
);
width = 675;
},
{
anchors = (
{
name = bottom;
pos = (262,0);
},
{
name = top;
pos = (356,536);
}
);
layerId = "179DD43A-A894-42A9-B4B6-A7F9368B08A7";
shapes = (
{
closed = 1;
nodes = (
(473,-183,l),
(592,492,l),
(471,421,l),
(437,469,o),
(395,504,o),
(315,504,cs),
(184,504,o),
(58,403,o),
(30,246,cs),
(4,94,o),
(92,-11,o),
(224,-11,cs),
(303,-11,o),
(367,28,o),
(420,85,c),
(373,-183,l)
);
},
{
closed = 1;
nodes = (
(146,74,o),
(113,157,o),
(131,248,cs),
(150,349,o),
(229,419,o),
(321,419,cs),
(409,419,o),
(471,346,o),
(454,247,cs),
(436,148,o),
(348,74,o),
(260,74,cs)
);
}
);
width = 618;
},
{
anchors = (
{
name = bottom;
pos = (256,0);
},
{
name = top;
pos = (350,536);
}
);
layerId = "7F84CDEE-FC45-41A5-88A7-11DFAD5E6C3A";
shapes = (
{
closed = 1;
nodes = (
(458,-188,l),
(576,482,l),
(471,410,l),
(436,459,o),
(394,494,o),
(314,494,cs),
(182,494,o),
(57,394,o),
(30,241,cs),
(4,93,o),
(92,-11,o),
(225,-11,cs),
(304,-11,o),
(369,27,o),
(424,87,c),
(376,-188,l)
);
},
{
closed = 1;
nodes = (
(139,59,o),
(96,147,o),
(114,243,cs),
(135,351,o),
(218,424,o),
(316,424,cs),
(409,424,o),
(475,347,o),
(457,242,cs),
(438,138,o),
(343,59,o),
(250,59,cs)
);
}
);
width = 606;
}
);
unicode = 113;
},
{
color = 1;
glyphname = r;
lastChange = "2025-10-31 11:39:54 +0000";
layers = (
{
anchors = (
{
name = bottom;
pos = (162,0);
},
{
name = top;
pos = (256,536);
}
);
layerId = "EE0A04B7-467B-4BD9-A2DD-E8921F00673F";
shapes = (
{
closed = 1;
nodes = (
(194,0,l),
(224,168,ls),
(245,292,o),
(312,350,o),
(411,350,cs),
(418,350,o),
(424,350,o),
(427,350,c),
(462,550,l),
(459,550,o),
(456,550,o),
(453,550,cs),
(368,550,o),
(314,504,o),
(270,432,c),
(99,541,l),
(4,0,l)
);
}
);
width = 417;
},
{
anchors = (
{
name = bottom;
pos = (131,0);
},
{
name = top;
pos = (225,536);
}
);
layerId = "179DD43A-A894-42A9-B4B6-A7F9368B08A7";
shapes = (
{
closed = 1;
nodes = (
(117,0,l),
(162,254,ls),
(181,364,o),
(269,408,o),
(339,408,cs),
(354,408,o),
(367,407,o),
(377,400,c),
(394,497,l),
(383,500,o),
(372,501,o),
(357,501,cs),
(300,501,o),
(239,476,o),
(195,429,c),
(104,492,l),
(17,0,l)
);
}
);
width = 355;
},
{
anchors = (
{
name = bottom;
pos = (125,0);
},
{
name = top;
pos = (219,536);
}
);
layerId = "7F84CDEE-FC45-41A5-88A7-11DFAD5E6C3A";
shapes = (
{
closed = 1;
nodes = (
(102,0,l),
(150,271,ls),
(169,378,o),
(260,419,o),
(324,419,cs),
(341,419,o),
(355,417,o),
(366,410,c),
(380,486,l),
(367,489,o),
(355,491,o),
(339,491,cs),
(287,491,o),
(224,469,o),
(179,428,c),
(105,482,l),
(20,0,l)
);
}
);
width = 343;
}
);
unicode = 114;
},
{
color = 1;
glyphname = s;
lastChange = "2025-10-31 11:39:54 +0000";
layers = (
{
anchors = (
{
name = bottom;
pos = (203,0);
},
{
name = top;
pos = (297,536);
}
);
layerId = "EE0A04B7-467B-4BD9-A2DD-E8921F00673F";
shapes = (
{
closed = 1;
nodes = (
(331,-12,o),
(431,53,o),
(451,164,cs),
(484,351,o),
(200,321,o),
(212,391,cs),
(215,408,o),
(232,419,o),
(261,419,cs),
(306,419,o),
(390,391,o),
(439,360,c),
(466,513,l),
(402,540,o),
(361,552,o),
(286,552,cs),
(161,552,o),
(57,487,o),
(37,373,cs),
(3,180,o),
(288,213,o),
(277,152,cs),
(272,124,o),
(229,121,o),
(210,121,cs),
(154,121,o),
(75,152,o),
(20,193,c),
(-7,38,l),
(63,7,o),
(123,-12,o),
(199,-12,cs)
);
}
);
width = 500;
},
{
anchors = (
{
name = bottom;
pos = (153,0);
},
{
name = top;
pos = (247,536);
}
);
layerId = "179DD43A-A894-42A9-B4B6-A7F9368B08A7";
shapes = (
{
closed = 1;
nodes = (
(253,-10,o),
(332,55,o),
(346,138,cs),
(375,298,o),
(128,292,o),
(143,376,cs),
(148,401,o),
(176,424,o),
(220,424,cs),
(271,424,o),
(312,395,o),
(349,363,c),
(367,463,l),
(331,491,o),
(284,503,o),
(233,503,cs),
(133,503,o),
(63,453,o),
(49,376,cs),
(22,220,o),
(271,242,o),
(252,135,cs),
(242,79,o),
(186,69,o),
(155,69,cs),
(94,69,o),
(37,104,o),
(-1,144,c),
(-18,45,l),
(22,17,o),
(69,-10,o),
(145,-10,cs)
);
}
);
width = 400;
},
{
anchors = (
{
name = bottom;
pos = (143,0);
},
{
name = top;
pos = (237,536);
}
);
layerId = "7F84CDEE-FC45-41A5-88A7-11DFAD5E6C3A";
shapes = (
{
closed = 1;
nodes = (
(237,-10,o),
(312,56,o),
(325,133,cs),
(353,288,o),
(114,286,o),
(130,373,cs),
(135,400,o),
(164,425,o),
(212,425,cs),
(262,425,o),
(298,397,o),
(331,363,c),
(347,453,l),
(315,482,o),
(267,493,o),
(222,493,cs),
(128,493,o),
(64,447,o),
(51,376,cs),
(25,227,o),
(267,249,o),
(246,131,cs),
(235,70,o),
(180,58,o),
(144,58,cs),
(81,58,o),
(31,95,o),
(-4,134,c),
(-20,46,l),
(14,19,o),
(58,-10,o),
(134,-10,cs)
);
}
);
width = 380;
}
);
unicode = 115;
},
{
glyphname = germandbls;
lastChange = "2025-10-31 11:39:54 +0000";
layers = (
{
layerId = "EE0A04B7-467B-4BD9-A2DD-E8921F00673F";
shapes = (
{
closed = 1;
nodes = (
(341,-16,o),
(524,39,o),
(551,194,cs),
(568,290,o),
(505,343,o),
(441,364,c),
(506,393,o),
(561,446,o),
(575,530,cs),
(596,646,o),
(517,739,o),
(362,739,cs),
(185,739,o),
(72,635,o),
(44,479,cs),
(-40,0,l),
(149,0,l),
(234,483,ls),
(245,546,o),
(286,580,o),
(331,580,cs),
(372,580,o),
(395,552,o),
(387,505,cs),
(378,455,o),
(334,419,o),
(286,398,c),
(268,297,l),
(335,292,o),
(374,262,o),
(366,214,cs),
(357,166,o),
(308,136,o),
(239,133,c),
(215,-3,l)
);
}
);
width = 593;
},
{
layerId = "179DD43A-A894-42A9-B4B6-A7F9368B08A7";
shapes = (
{
closed = 1;
nodes = (
(320,-6,o),
(461,63,o),
(486,207,cs),
(504,308,o),
(439,377,o),
(354,393,c),
(429,424,o),
(490,480,o),
(505,565,cs),
(524,674,o),
(451,751,o),
(327,751,cs),
(167,751,o),
(77,643,o),
(54,513,cs),
(-36,0,l),
(62,0,l),
(152,513,ls),
(166,590,o),
(218,663,o),
(309,663,cs),
(376,663,o),
(416,623,o),
(404,554,cs),
(390,478,o),
(325,447,o),
(247,418,c),
(235,350,l),
(339,334,o),
(403,303,o),
(387,210,cs),
(370,115,o),
(285,74,o),
(177,74,c),
(163,-3,l)
);
}
);
width = 531;
},
{
layerId = "7F84CDEE-FC45-41A5-88A7-11DFAD5E6C3A";
shapes = (
{
closed = 1;
nodes = (
(314,-3,o),
(449,67,o),
(474,209,cs),
(492,313,o),
(428,383,o),
(337,399,c),
(415,430,o),
(476,487,o),
(491,572,cs),
(510,680,o),
(438,753,o),
(321,753,cs),
(165,753,o),
(79,644,o),
(57,520,cs),
(-35,0,l),
(45,0,l),
(137,519,ls),
(151,599,o),
(206,680,o),
(304,680,cs),
(376,680,o),
(419,637,o),
(406,564,cs),
(392,483,o),
(324,451,o),
(238,422,c),
(227,360,l),
(340,344,o),
(409,310,o),
(391,209,cs),
(373,105,o),
(281,62,o),
(165,62,c),
(153,-3,l)
);
}
);
width = 519;
}
);
unicode = 223;
},
{
color = 1;
glyphname = t;
lastChange = "2025-10-31 11:39:54 +0000";
layers = (
{
anchors = (
{
name = bottom;
pos = (224,0);
},
{
name = center;
pos = (221,268);
},
{
name = top;
pos = (268,536);
},
{
name = topright;
pos = (505,747);
}
);
layerId = "EE0A04B7-467B-4BD9-A2DD-E8921F00673F";
shapes = (
{
closed = 1;
nodes = (
(300,-11,o),
(346,1,o),
(385,20,c),
(411,169,l),
(384,158,o),
(361,151,o),
(336,151,cs),
(301,151,o),
(286,166,o),
(293,205,cs),
(325,388,l),
(451,388,l),
(478,541,l),
(352,541,l),
(382,708,l),
(31,388,l),
(135,388,l),
(97,168,ls),
(75,38,o),
(138,-11,o),
(247,-11,cs)
);
}
);
width = 441;
},
{
anchors = (
{
name = bottom;
pos = (170,0);
},
{
name = center;
pos = (177,268);
},
{
name = top;
pos = (224,536);
},
{
name = topright;
pos = (417,747);
}
);
layerId = "179DD43A-A894-42A9-B4B6-A7F9368B08A7";
shapes = (
{
closed = 1;
nodes = (
(214,-11,o),
(234,-8,o),
(255,3,c),
(269,85,l),
(252,77,o),
(236,74,o),
(223,74,cs),
(190,74,o),
(183,99,o),
(188,128,cs),
(237,408,l),
(364,408,l),
(379,492,l),
(252,492,l),
(281,659,l),
(39,408,l),
(138,408,l),
(89,128,ls),
(76,51,o),
(107,-11,o),
(190,-11,cs)
);
}
);
width = 353;
},
{
anchors = (
{
name = bottom;
pos = (161,0);
},
{
name = center;
pos = (168,268);
},
{
name = top;
pos = (215,536);
},
{
name = topright;
pos = (399,747);
}
);
layerId = "7F84CDEE-FC45-41A5-88A7-11DFAD5E6C3A";
shapes = (
{
closed = 1;
nodes = (
(196,-11,o),
(212,-8,o),
(228,-1,c),
(240,68,l),
(224,61,o),
(210,59,o),
(199,59,cs),
(167,59,o),
(160,85,o),
(165,112,cs),
(218,412,l),
(346,412,l),
(358,482,l),
(230,482,l),
(259,649,l),
(40,412,l),
(138,412,l),
(86,120,ls),
(74,50,o),
(99,-11,o),
(177,-11,cs)
);
}
);
width = 335;
}
);
unicode = 116;
},
{
color = 1;
glyphname = u;
lastChange = "2025-10-31 11:39:54 +0000";
layers = (
{
anchors = (
{
name = bottom;
pos = (269,0);
},
{
name = ogonek;
pos = (537,0);
},
{
name = top;
pos = (363,536);
},
{
name = topright;
pos = (658,536);
}
);
layerId = "EE0A04B7-467B-4BD9-A2DD-E8921F00673F";
shapes = (
{
closed = 1;
nodes = (
(260,-12,o),
(320,21,o),
(358,62,c),
(535,-12,l),
(632,541,l),
(442,541,l),
(391,248,ls),
(381,189,o),
(341,157,o),
(296,157,cs),
(250,157,o),
(225,189,o),
(235,248,cs),
(286,541,l),
(96,541,l),
(34,187,ls),
(18,94,o),
(43,-12,o),
(183,-12,cs)
);
}
);
width = 631;
},
{
anchors = (
{
name = bottom;
pos = (229,0);
},
{
name = ogonek;
pos = (446,-2);
},
{
name = top;
pos = (323,536);
},
{
name = topright;
pos = (578,536);
}
);
layerId = "179DD43A-A894-42A9-B4B6-A7F9368B08A7";
shapes = (
{
closed = 1;
nodes = (
(258,-10,o),
(312,19,o),
(356,62,c),
(446,-2,l),
(533,493,l),
(433,493,l),
(383,211,ls),
(365,110,o),
(292,78,o),
(237,78,cs),
(182,78,o),
(130,101,o),
(149,211,cs),
(199,493,l),
(99,493,l),
(46,191,ls),
(30,98,o),
(52,-10,o),
(186,-10,cs)
);
}
);
width = 551;
},
{
anchors = (
{
name = bottom;
pos = (221,0);
},
{
name = ogonek;
pos = (427,0);
},
{
name = top;
pos = (315,536);
},
{
name = topright;
pos = (562,536);
}
);
layerId = "7F84CDEE-FC45-41A5-88A7-11DFAD5E6C3A";
shapes = (
{
closed = 1;
nodes = (
(258,-10,o),
(311,19,o),
(355,62,c),
(428,0,l),
(513,483,l),
(431,483,l),
(382,203,ls),
(364,102,o),
(275,62,o),
(218,62,cs),
(151,62,o),
(113,94,o),
(132,203,cs),
(181,483,l),
(99,483,l),
(46,180,ls),
(30,89,o),
(54,-10,o),
(186,-10,cs)
);
}
);
width = 535;
}
);
unicode = 117;
},
{
color = 1;
glyphname = v;
lastChange = "2025-10-31 11:39:54 +0000";
layers = (
{
anchors = (
{
name = bottom;
pos = (251,0);
},
{
name = top;
pos = (345,536);
}
);
layerId = "EE0A04B7-467B-4BD9-A2DD-E8921F00673F";
shapes = (
{
closed = 1;
nodes = (
(335,-4,l),
(647,541,l),
(450,541,l),
(291,225,l),
(242,541,l),
(42,541,l),
(162,-4,l)
);
}
);
width = 595;
},
{
anchors = (
{
name = bottom;
pos = (202,0);
},
{
name = top;
pos = (296,536);
}
);
layerId = "179DD43A-A894-42A9-B4B6-A7F9368B08A7";
shapes = (
{
closed = 1;
nodes = (
(248,-1,l),
(540,491,l),
(435,491,l),
(222,113,l),
(143,491,l),
(35,491,l),
(152,-1,l)
);
}
);
width = 497;
},
{
anchors = (
{
name = bottom;
pos = (192,0);
},
{
name = top;
pos = (286,536);
}
);
layerId = "7F84CDEE-FC45-41A5-88A7-11DFAD5E6C3A";
shapes = (
{
closed = 1;
nodes = (
(232,0,l),
(519,481,l),
(433,481,l),
(209,91,l),
(124,481,l),
(34,481,l),
(151,0,l)
);
}
);
width = 477;
}
);
unicode = 118;
},
{
color = 1;
glyphname = w;
lastChange = "2025-10-31 11:39:54 +0000";
layers = (
{
anchors = (
{
name = bottom;
pos = (361,0);
},
{
name = top;
pos = (455,536);
}
);
layerId = "EE0A04B7-467B-4BD9-A2DD-E8921F00673F";
shapes = (
{
closed = 1;
nodes = (
(269,-4,l),
(409,277,l),
(447,-4,l),
(611,-4,l),
(874,541,l),
(691,541,l),
(570,267,l),
(535,543,l),
(378,543,l),
(246,269,l),
(223,541,l),
(37,541,l),
(106,-4,l)
);
}
);
width = 815;
},
{
anchors = (
{
name = bottom;
pos = (327,0);
},
{
name = top;
pos = (421,536);
}
);
layerId = "179DD43A-A894-42A9-B4B6-A7F9368B08A7";
shapes = (
{
closed = 1;
nodes = (
(208,-1,l),
(390,375,l),
(441,-1,l),
(536,-1,l),
(788,492,l),
(685,492,l),
(509,128,l),
(462,493,l),
(366,493,l),
(189,127,l),
(140,492,l),
(38,492,l),
(116,-1,l)
);
}
);
width = 748;
},
{
anchors = (
{
name = bottom;
pos = (320,0);
},
{
name = top;
pos = (414,536);
}
);
layerId = "7F84CDEE-FC45-41A5-88A7-11DFAD5E6C3A";
shapes = (
{
closed = 1;
nodes = (
(197,0,l),
(388,395,l),
(441,0,l),
(522,0,l),
(771,482,l),
(685,482,l),
(498,100,l),
(448,483,l),
(365,483,l),
(179,99,l),
(124,482,l),
(39,482,l),
(119,0,l)
);
}
);
width = 734;
}
);
unicode = 119;
},
{
color = 1;
glyphname = x;
lastChange = "2025-10-31 11:39:54 +0000";
layers = (
{
anchors = (
{
name = bottom;
pos = (241,0);
},
{
name = top;
pos = (335,536);
}
);
layerId = "EE0A04B7-467B-4BD9-A2DD-E8921F00673F";
shapes = (
{
closed = 1;
nodes = (
(154,0,l),
(264,139,l),
(323,0,l),
(527,0,l),
(393,274,l),
(618,541,l),
(417,541,l),
(314,408,l),
(257,541,l),
(52,541,l),
(184,273,l),
(-46,0,l)
);
}
);
width = 576;
},
{
anchors = (
{
name = bottom;
pos = (206,0);
},
{
name = top;
pos = (300,536);
}
);
layerId = "179DD43A-A894-42A9-B4B6-A7F9368B08A7";
shapes = (
{
closed = 1;
nodes = (
(69,0,l),
(237,183,l),
(341,0,l),
(453,0,l),
(308,255,l),
(528,491,l),
(419,491,l),
(264,324,l),
(170,491,l),
(57,491,l),
(196,253,l),
(-41,0,l)
);
}
);
width = 506;
},
{
anchors = (
{
name = bottom;
pos = (199,0);
},
{
name = top;
pos = (293,536);
}
);
layerId = "7F84CDEE-FC45-41A5-88A7-11DFAD5E6C3A";
shapes = (
{
closed = 1;
nodes = (
(52,0,l),
(232,192,l),
(345,0,l),
(438,0,l),
(290,251,l),
(509,481,l),
(419,481,l),
(254,307,l),
(152,481,l),
(58,481,l),
(198,249,l),
(-40,0,l)
);
}
);
width = 492;
}
);
unicode = 120;
},
{
color = 1;
glyphname = y;
lastChange = "2025-10-31 11:39:54 +0000";
layers = (
{
anchors = (
{
name = bottom;
pos = (250,0);
},
{
name = top;
pos = (344,536);
}
);
layerId = "EE0A04B7-467B-4BD9-A2DD-E8921F00673F";
shapes = (
{
closed = 1;
nodes = (
(259,-160,l),
(646,541,l),
(451,541,l),
(288,195,l),
(241,541,l),
(42,541,l),
(174,-6,l),
(98,-160,l)
);
}
);
width = 593;
},
{
anchors = (
{
name = bottom;
pos = (203,0);
},
{
name = top;
pos = (297,536);
}
);
layerId = "179DD43A-A894-42A9-B4B6-A7F9368B08A7";
shapes = (
{
closed = 1;
nodes = (
(157,-183,l),
(543,491,l),
(439,491,l),
(231,114,l),
(142,491,l),
(35,491,l),
(167,-1,l),
(65,-183,l)
);
}
);
width = 500;
},
{
anchors = (
{
name = bottom;
pos = (194,0);
},
{
name = top;
pos = (288,536);
}
);
layerId = "7F84CDEE-FC45-41A5-88A7-11DFAD5E6C3A";
shapes = (
{
closed = 1;
nodes = (
(137,-188,l),
(523,481,l),
(437,481,l),
(220,98,l),
(123,481,l),
(34,481,l),
(167,0,l),
(59,-188,l)
);
}
);
width = 481;
}
);
unicode = 121;
},
{
color = 1;
glyphname = z;
lastChange = "2025-10-31 11:39:54 +0000";
layers = (
{
anchors = (
{
name = bottom;
pos = (221,0);
},
{
name = center;
pos = (268,268);
},
{
name = top;
pos = (315,536);
}
);
layerId = "EE0A04B7-467B-4BD9-A2DD-E8921F00673F";
shapes = (
{
closed = 1;
nodes = (
(470,0,l),
(497,151,l),
(246,151,l),
(543,416,l),
(565,541,l),
(72,541,l),
(46,390,l),
(287,390,l),
(-10,125,l),
(-32,0,l)
);
}
);
width = 536;
},
{
anchors = (
{
name = bottom;
pos = (208,0);
},
{
name = center;
pos = (255,268);
},
{
name = top;
pos = (302,536);
}
);
layerId = "179DD43A-A894-42A9-B4B6-A7F9368B08A7";
shapes = (
{
closed = 1;
nodes = (
(433,0,l),
(448,84,l),
(104,84,l),
(511,414,l),
(525,492,l),
(72,492,l),
(57,410,l),
(387,410,l),
(-20,78,l),
(-34,0,l)
);
}
);
width = 509;
},
{
anchors = (
{
name = bottom;
pos = (205,0);
},
{
name = center;
pos = (252,268);
},
{
name = top;
pos = (299,536);
}
);
layerId = "7F84CDEE-FC45-41A5-88A7-11DFAD5E6C3A";
shapes = (
{
closed = 1;
nodes = (
(426,0,l),
(438,70,l),
(75,70,l),
(505,414,l),
(517,482,l),
(71,482,l),
(59,414,l),
(407,414,l),
(-23,69,l),
(-35,0,l)
);
}
);
width = 504;
}
);
unicode = 122;
},
{
glyphname = ordfeminine;
lastChange = "2025-10-31 11:39:54 +0000";
layers = (
{
layerId = "EE0A04B7-467B-4BD9-A2DD-E8921F00673F";
shapes = (
{
closed = 1;
nodes = (
(191,413,o),
(221,428,o),
(246,451,c),
(240,419,l),
(344,419,l),
(374,589,ls),
(389,677,o),
(355,721,o),
(251,721,cs),
(203,721,o),
(165,713,o),
(127,698,c),
(135,624,l),
(164,635,o),
(192,641,o),
(220,641,cs),
(261,641,o),
(277,623,o),
(271,592,c),
(271,588,l),
(255,595,o),
(230,599,o),
(202,599,cs),
(130,599,o),
(80,570,o),
(68,506,cs),
(56,438,o),
(103,413,o),
(152,413,cs)
);
},
{
closed = 1;
nodes = (
(325,286,l),
(339,363,l),
(40,363,l),
(26,286,l)
);
},
{
closed = 1;
nodes = (
(179,479,o),
(167,493,o),
(170,513,cs),
(174,534,o),
(195,549,o),
(224,549,cs),
(240,549,o),
(253,545,o),
(263,541,c),
(261,528,l),
(254,491,o),
(224,479,o),
(200,479,cs)
);
}
);
width = 354;
},
{
layerId = "179DD43A-A894-42A9-B4B6-A7F9368B08A7";
shapes = (
{
closed = 1;
nodes = (
(196,423,o),
(232,441,o),
(260,469,c),
(253,429,l),
(313,429,l),
(343,602,ls),
(358,685,o),
(313,722,o),
(236,722,cs),
(196,722,o),
(158,711,o),
(125,696,c),
(132,647,l),
(162,662,o),
(189,669,o),
(220,669,cs),
(267,669,o),
(291,648,o),
(283,603,c),
(282,596,l),
(258,603,o),
(238,609,o),
(206,609,cs),
(134,609,o),
(79,578,o),
(68,514,cs),
(56,448,o),
(105,423,o),
(157,423,cs)
);
},
{
closed = 1;
nodes = (
(295,301,l),
(304,353,l),
(36,353,l),
(27,301,l)
);
},
{
closed = 1;
nodes = (
(145,469,o),
(123,485,o),
(128,517,cs),
(134,550,o),
(163,569,o),
(208,569,cs),
(236,569,o),
(257,563,o),
(275,555,c),
(272,536,l),
(262,484,o),
(226,469,o),
(180,469,cs)
);
}
);
width = 326;
},
{
layerId = "7F84CDEE-FC45-41A5-88A7-11DFAD5E6C3A";
shapes = (
{
closed = 1;
nodes = (
(196,425,o),
(233,444,o),
(261,473,c),
(254,431,l),
(305,431,l),
(336,605,ls),
(350,685,o),
(304,722,o),
(232,722,cs),
(193,722,o),
(154,711,o),
(123,696,c),
(131,652,l),
(159,667,o),
(188,675,o),
(219,675,cs),
(267,675,o),
(293,653,o),
(285,605,c),
(283,597,l),
(258,605,o),
(239,611,o),
(206,611,cs),
(134,611,o),
(78,580,o),
(67,515,cs),
(56,450,o),
(108,425,o),
(156,425,cs)
);
},
{
closed = 1;
nodes = (
(288,304,l),
(297,356,l),
(36,356,l),
(20,304,l)
);
},
{
closed = 1;
nodes = (
(138,467,o),
(112,483,o),
(118,518,cs),
(125,553,o),
(156,573,o),
(204,573,cs),
(235,573,o),
(258,567,o),
(276,558,c),
(273,537,l),
(262,482,o),
(215,467,o),
(174,467,cs)
);
}
);
width = 320;
}
);
unicode = 170;
},
{
glyphname = ordmasculine;
lastChange = "2025-10-31 11:39:54 +0000";
layers = (
{
layerId = "EE0A04B7-467B-4BD9-A2DD-E8921F00673F";
shapes = (
{
closed = 1;
nodes = (
(304,414,o),
(386,485,o),
(401,570,cs),
(415,655,o),
(360,724,o),
(267,724,cs),
(174,724,o),
(91,653,o),
(76,569,cs),
(58,465,o),
(123,414,o),
(210,414,cs)
);
},
{
closed = 1;
nodes = (
(333,289,l),
(347,366,l),
(59,366,l),
(45,289,l)
);
},
{
closed = 1;
nodes = (
(192,503,o),
(172,534,o),
(179,570,cs),
(185,606,o),
(213,635,o),
(249,635,cs),
(285,635,o),
(305,605,o),
(298,569,cs),
(290,523,o),
(257,503,o),
(228,503,cs)
);
}
);
width = 370;
},
{
layerId = "179DD43A-A894-42A9-B4B6-A7F9368B08A7";
shapes = (
{
closed = 1;
nodes = (
(293,422,o),
(361,491,o),
(375,575,cs),
(389,653,o),
(338,723,o),
(252,723,cs),
(165,723,o),
(89,655,o),
(75,572,cs),
(58,474,o),
(124,422,o),
(197,422,cs)
);
},
{
closed = 1;
nodes = (
(321,302,l),
(330,354,l),
(42,354,l),
(33,302,l)
);
},
{
closed = 1;
nodes = (
(157,478,o),
(128,519,o),
(137,575,cs),
(146,624,o),
(186,667,o),
(241,667,cs),
(293,667,o),
(323,628,o),
(313,572,cs),
(308,545,o),
(283,478,o),
(209,478,cs)
);
}
);
width = 342;
},
{
layerId = "7F84CDEE-FC45-41A5-88A7-11DFAD5E6C3A";
shapes = (
{
closed = 1;
nodes = (
(288,423,o),
(355,492,o),
(370,576,cs),
(383,653,o),
(333,723,o),
(248,723,cs),
(162,723,o),
(87,655,o),
(73,572,cs),
(56,474,o),
(119,423,o),
(194,423,cs)
);
},
{
closed = 1;
nodes = (
(318,304,l),
(327,356,l),
(39,356,l),
(30,304,l)
);
},
{
closed = 1;
nodes = (
(149,476,o),
(118,519,o),
(128,576,cs),
(137,627,o),
(181,673,o),
(238,673,cs),
(294,673,o),
(325,632,o),
(315,572,cs),
(310,544,o),
(278,476,o),
(205,476,cs)
);
}
);
width = 336;
}
);
unicode = 186;
},
{
glyphname = nmod;
lastChange = "2025-10-31 11:39:54 +0000";
layers = (
{
layerId = "EE0A04B7-467B-4BD9-A2DD-E8921F00673F";
shapes = (
{
closed = 1;
nodes = (
(184,391,l),
(219,590,ls),
(226,630,o),
(256,651,o),
(284,651,cs),
(313,651,o),
(332,630,o),
(325,590,cs),
(290,391,l),
(418,391,l),
(460,631,ls),
(469,683,o),
(461,766,o),
(360,766,cs),
(307,766,o),
(269,737,o),
(239,706,c),
(120,758,l),
(55,391,l)
);
}
);
width = 394;
},
{
layerId = "179DD43A-A894-42A9-B4B6-A7F9368B08A7";
shapes = (
{
closed = 1;
nodes = (
(142,391,l),
(177,589,ls),
(189,660,o),
(242,682,o),
(279,682,cs),
(316,682,o),
(353,659,o),
(341,589,cs),
(306,391,l),
(376,391,l),
(414,609,ls),
(423,663,o),
(407,744,o),
(314,744,cs),
(265,744,o),
(225,722,o),
(195,691,c),
(133,736,l),
(72,391,l)
);
}
);
width = 394;
},
{
layerId = "7F84CDEE-FC45-41A5-88A7-11DFAD5E6C3A";
shapes = (
{
closed = 1;
nodes = (
(133,391,l),
(168,589,ls),
(181,666,o),
(239,688,o),
(278,688,cs),
(318,688,o),
(357,665,o),
(344,589,cs),
(309,391,l),
(367,391,l),
(405,605,ls),
(415,659,o),
(405,739,o),
(305,739,cs),
(256,739,o),
(217,719,o),
(186,688,c),
(135,731,l),
(75,391,l)
);
}
);
width = 394;
}
);
unicode = 8319;
},
{
color = 1;
glyphname = Alpha;
lastChange = "2025-10-31 11:39:54 +0000";
layers = (
{
anchors = (
{
name = topleft;
pos = (396,712);
}
);
layerId = "EE0A04B7-467B-4BD9-A2DD-E8921F00673F";
shapes = (
{
closed = 1;
nodes = (
(149,0,l),
(221,125,l),
(491,125,l),
(520,0,l),
(728,0,l),
(554,705,l),
(367,705,l),
(-55,0,l)
);
},
{
closed = 1;
nodes = (
(419,475,l),
(462,276,l),
(305,276,l)
);
}
);
width = 767;
},
{
anchors = (
{
name = topleft;
pos = (258,712);
}
);
layerId = "179DD43A-A894-42A9-B4B6-A7F9368B08A7";
shapes = (
{
closed = 1;
nodes = (
(57,0,l),
(170,185,l),
(493,185,l),
(538,0,l),
(651,0,l),
(467,705,l),
(378,705,l),
(-53,0,l)
);
},
{
closed = 1;
nodes = (
(401,584,l),
(472,273,l),
(221,273,l)
);
}
);
width = 692;
},
{
anchors = (
{
name = topleft;
pos = (288,712);
}
);
layerId = "7F84CDEE-FC45-41A5-88A7-11DFAD5E6C3A";
shapes = (
{
closed = 1;
nodes = (
(39,0,l),
(159,197,l),
(493,197,l),
(542,0,l),
(635,0,l),
(450,705,l),
(380,705,l),
(-52,0,l)
);
},
{
closed = 1;
nodes = (
(398,606,l),
(474,272,l),
(204,272,l)
);
}
);
width = 677;
}
);
unicode = 913;
},
{
glyphname = Beta;
lastChange = "2025-10-31 11:39:54 +0000";
layers = (
{
layerId = "EE0A04B7-467B-4BD9-A2DD-E8921F00673F";
shapes = (
{
closed = 1;
nodes = (
(370,0,ls),
(539,0,o),
(650,75,o),
(671,195,cs),
(688,290,o),
(643,341,o),
(563,366,c),
(631,393,o),
(684,443,o),
(698,524,cs),
(718,635,o),
(638,700,o),
(491,700,cs),
(134,700,l),
(11,0,l)
);
},
{
closed = 1;
nodes = (
(250,285,l),
(397,285,ls),
(461,285,o),
(489,260,o),
(482,222,cs),
(475,181,o),
(437,156,o),
(377,156,cs),
(228,156,l)
);
},
{
closed = 1;
nodes = (
(296,544,l),
(421,544,ls),
(478,544,o),
(504,523,o),
(497,484,cs),
(490,443,o),
(454,421,o),
(395,421,cs),
(274,421,l)
);
}
);
width = 718;
},
{
layerId = "179DD43A-A894-42A9-B4B6-A7F9368B08A7";
shapes = (
{
closed = 1;
nodes = (
(280,0,ls),
(477,0,o),
(575,87,o),
(594,194,cs),
(610,281,o),
(572,349,o),
(463,366,c),
(535,391,o),
(581,451,o),
(594,527,cs),
(617,656,o),
(508,704,o),
(380,704,cs),
(153,704,l),
(29,0,l)
);
},
{
closed = 1;
nodes = (
(187,316,l),
(316,316,ls),
(460,316,o),
(505,275,o),
(493,202,cs),
(480,129,o),
(421,88,o),
(304,88,cs),
(147,88,l)
);
},
{
closed = 1;
nodes = (
(240,617,l),
(367,617,ls),
(454,617,o),
(502,583,o),
(489,510,cs),
(478,447,o),
(425,400,o),
(328,400,cs),
(202,400,l)
);
}
);
width = 651;
},
{
layerId = "7F84CDEE-FC45-41A5-88A7-11DFAD5E6C3A";
shapes = (
{
closed = 1;
nodes = (
(262,0,ls),
(465,0,o),
(560,89,o),
(578,194,cs),
(593,279,o),
(557,350,o),
(443,366,c),
(515,391,o),
(560,451,o),
(573,527,cs),
(596,660,o),
(482,705,o),
(358,705,cs),
(157,705,l),
(33,0,l)
);
},
{
closed = 1;
nodes = (
(174,322,l),
(300,322,ls),
(460,322,o),
(509,278,o),
(495,198,cs),
(481,118,o),
(418,74,o),
(289,74,cs),
(130,74,l)
);
},
{
closed = 1;
nodes = (
(228,631,l),
(355,631,ls),
(447,631,o),
(501,595,o),
(487,515,cs),
(475,448,o),
(419,396,o),
(314,396,cs),
(187,396,l)
);
}
);
width = 637;
}
);
unicode = 914;
},
{
glyphname = Gamma;
lastChange = "2025-10-31 11:39:54 +0000";
layers = (
{
layerId = "EE0A04B7-467B-4BD9-A2DD-E8921F00673F";
shapes = (
{
closed = 1;
nodes = (
(205,0,l),
(298,530,l),
(664,530,l),
(694,700,l),
(134,700,l),
(11,0,l)
);
}
);
width = 630;
},
{
layerId = "179DD43A-A894-42A9-B4B6-A7F9368B08A7";
shapes = (
{
closed = 1;
nodes = (
(133,0,l),
(241,613,l),
(612,613,l),
(628,704,l),
(153,704,l),
(29,0,l)
);
}
);
width = 560;
},
{
layerId = "7F84CDEE-FC45-41A5-88A7-11DFAD5E6C3A";
shapes = (
{
closed = 1;
nodes = (
(118,0,l),
(229,629,l),
(601,629,l),
(614,705,l),
(157,705,l),
(33,0,l)
);
}
);
width = 546;
}
);
unicode = 915;
},
{
category = Letter;
glyphname = Delta;
lastChange = "2025-10-31 11:39:54 +0000";
layers = (
{
layerId = "EE0A04B7-467B-4BD9-A2DD-E8921F00673F";
shapes = (
{
closed = 1;
nodes = (
(752,0,l),
(568,705,l),
(381,705,l),
(-51,0,l)
);
},
{
closed = 1;
nodes = (
(435,485,l),
(512,151,l),
(239,151,l)
);
}
);
width = 796;
},
{
layerId = "179DD43A-A894-42A9-B4B6-A7F9368B08A7";
shapes = (
{
closed = 1;
nodes = (
(668,0,l),
(479,705,l),
(389,705,l),
(-47,0,l)
);
},
{
closed = 1;
nodes = (
(413,586,l),
(537,88,l),
(116,88,l)
);
}
);
width = 714;
},
{
layerId = "7F84CDEE-FC45-41A5-88A7-11DFAD5E6C3A";
shapes = (
{
closed = 1;
nodes = (
(651,0,l),
(461,705,l),
(391,705,l),
(-46,0,l)
);
},
{
closed = 1;
nodes = (
(409,606,l),
(541,75,l),
(90,75,l)
);
}
);
width = 698;
}
);
script = greek;
unicode = 916;
},
{
color = 1;
glyphname = Epsilon;
lastChange = "2025-10-31 11:39:54 +0000";
layers = (
{
anchors = (
{
name = topleft;
pos = (118,712);
}
);
layerId = "EE0A04B7-467B-4BD9-A2DD-E8921F00673F";
shapes = (
{
closed = 1;
nodes = (
(579,0,l),
(608,165,l),
(232,165,l),
(252,276,l),
(588,276,l),
(615,429,l),
(279,429,l),
(297,535,l),
(668,535,l),
(697,700,l),
(134,700,l),
(11,0,l)
);
}
);
width = 675;
},
{
anchors = (
{
name = topleft;
pos = (128,712);
}
);
layerId = "179DD43A-A894-42A9-B4B6-A7F9368B08A7";
shapes = (
{
closed = 1;
nodes = (
(517,0,l),
(533,91,l),
(149,91,l),
(188,314,l),
(532,314,l),
(548,402,l),
(204,402,l),
(241,613,l),
(615,613,l),
(631,704,l),
(153,704,l),
(29,0,l)
);
}
);
width = 628;
},
{
anchors = (
{
name = topleft;
pos = (128,712);
}
);
layerId = "7F84CDEE-FC45-41A5-88A7-11DFAD5E6C3A";
shapes = (
{
closed = 1;
nodes = (
(504,0,l),
(517,76,l),
(132,76,l),
(176,321,l),
(521,321,l),
(534,397,l),
(189,397,l),
(230,629,l),
(604,629,l),
(617,705,l),
(157,705,l),
(33,0,l)
);
}
);
width = 618;
}
);
unicode = 917;
},
{
glyphname = Zeta;
lastChange = "2025-10-31 11:39:54 +0000";
layers = (
{
layerId = "EE0A04B7-467B-4BD9-A2DD-E8921F00673F";
shapes = (
{
closed = 1;
nodes = (
(568,0,l),
(597,164,l),
(246,164,l),
(667,559,l),
(691,700,l),
(84,700,l),
(56,536,l),
(395,536,l),
(-26,141,l),
(-51,0,l)
);
}
);
width = 624;
},
{
layerId = "179DD43A-A894-42A9-B4B6-A7F9368B08A7";
shapes = (
{
closed = 1;
nodes = (
(552,0,l),
(568,90,l),
(116,90,l),
(679,620,l),
(694,704,l),
(113,704,l),
(97,614,l),
(547,614,l),
(-21,84,l),
(-36,0,l)
);
}
);
width = 639;
},
{
layerId = "7F84CDEE-FC45-41A5-88A7-11DFAD5E6C3A";
shapes = (
{
closed = 1;
nodes = (
(549,0,l),
(562,75,l),
(90,75,l),
(681,632,l),
(694,705,l),
(119,705,l),
(106,630,l),
(578,630,l),
(-20,72,l),
(-33,0,l)
);
}
);
width = 642;
}
);
unicode = 918;
},
{
color = 1;
glyphname = Eta;
lastChange = "2025-10-31 11:39:54 +0000";
layers = (
{
anchors = (
{
name = topleft;
pos = (108,712);
}
);
layerId = "EE0A04B7-467B-4BD9-A2DD-E8921F00673F";
shapes = (
{
closed = 1;
nodes = (
(205,0,l),
(252,266,l),
(501,266,l),
(454,0,l),
(648,0,l),
(771,700,l),
(577,700,l),
(531,438,l),
(282,438,l),
(328,700,l),
(134,700,l),
(11,0,l)
);
}
);
width = 754;
},
{
anchors = (
{
name = topleft;
pos = (108,712);
}
);
layerId = "179DD43A-A894-42A9-B4B6-A7F9368B08A7";
shapes = (
{
closed = 1;
nodes = (
(132,0,l),
(187,311,l),
(547,311,l),
(492,0,l),
(594,0,l),
(718,705,l),
(616,705,l),
(563,405,l),
(203,405,l),
(256,705,l),
(153,705,l),
(29,0,l)
);
}
);
width = 717;
},
{
anchors = (
{
name = topleft;
pos = (118,712);
}
);
layerId = "7F84CDEE-FC45-41A5-88A7-11DFAD5E6C3A";
shapes = (
{
closed = 1;
nodes = (
(117,0,l),
(173,320,l),
(555,320,l),
(499,0,l),
(583,0,l),
(707,706,l),
(623,706,l),
(569,398,l),
(187,398,l),
(241,706,l),
(157,706,l),
(33,0,l)
);
}
);
width = 709;
}
);
unicode = 919;
},
{
glyphname = Theta;
lastChange = "2025-10-31 11:39:54 +0000";
layers = (
{
layerId = "EE0A04B7-467B-4BD9-A2DD-E8921F00673F";
shapes = (
{
closed = 1;
nodes = (
(610,-14,o),
(764,154,o),
(803,342,cs),
(846,552,o),
(708,714,o),
(492,714,cs),
(276,714,o),
(86,551,o),
(51,350,cs),
(15,149,o),
(147,-14,o),
(363,-14,cs)
);
},
{
closed = 1;
nodes = (
(289,161,o),
(232,251,o),
(250,352,cs),
(268,453,o),
(354,539,o),
(460,539,cs),
(583,539,o),
(623,446,o),
(606,350,cs),
(589,250,o),
(501,161,o),
(394,161,cs)
);
},
{
closed = 1;
nodes = (
(524,276,l),
(552,439,l),
(335,439,l),
(307,276,l)
);
}
);
width = 828;
},
{
layerId = "179DD43A-A894-42A9-B4B6-A7F9368B08A7";
shapes = (
{
closed = 1;
nodes = (
(613,-14,o),
(771,162,o),
(799,354,cs),
(829,553,o),
(710,718,o),
(498,718,cs),
(285,718,o),
(100,554,o),
(64,351,cs),
(28,148,o),
(154,-14,o),
(367,-14,cs)
);
},
{
closed = 1;
nodes = (
(229,79,o),
(142,200,o),
(169,354,cs),
(196,504,o),
(325,625,o),
(480,625,cs),
(659,625,o),
(721,500,o),
(693,350,cs),
(665,201,o),
(536,79,o),
(384,79,cs)
);
},
{
closed = 1;
nodes = (
(590,308,l),
(607,405,l),
(273,405,l),
(256,308,l)
);
}
);
width = 832;
},
{
layerId = "7F84CDEE-FC45-41A5-88A7-11DFAD5E6C3A";
shapes = (
{
closed = 1;
nodes = (
(613,-14,o),
(764,176,o),
(797,354,cs),
(834,553,o),
(710,719,o),
(499,719,cs),
(286,719,o),
(102,555,o),
(66,352,cs),
(30,148,o),
(155,-14,o),
(368,-14,cs)
);
},
{
closed = 1;
nodes = (
(217,63,o),
(124,190,o),
(153,354,cs),
(182,514,o),
(319,642,o),
(484,642,cs),
(668,642,o),
(735,491,o),
(710,350,cs),
(681,191,o),
(543,63,o),
(382,63,cs)
);
},
{
closed = 1;
nodes = (
(603,314,l),
(618,398,l),
(261,398,l),
(246,314,l)
);
}
);
width = 833;
}
);
unicode = 920;
},
{
color = 1;
glyphname = Iota;
lastChange = "2025-10-31 11:39:54 +0000";
layers = (
{
anchors = (
{
name = topleft;
pos = (158,712);
}
);
layerId = "EE0A04B7-467B-4BD9-A2DD-E8921F00673F";
shapes = (
{
closed = 1;
nodes = (
(206,0,l),
(329,700,l),
(134,700,l),
(11,0,l)
);
}
);
width = 311;
},
{
anchors = (
{
name = topleft;
pos = (118,712);
}
);
layerId = "179DD43A-A894-42A9-B4B6-A7F9368B08A7";
shapes = (
{
closed = 1;
nodes = (
(132,0,l),
(256,704,l),
(153,704,l),
(29,0,l)
);
}
);
width = 254;
},
{
anchors = (
{
name = topleft;
pos = (128,712);
}
);
layerId = "7F84CDEE-FC45-41A5-88A7-11DFAD5E6C3A";
shapes = (
{
closed = 1;
nodes = (
(117,0,l),
(241,705,l),
(157,705,l),
(33,0,l)
);
}
);
width = 243;
}
);
unicode = 921;
},
{
glyphname = Kappa;
lastChange = "2025-10-31 11:39:54 +0000";
layers = (
{
layerId = "EE0A04B7-467B-4BD9-A2DD-E8921F00673F";
shapes = (
{
closed = 1;
nodes = (
(205,0,l),
(270,368,l),
(452,0,l),
(685,0,l),
(481,399,l),
(799,700,l),
(569,700,l),
(278,416,l),
(328,700,l),
(134,700,l),
(11,0,l)
);
}
);
width = 724;
},
{
layerId = "179DD43A-A894-42A9-B4B6-A7F9368B08A7";
shapes = (
{
closed = 1;
nodes = (
(132,0,l),
(191,336,l),
(419,0,l),
(548,0,l),
(293,379,l),
(647,704,l),
(518,704,l),
(204,410,l),
(256,704,l),
(153,704,l),
(29,0,l)
);
}
);
width = 593;
},
{
layerId = "7F84CDEE-FC45-41A5-88A7-11DFAD5E6C3A";
shapes = (
{
closed = 1;
nodes = (
(117,0,l),
(175,330,l),
(412,0,l),
(520,0,l),
(255,375,l),
(616,705,l),
(508,705,l),
(189,409,l),
(241,705,l),
(157,705,l),
(33,0,l)
);
}
);
width = 567;
}
);
unicode = 922;
},
{
glyphname = Lambda;
lastChange = "2025-10-31 11:39:54 +0000";
layers = (
{
layerId = "EE0A04B7-467B-4BD9-A2DD-E8921F00673F";
shapes = (
{
closed = 1;
nodes = (
(149,0,l),
(414,475,l),
(510,0,l),
(718,0,l),
(549,705,l),
(362,705,l),
(-55,0,l)
);
}
);
width = 757;
},
{
layerId = "179DD43A-A894-42A9-B4B6-A7F9368B08A7";
shapes = (
{
closed = 1;
nodes = (
(57,0,l),
(392,584,l),
(520,0,l),
(632,0,l),
(458,705,l),
(369,705,l),
(-53,0,l)
);
}
);
width = 674;
},
{
layerId = "7F84CDEE-FC45-41A5-88A7-11DFAD5E6C3A";
shapes = (
{
closed = 1;
nodes = (
(39,0,l),
(388,606,l),
(522,0,l),
(615,0,l),
(440,705,l),
(370,705,l),
(-52,0,l)
);
}
);
width = 657;
}
);
unicode = 923;
},
{
glyphname = Mu;
lastChange = "2025-10-31 11:39:54 +0000";
layers = (
{
layerId = "EE0A04B7-467B-4BD9-A2DD-E8921F00673F";
shapes = (
{
closed = 1;
nodes = (
(161,0,l),
(232,400,l),
(364,128,l),
(593,402,l),
(522,0,l),
(715,0,l),
(838,700,l),
(633,700,l),
(419,429,l),
(299,700,l),
(94,700,l),
(-29,0,l)
);
}
);
width = 780;
},
{
layerId = "179DD43A-A894-42A9-B4B6-A7F9368B08A7";
shapes = (
{
closed = 1;
nodes = (
(81,0,l),
(176,538,l),
(365,149,l),
(691,538,l),
(596,0,l),
(698,0,l),
(821,700,l),
(719,700,l),
(393,304,l),
(205,700,l),
(102,700,l),
(-21,0,l)
);
}
);
width = 773;
},
{
layerId = "7F84CDEE-FC45-41A5-88A7-11DFAD5E6C3A";
shapes = (
{
closed = 1;
nodes = (
(65,0,l),
(165,565,l),
(365,153,l),
(711,565,l),
(611,0,l),
(695,0,l),
(818,700,l),
(736,700,l),
(387,279,l),
(186,700,l),
(104,700,l),
(-19,0,l)
);
}
);
width = 771;
}
);
unicode = 924;
},
{
glyphname = Nu;
lastChange = "2025-10-31 11:39:54 +0000";
layers = (
{
layerId = "EE0A04B7-467B-4BD9-A2DD-E8921F00673F";
shapes = (
{
closed = 1;
nodes = (
(203,0,l),
(271,384,l),
(502,0,l),
(672,0,l),
(795,700,l),
(603,700,l),
(538,330,l),
(315,700,l),
(134,700,l),
(11,0,l)
);
}
);
width = 778;
},
{
layerId = "179DD43A-A894-42A9-B4B6-A7F9368B08A7";
shapes = (
{
closed = 1;
nodes = (
(130,0,l),
(226,545,l),
(530,0,l),
(628,0,l),
(752,704,l),
(652,704,l),
(556,160,l),
(253,700,l),
(152,700,l),
(29,0,l)
);
}
);
width = 751;
},
{
layerId = "7F84CDEE-FC45-41A5-88A7-11DFAD5E6C3A";
shapes = (
{
closed = 1;
nodes = (
(115,0,l),
(217,577,l),
(535,0,l),
(619,0,l),
(743,705,l),
(661,705,l),
(559,126,l),
(241,700,l),
(156,700,l),
(33,0,l)
);
}
);
width = 746;
}
);
unicode = 925;
},
{
glyphname = Xi;
lastChange = "2025-10-31 11:39:54 +0000";
layers = (
{
layerId = "EE0A04B7-467B-4BD9-A2DD-E8921F00673F";
shapes = (
{
closed = 1;
nodes = (
(570,0,l),
(601,175,l),
(33,175,l),
(2,0,l)
);
},
{
closed = 1;
nodes = (
(578,271,l),
(607,434,l),
(119,434,l),
(90,271,l)
);
},
{
closed = 1;
nodes = (
(658,525,l),
(688,700,l),
(130,700,l),
(100,525,l)
);
}
);
width = 666;
},
{
layerId = "179DD43A-A894-42A9-B4B6-A7F9368B08A7";
shapes = (
{
closed = 1;
nodes = (
(505,0,l),
(523,101,l),
(35,101,l),
(17,0,l)
);
},
{
closed = 1;
nodes = (
(519,309,l),
(537,407,l),
(129,407,l),
(111,309,l)
);
},
{
closed = 1;
nodes = (
(601,603,l),
(619,704,l),
(151,704,l),
(133,603,l)
);
}
);
width = 616;
},
{
layerId = "7F84CDEE-FC45-41A5-88A7-11DFAD5E6C3A";
shapes = (
{
closed = 1;
nodes = (
(492,0,l),
(507,86,l),
(35,86,l),
(20,0,l)
);
},
{
closed = 1;
nodes = (
(508,316,l),
(523,402,l),
(131,402,l),
(116,316,l)
);
},
{
closed = 1;
nodes = (
(590,619,l),
(605,705,l),
(155,705,l),
(140,619,l)
);
}
);
width = 606;
}
);
unicode = 926;
},
{
color = 1;
glyphname = Omicron;
lastChange = "2025-10-31 11:39:54 +0000";
layers = (
{
anchors = (
{
name = topleft;
pos = (248,712);
}
);
layerId = "EE0A04B7-467B-4BD9-A2DD-E8921F00673F";
shapes = (
{
closed = 1;
nodes = (
(609,-14,o),
(763,154,o),
(802,342,cs),
(845,552,o),
(707,714,o),
(491,714,cs),
(275,714,o),
(85,551,o),
(50,350,cs),
(14,149,o),
(146,-14,o),
(362,-14,cs)
);
},
{
closed = 1;
nodes = (
(288,161,o),
(231,251,o),
(249,352,cs),
(267,453,o),
(353,539,o),
(459,539,cs),
(582,539,o),
(622,446,o),
(605,350,cs),
(588,250,o),
(500,161,o),
(393,161,cs)
);
}
);
width = 828;
},
{
anchors = (
{
name = topleft;
pos = (238,712);
}
);
layerId = "179DD43A-A894-42A9-B4B6-A7F9368B08A7";
shapes = (
{
closed = 1;
nodes = (
(613,-14,o),
(771,162,o),
(799,354,cs),
(829,553,o),
(710,718,o),
(498,718,cs),
(285,718,o),
(100,554,o),
(64,351,cs),
(28,148,o),
(154,-14,o),
(367,-14,cs)
);
},
{
closed = 1;
nodes = (
(229,79,o),
(142,200,o),
(169,354,cs),
(196,504,o),
(325,625,o),
(480,625,cs),
(659,625,o),
(721,500,o),
(693,350,cs),
(665,201,o),
(536,79,o),
(384,79,cs)
);
}
);
width = 832;
},
{
anchors = (
{
name = topleft;
pos = (238,712);
}
);
layerId = "7F84CDEE-FC45-41A5-88A7-11DFAD5E6C3A";
shapes = (
{
closed = 1;
nodes = (
(613,-14,o),
(764,176,o),
(797,354,cs),
(834,553,o),
(710,719,o),
(499,719,cs),
(286,719,o),
(102,555,o),
(66,352,cs),
(30,148,o),
(155,-14,o),
(368,-14,cs)
);
},
{
closed = 1;
nodes = (
(217,63,o),
(124,190,o),
(153,354,cs),
(182,514,o),
(319,642,o),
(484,642,cs),
(668,642,o),
(735,491,o),
(710,350,cs),
(681,191,o),
(543,63,o),
(382,63,cs)
);
}
);
width = 833;
}
);
unicode = 927;
},
{
glyphname = Pi;
lastChange = "2025-10-31 11:39:54 +0000";
layers = (
{
layerId = "EE0A04B7-467B-4BD9-A2DD-E8921F00673F";
shapes = (
{
closed = 1;
nodes = (
(205,0,l),
(298,528,l),
(537,528,l),
(444,0,l),
(638,0,l),
(762,705,l),
(134,700,l),
(11,0,l)
);
}
);
width = 743;
},
{
layerId = "179DD43A-A894-42A9-B4B6-A7F9368B08A7";
shapes = (
{
closed = 1;
nodes = (
(132,0,l),
(240,611,l),
(581,611,l),
(473,0,l),
(576,0,l),
(700,705,l),
(153,705,l),
(29,0,l)
);
}
);
width = 698;
},
{
layerId = "7F84CDEE-FC45-41A5-88A7-11DFAD5E6C3A";
shapes = (
{
closed = 1;
nodes = (
(117,0,l),
(228,628,l),
(590,628,l),
(479,0,l),
(563,0,l),
(687,705,l),
(157,706,l),
(33,0,l)
);
}
);
width = 689;
}
);
unicode = 928;
},
{
glyphname = Rho;
lastChange = "2025-10-31 11:39:54 +0000";
layers = (
{
layerId = "EE0A04B7-467B-4BD9-A2DD-E8921F00673F";
shapes = (
{
closed = 1;
nodes = (
(205,0,l),
(240,200,l),
(336,200,ls),
(510,200,o),
(653,289,o),
(682,454,cs),
(710,610,o),
(611,700,o),
(434,700,cs),
(134,700,l),
(11,0,l)
);
},
{
closed = 1;
nodes = (
(300,537,l),
(391,537,ls),
(463,537,o),
(497,505,o),
(486,445,cs),
(477,389,o),
(428,352,o),
(359,352,cs),
(267,352,l)
);
}
);
width = 672;
},
{
layerId = "179DD43A-A894-42A9-B4B6-A7F9368B08A7";
shapes = (
{
closed = 1;
nodes = (
(133,-2,l),
(180,266,l),
(308,266,ls),
(457,266,o),
(587,347,o),
(612,490,cs),
(636,625,o),
(548,704,o),
(393,704,cs),
(153,704,l),
(29,-2,l)
);
},
{
closed = 1;
nodes = (
(241,614,l),
(368,614,ls),
(472,614,o),
(523,572,o),
(508,485,cs),
(493,402,o),
(425,355,o),
(322,355,cs),
(196,355,l)
);
}
);
width = 602;
},
{
layerId = "7F84CDEE-FC45-41A5-88A7-11DFAD5E6C3A";
shapes = (
{
closed = 1;
nodes = (
(119,-2,l),
(168,279,l),
(302,279,ls),
(446,279,o),
(574,358,o),
(599,497,cs),
(622,628,o),
(534,705,o),
(384,705,cs),
(157,705,l),
(33,-2,l)
);
},
{
closed = 1;
nodes = (
(230,629,l),
(364,629,ls),
(473,629,o),
(528,585,o),
(512,493,cs),
(496,405,o),
(423,355,o),
(314,355,cs),
(182,355,l)
);
}
);
width = 588;
}
);
unicode = 929;
},
{
glyphname = Sigma;
lastChange = "2025-10-31 11:39:54 +0000";
layers = (
{
layerId = "EE0A04B7-467B-4BD9-A2DD-E8921F00673F";
shapes = (
{
closed = 1;
nodes = (
(528,0,l),
(557,164,l),
(246,164,l),
(447,351,l),
(322,536,l),
(611,536,l),
(639,700,l),
(82,700,l),
(58,559,l),
(200,351,l),
(-26,141,l),
(-51,0,l)
);
}
);
width = 614;
},
{
layerId = "179DD43A-A894-42A9-B4B6-A7F9368B08A7";
shapes = (
{
closed = 1;
nodes = (
(546,0,l),
(562,90,l),
(116,90,l),
(400,354,l),
(215,614,l),
(648,614,l),
(664,704,l),
(101,704,l),
(86,620,l),
(272,354,l),
(-21,84,l),
(-36,0,l)
);
}
);
width = 628;
},
{
layerId = "7F84CDEE-FC45-41A5-88A7-11DFAD5E6C3A";
shapes = (
{
closed = 1;
nodes = (
(549,0,l),
(562,75,l),
(90,75,l),
(391,355,l),
(194,630,l),
(656,630,l),
(669,705,l),
(104,705,l),
(91,632,l),
(287,355,l),
(-20,72,l),
(-33,0,l)
);
}
);
width = 631;
}
);
unicode = 931;
},
{
glyphname = Tau;
lastChange = "2025-10-31 11:39:54 +0000";
layers = (
{
layerId = "EE0A04B7-467B-4BD9-A2DD-E8921F00673F";
shapes = (
{
closed = 1;
nodes = (
(368,0,l),
(461,530,l),
(671,530,l),
(701,700,l),
(87,700,l),
(57,530,l),
(267,530,l),
(174,0,l)
);
}
);
width = 637;
},
{
layerId = "179DD43A-A894-42A9-B4B6-A7F9368B08A7";
shapes = (
{
closed = 1;
nodes = (
(274,0,l),
(382,613,l),
(592,613,l),
(608,704,l),
(86,704,l),
(70,613,l),
(280,613,l),
(172,0,l)
);
}
);
width = 540;
},
{
layerId = "7F84CDEE-FC45-41A5-88A7-11DFAD5E6C3A";
shapes = (
{
closed = 1;
nodes = (
(255,0,l),
(366,629,l),
(576,629,l),
(589,705,l),
(85,705,l),
(72,629,l),
(282,629,l),
(171,0,l)
);
}
);
width = 520;
}
);
unicode = 932;
},
{
color = 1;
glyphname = Upsilon;
lastChange = "2025-10-31 11:39:54 +0000";
layers = (
{
anchors = (
{
name = top;
pos = (435,712);
},
{
name = topleft;
pos = (98,712);
}
);
layerId = "EE0A04B7-467B-4BD9-A2DD-E8921F00673F";
shapes = (
{
closed = 1;
nodes = (
(407,0,l),
(454,265,l),
(796,700,l),
(579,700,l),
(389,445,l),
(290,700,l),
(69,700,l),
(258,262,l),
(212,0,l)
);
}
);
width = 713;
},
{
anchors = (
{
name = top;
pos = (396,712);
},
{
name = topleft;
pos = (98,712);
}
);
layerId = "179DD43A-A894-42A9-B4B6-A7F9368B08A7";
shapes = (
{
closed = 1;
nodes = (
(323,0,l),
(372,278,l),
(716,704,l),
(601,704,l),
(340,373,l),
(194,704,l),
(74,704,l),
(269,277,l),
(220,0,l)
);
}
);
width = 636;
},
{
anchors = (
{
name = top;
pos = (389,712);
},
{
name = topleft;
pos = (98,712);
}
);
layerId = "7F84CDEE-FC45-41A5-88A7-11DFAD5E6C3A";
shapes = (
{
closed = 1;
nodes = (
(306,0,l),
(356,281,l),
(700,705,l),
(605,705,l),
(330,358,l),
(175,705,l),
(75,705,l),
(271,280,l),
(222,0,l)
);
}
);
width = 621;
}
);
unicode = 933;
},
{
glyphname = Phi;
lastChange = "2025-10-31 11:39:54 +0000";
layers = (
{
layerId = "EE0A04B7-467B-4BD9-A2DD-E8921F00673F";
shapes = (
{
closed = 1;
nodes = (
(529,-5,l),
(539,51,l),
(543,51,o),
(546,51,o),
(550,51,cs),
(767,51,o),
(918,181,o),
(949,357,cs),
(979,529,o),
(874,659,o),
(657,659,cs),
(653,659,o),
(650,659,o),
(646,659,c),
(654,705,l),
(470,705,l),
(462,659,l),
(458,659,o),
(455,659,o),
(451,659,cs),
(232,659,o),
(80,527,o),
(50,355,cs),
(19,183,o),
(125,51,o),
(344,51,cs),
(348,51,o),
(351,51,o),
(355,51,c),
(345,-5,l)
);
},
{
closed = 1;
nodes = (
(300,215,o),
(231,264,o),
(247,355,cs),
(262,444,o),
(349,492,o),
(433,492,c),
(384,215,l)
);
},
{
closed = 1;
nodes = (
(617,492,l),
(702,492,o),
(766,436,o),
(751,353,cs),
(737,270,o),
(649,215,o),
(568,215,c)
);
}
);
width = 967;
},
{
layerId = "179DD43A-A894-42A9-B4B6-A7F9368B08A7";
shapes = (
{
closed = 1;
nodes = (
(444,-5,l),
(454,52,l),
(471,53,o),
(487,54,o),
(502,57,c),
(701,84,o),
(824,204,o),
(850,353,cs),
(876,498,o),
(796,623,o),
(606,647,c),
(592,650,o),
(577,652,o),
(560,652,c),
(570,709,l),
(469,709,l),
(459,652,l),
(443,652,o),
(428,650,o),
(411,647,c),
(210,623,o),
(86,500,o),
(60,351,cs),
(34,202,o),
(114,81,o),
(307,57,c),
(323,54,o),
(337,53,o),
(353,52,c),
(343,-5,l)
);
},
{
closed = 1;
nodes = (
(214,154,o),
(144,234,o),
(165,353,cs),
(186,469,o),
(284,552,o),
(443,560,c),
(369,143,l)
);
},
{
closed = 1;
nodes = (
(544,560,l),
(702,549,o),
(764,466,o),
(744,350,cs),
(723,234,o),
(632,154,o),
(470,143,c)
);
}
);
width = 880;
},
{
layerId = "7F84CDEE-FC45-41A5-88A7-11DFAD5E6C3A";
shapes = (
{
closed = 1;
nodes = (
(427,-5,l),
(437,52,l),
(456,53,o),
(475,55,o),
(492,58,cs),
(687,90,o),
(805,208,o),
(830,352,cs),
(855,492,o),
(780,616,o),
(596,645,cs),
(579,648,o),
(562,650,o),
(543,651,c),
(553,710,l),
(469,710,l),
(459,651,l),
(440,650,o),
(422,648,o),
(403,645,cs),
(206,616,o),
(87,495,o),
(62,350,cs),
(36,205,o),
(112,87,o),
(299,58,cs),
(318,55,o),
(334,53,o),
(353,52,c),
(343,-5,l)
);
},
{
closed = 1;
nodes = (
(197,142,o),
(127,228,o),
(149,352,cs),
(171,475,o),
(271,563,o),
(445,574,c),
(367,129,l)
);
},
{
closed = 1;
nodes = (
(529,574,l),
(702,561,o),
(764,472,o),
(743,349,cs),
(721,227,o),
(629,142,o),
(451,129,c)
);
}
);
width = 862;
}
);
unicode = 934;
},
{
glyphname = Chi;
lastChange = "2025-10-31 11:39:54 +0000";
layers = (
{
layerId = "EE0A04B7-467B-4BD9-A2DD-E8921F00673F";
shapes = (
{
closed = 1;
nodes = (
(171,0,l),
(343,211,l),
(440,0,l),
(663,0,l),
(486,358,l),
(776,700,l),
(558,700,l),
(399,503,l),
(309,700,l),
(86,700,l),
(256,356,l),
(-47,0,l)
);
}
);
width = 710;
},
{
layerId = "179DD43A-A894-42A9-B4B6-A7F9368B08A7";
shapes = (
{
closed = 1;
nodes = (
(80,0,l),
(323,282,l),
(467,0,l),
(585,0,l),
(398,362,l),
(696,704,l),
(580,704,l),
(353,439,l),
(217,704,l),
(97,704,l),
(277,360,l),
(-39,0,l)
);
}
);
width = 641;
},
{
layerId = "7F84CDEE-FC45-41A5-88A7-11DFAD5E6C3A";
shapes = (
{
closed = 1;
nodes = (
(62,0,l),
(318,296,l),
(472,0,l),
(569,0,l),
(380,363,l),
(680,705,l),
(584,705,l),
(344,426,l),
(198,705,l),
(99,705,l),
(282,361,l),
(-37,0,l)
);
}
);
width = 627;
}
);
unicode = 935;
},
{
glyphname = Psi;
lastChange = "2025-10-31 11:39:54 +0000";
layers = (
{
layerId = "EE0A04B7-467B-4BD9-A2DD-E8921F00673F";
shapes = (
{
closed = 1;
nodes = (
(524,0,l),
(546,127,l),
(757,127,o),
(894,241,o),
(932,452,cs),
(975,700,l),
(780,700,l),
(737,451,ls),
(719,350,o),
(658,302,o),
(579,302,c),
(649,700,l),
(454,700,l),
(384,302,l),
(305,302,o),
(262,350,o),
(280,451,cs),
(323,700,l),
(128,700,l),
(84,447,ls),
(48,243,o),
(151,127,o),
(351,127,c),
(329,0,l)
);
}
);
width = 952;
},
{
layerId = "179DD43A-A894-42A9-B4B6-A7F9368B08A7";
shapes = (
{
closed = 1;
nodes = (
(412,0,l),
(436,134,l),
(613,134,o),
(740,231,o),
(778,445,cs),
(824,704,l),
(722,704,l),
(676,440,ls),
(651,298,o),
(580,228,o),
(451,228,c),
(535,704,l),
(433,704,l),
(349,228,l),
(220,228,o),
(176,298,o),
(201,440,cs),
(247,704,l),
(145,704,l),
(99,444,ls),
(61,231,o),
(159,134,o),
(333,134,c),
(309,0,l)
);
}
);
width = 816;
},
{
layerId = "7F84CDEE-FC45-41A5-88A7-11DFAD5E6C3A";
shapes = (
{
closed = 1;
nodes = (
(389,0,l),
(413,135,l),
(584,135,o),
(712,240,o),
(748,443,cs),
(794,702,l),
(710,705,l),
(663,438,ls),
(639,300,o),
(565,213,o),
(426,213,c),
(512,705,l),
(428,705,l),
(342,213,l),
(203,213,o),
(161,300,o),
(185,438,cs),
(232,705,l),
(148,705,l),
(102,443,ls),
(66,240,o),
(160,135,o),
(329,135,c),
(305,0,l)
);
}
);
width = 789;
}
);
unicode = 936;
},
{
glyphname = Omega;
lastChange = "2025-10-31 11:39:54 +0000";
layers = (
{
anchors = (
{
name = bottom;
pos = (384,0);
},
{
name = topleft;
pos = (288,712);
}
);
layerId = "EE0A04B7-467B-4BD9-A2DD-E8921F00673F";
shapes = (
{
closed = 1;
nodes = (
(354,2,l),
(385,177,l),
(310,209,o),
(282,282,o),
(297,367,cs),
(313,462,o),
(375,539,o),
(477,539,cs),
(581,539,o),
(618,466,o),
(601,367,cs),
(586,281,o),
(532,212,o),
(445,177,c),
(414,2,l),
(765,2,l),
(794,167,l),
(631,167,l),
(724,205,o),
(791,317,o),
(806,405,cs),
(843,610,o),
(702,714,o),
(510,714,cs),
(318,714,o),
(141,610,o),
(104,405,cs),
(89,317,o),
(118,205,o),
(195,167,c),
(32,167,l),
(3,2,l)
);
}
);
width = 862;
},
{
anchors = (
{
name = bottom;
pos = (387,0);
},
{
name = topleft;
pos = (238,712);
}
);
layerId = "179DD43A-A894-42A9-B4B6-A7F9368B08A7";
shapes = (
{
closed = 1;
nodes = (
(327,0,l),
(343,93,l),
(243,151,o),
(185,244,o),
(208,372,cs),
(234,521,o),
(349,625,o),
(498,625,cs),
(648,625,o),
(724,519,o),
(698,372,cs),
(675,242,o),
(588,156,o),
(468,93,c),
(452,0,l),
(755,0,l),
(771,91,l),
(596,91,l),
(706,153,o),
(784,261,o),
(805,378,cs),
(841,582,o),
(716,718,o),
(516,718,cs),
(320,718,o),
(139,582,o),
(103,381,cs),
(83,264,o),
(122,153,o),
(210,91,c),
(35,91,l),
(19,0,l)
);
}
);
width = 868;
},
{
anchors = (
{
name = bottom;
pos = (388,0);
},
{
name = topleft;
pos = (278,712);
}
);
layerId = "7F84CDEE-FC45-41A5-88A7-11DFAD5E6C3A";
shapes = (
{
closed = 1;
nodes = (
(321,0,l),
(334,76,l),
(230,141,o),
(165,235,o),
(190,373,cs),
(218,533,o),
(342,642,o),
(502,642,cs),
(661,642,o),
(744,530,o),
(717,373,cs),
(690,221,o),
(600,157,o),
(472,76,c),
(465,0,l),
(753,0,l),
(766,76,l),
(589,76,l),
(702,143,o),
(782,250,o),
(804,373,cs),
(840,576,o),
(719,719,o),
(517,719,cs),
(321,719,o),
(139,576,o),
(103,376,cs),
(82,253,o),
(121,142,o),
(212,76,c),
(35,76,l),
(22,0,l)
);
}
);
width = 869;
}
);
unicode = 937;
},
{
glyphname = Upsilondieresis;
lastChange = "2025-11-13 10:44:37 +0000";
layers = (
{
layerId = "EE0A04B7-467B-4BD9-A2DD-E8921F00673F";
shapes = (
{
closed = 1;
nodes = (
(407,0,l),
(454,265,l),
(796,700,l),
(579,700,l),
(389,445,l),
(290,700,l),
(69,700,l),
(258,262,l),
(212,0,l)
);
},
{
closed = 1;
nodes = (
(386,794,o),
(430,824,o),
(440,880,cs),
(450,936,o),
(416,965,o),
(367,965,cs),
(338,965,o),
(278,952,o),
(264,880,cs),
(254,824,o),
(288,794,o),
(337,794,cs)
);
},
{
closed = 1;
nodes = (
(612,794,o),
(656,824,o),
(666,880,cs),
(676,936,o),
(642,965,o),
(593,965,cs),
(564,965,o),
(504,952,o),
(490,880,cs),
(480,824,o),
(514,794,o),
(563,794,cs)
);
}
);
width = 713;
},
{
layerId = "179DD43A-A894-42A9-B4B6-A7F9368B08A7";
shapes = (
{
closed = 1;
nodes = (
(323,0,l),
(372,278,l),
(716,704,l),
(601,704,l),
(340,373,l),
(194,704,l),
(74,704,l),
(269,277,l),
(220,0,l)
);
},
{
closed = 1;
nodes = (
(354,791,o),
(385,818,o),
(392,855,cs),
(398,891,o),
(373,918,o),
(336,918,cs),
(312,918,o),
(272,907,o),
(263,855,cs),
(256,818,o),
(279,793,o),
(316,792,cs)
);
},
{
closed = 1;
nodes = (
(550,791,o),
(581,818,o),
(588,855,cs),
(594,891,o),
(569,918,o),
(532,918,cs),
(508,918,o),
(468,907,o),
(459,855,cs),
(452,818,o),
(475,793,o),
(512,792,cs)
);
}
);
width = 636;
},
{
layerId = "7F84CDEE-FC45-41A5-88A7-11DFAD5E6C3A";
shapes = (
{
closed = 1;
nodes = (
(306,0,l),
(356,281,l),
(700,705,l),
(605,705,l),
(330,358,l),
(175,705,l),
(75,705,l),
(271,280,l),
(223,3,l)
);
},
{
closed = 1;
nodes = (
(347,791,o),
(376,817,o),
(382,850,cs),
(387,882,o),
(368,909,o),
(330,909,cs),
(313,909,o),
(271,903,o),
(263,851,cs),
(258,816,o),
(276,791,o),
(311,791,cs)
);
},
{
closed = 1;
nodes = (
(537,791,o),
(566,817,o),
(572,850,cs),
(577,882,o),
(558,909,o),
(520,909,cs),
(503,909,o),
(461,903,o),
(453,851,cs),
(448,816,o),
(466,791,o),
(501,791,cs)
);
}
);
width = 621;
}
);
unicode = 939;
},
{
glyphname = KaiSymbol;
lastChange = "2025-10-31 11:39:54 +0000";
layers = (
{
layerId = "EE0A04B7-467B-4BD9-A2DD-E8921F00673F";
shapes = (
{
closed = 1;
nodes = (
(456,-252,o),
(661,-135,o),
(685,0,c),
(481,399,l),
(799,700,l),
(569,700,l),
(278,416,l),
(328,700,l),
(134,700,l),
(11,0,l),
(205,0,l),
(270,368,l),
(470,-35,l),
(465,-64,o),
(378,-115,o),
(281,-115,cs),
(195,-115,o),
(88,-74,o),
(39,-40,c),
(12,-190,l),
(85,-230,o),
(173,-252,o),
(260,-252,cs)
);
}
);
width = 724;
},
{
layerId = "179DD43A-A894-42A9-B4B6-A7F9368B08A7";
shapes = (
{
closed = 1;
nodes = (
(392,-212,o),
(528,-113,o),
(548,0,c),
(293,379,l),
(647,704,l),
(518,704,l),
(204,410,l),
(256,704,l),
(153,704,l),
(29,0,l),
(132,0,l),
(191,336,l),
(437,-27,l),
(428,-78,o),
(342,-131,o),
(246,-131,cs),
(181,-131,o),
(101,-100,o),
(45,-63,c),
(27,-163,l),
(94,-194,o),
(156,-212,o),
(231,-212,cs)
);
}
);
width = 593;
},
{
layerId = "7F84CDEE-FC45-41A5-88A7-11DFAD5E6C3A";
shapes = (
{
closed = 1;
nodes = (
(379,-204,o),
(501,-108,o),
(520,0,c),
(255,375,l),
(616,705,l),
(508,705,l),
(189,409,l),
(241,705,l),
(157,705,l),
(33,0,l),
(117,0,l),
(175,330,l),
(431,-25,l),
(421,-81,o),
(333,-134,o),
(239,-134,cs),
(176,-134,o),
(106,-104,o),
(46,-67,c),
(30,-157,l),
(94,-185,o),
(153,-204,o),
(225,-204,cs)
);
}
);
width = 567;
}
);
unicode = 975;
},
{
color = 1;
glyphname = alpha;
lastChange = "2025-10-31 11:39:54 +0000";
layers = (
{
anchors = (
{
name = top;
pos = (385,536);
}
);
layerId = "EE0A04B7-467B-4BD9-A2DD-E8921F00673F";
shapes = (
{
closed = 1;
nodes = (
(297,-12,o),
(339,18,o),
(398,72,c),
(575,0,l),
(670,541,l),
(480,541,l),
(468,469,l),
(435,525,o),
(387,553,o),
(318,553,cs),
(162,553,o),
(54,413,o),
(29,270,cs),
(4,129,o),
(63,-12,o),
(219,-12,cs)
);
},
{
closed = 1;
nodes = (
(240,147,o),
(205,208,o),
(217,279,cs),
(229,347,o),
(275,394,o),
(343,394,cs),
(415,394,o),
(447,336,o),
(436,272,cs),
(425,208,o),
(372,147,o),
(304,147,cs)
);
}
);
width = 676;
},
{
anchors = (
{
name = top;
pos = (356,536);
}
);
layerId = "179DD43A-A894-42A9-B4B6-A7F9368B08A7";
shapes = (
{
closed = 1;
nodes = (
(306,-11,o),
(372,26,o),
(421,85,c),
(506,0,l),
(593,492,l),
(493,492,l),
(478,409,l),
(442,469,o),
(395,504,o),
(316,504,cs),
(170,504,o),
(56,386,o),
(31,246,cs),
(7,107,o),
(81,-11,o),
(225,-11,cs)
);
},
{
closed = 1;
nodes = (
(150,74,o),
(115,155,o),
(133,256,cs),
(151,360,o),
(226,419,o),
(322,419,cs),
(417,419,o),
(471,338,o),
(455,247,cs),
(438,155,o),
(346,74,o),
(246,74,cs)
);
}
);
width = 618;
},
{
anchors = (
{
name = top;
pos = (350,536);
}
);
layerId = "7F84CDEE-FC45-41A5-88A7-11DFAD5E6C3A";
shapes = (
{
closed = 1;
nodes = (
(306,-11,o),
(365,27,o),
(424,87,c),
(491,0,l),
(576,482,l),
(494,482,l),
(479,397,l),
(443,458,o),
(394,494,o),
(314,494,cs),
(170,494,o),
(55,381,o),
(30,241,cs),
(6,103,o),
(84,-11,o),
(225,-11,cs)
);
},
{
closed = 1;
nodes = (
(149,59,o),
(97,145,o),
(115,251,cs),
(135,363,o),
(213,424,o),
(316,424,cs),
(406,424,o),
(474,338,o),
(457,242,cs),
(440,145,o),
(350,59,o),
(250,59,cs)
);
}
);
width = 606;
}
);
unicode = 945;
},
{
glyphname = beta;
lastChange = "2025-10-31 11:39:54 +0000";
layers = (
{
layerId = "EE0A04B7-467B-4BD9-A2DD-E8921F00673F";
shapes = (
{
closed = 1;
nodes = (
(166,-160,l),
(206,70,l),
(234,29,o),
(278,-12,o),
(361,-12,cs),
(479,-12,o),
(591,55,o),
(616,199,cs),
(634,300,o),
(588,358,o),
(509,382,c),
(573,405,o),
(626,454,o),
(639,530,cs),
(660,646,o),
(579,737,o),
(414,737,cs),
(241,737,o),
(116,633,o),
(88,477,cs),
(-24,-160,l)
);
},
{
closed = 1;
nodes = (
(272,147,o),
(228,193,o),
(242,270,cs),
(278,479,ls),
(290,542,o),
(337,576,o),
(383,576,cs),
(420,576,o),
(458,554,o),
(448,499,cs),
(443,470,o),
(424,416,o),
(352,416,c),
(335,315,l),
(419,315,o),
(444,276,o),
(435,229,cs),
(427,184,o),
(385,147,o),
(334,147,cs)
);
}
);
width = 657;
},
{
layerId = "179DD43A-A894-42A9-B4B6-A7F9368B08A7";
shapes = (
{
closed = 1;
nodes = (
(85,-183,l),
(131,82,l),
(165,26,o),
(225,-10,o),
(305,-10,cs),
(423,-10,o),
(540,59,o),
(565,204,cs),
(583,304,o),
(535,379,o),
(432,390,c),
(513,423,o),
(570,471,o),
(584,551,cs),
(603,660,o),
(529,736,o),
(392,736,cs),
(227,736,o),
(128,628,o),
(105,499,cs),
(-15,-183,l)
);
},
{
closed = 1;
nodes = (
(222,76,o),
(140,130,o),
(160,246,cs),
(205,498,ls),
(219,577,o),
(276,649,o),
(375,649,cs),
(447,649,o),
(495,611,o),
(482,539,cs),
(469,467,o),
(406,428,o),
(319,415,c),
(307,347,l),
(430,340,o),
(479,288,o),
(465,209,cs),
(451,132,o),
(384,76,o),
(308,76,cs)
);
}
);
width = 610;
},
{
layerId = "7F84CDEE-FC45-41A5-88A7-11DFAD5E6C3A";
shapes = (
{
closed = 1;
nodes = (
(69,-188,l),
(117,84,l),
(150,25,o),
(214,-10,o),
(294,-10,cs),
(422,-10,o),
(529,60,o),
(554,205,cs),
(571,303,o),
(524,384,o),
(416,392,c),
(499,427,o),
(559,474,o),
(573,555,cs),
(592,664,o),
(519,736,o),
(388,736,cs),
(223,736,o),
(131,627,o),
(109,503,cs),
(-13,-188,l)
);
},
{
closed = 1;
nodes = (
(210,62,o),
(123,117,o),
(144,241,cs),
(191,502,ls),
(205,584,o),
(266,664,o),
(374,664,cs),
(453,664,o),
(501,621,o),
(488,547,cs),
(474,466,o),
(404,431,o),
(312,415,c),
(301,353,l),
(432,346,o),
(486,289,o),
(471,205,cs),
(456,121,o),
(383,62,o),
(303,62,cs)
);
}
);
width = 600;
}
);
unicode = 946;
},
{
glyphname = gamma;
lastChange = "2025-10-31 11:39:54 +0000";
layers = (
{
layerId = "EE0A04B7-467B-4BD9-A2DD-E8921F00673F";
shapes = (
{
closed = 1;
nodes = (
(317,-160,l),
(348,19,l),
(647,541,l),
(450,541,l),
(291,225,l),
(242,541,l),
(42,541,l),
(158,16,l),
(127,-160,l)
);
}
);
width = 594;
},
{
layerId = "179DD43A-A894-42A9-B4B6-A7F9368B08A7";
shapes = (
{
closed = 1;
nodes = (
(219,-183,l),
(252,5,l),
(540,491,l),
(435,491,l),
(222,113,l),
(143,491,l),
(35,491,l),
(152,3,l),
(119,-183,l)
);
}
);
width = 497;
},
{
layerId = "7F84CDEE-FC45-41A5-88A7-11DFAD5E6C3A";
shapes = (
{
closed = 1;
nodes = (
(200,-188,l),
(233,2,l),
(519,481,l),
(433,481,l),
(209,91,l),
(124,481,l),
(34,481,l),
(151,0,l),
(118,-188,l)
);
}
);
width = 477;
}
);
unicode = 947;
},
{
glyphname = delta;
lastChange = "2025-10-31 11:39:54 +0000";
layers = (
{
layerId = "EE0A04B7-467B-4BD9-A2DD-E8921F00673F";
shapes = (
{
closed = 1;
nodes = (
(453,-13,o),
(593,102,o),
(620,256,cs),
(641,374,o),
(598,456,o),
(509,520,cs),
(421,584,l),
(591,584,l),
(618,735,l),
(170,735,l),
(143,584,l),
(314,487,l),
(196,500,o),
(55,409,o),
(28,254,cs),
(2,110,o),
(100,-13,o),
(276,-13,cs)
);
},
{
closed = 1;
nodes = (
(239,148,o),
(203,197,o),
(213,256,cs),
(222,308,o),
(270,363,o),
(341,363,cs),
(417,363,o),
(445,310,o),
(435,254,cs),
(425,198,o),
(374,148,o),
(306,148,cs)
);
}
);
width = 652;
},
{
layerId = "179DD43A-A894-42A9-B4B6-A7F9368B08A7";
shapes = (
{
closed = 1;
nodes = (
(397,-11,o),
(534,100,o),
(559,244,cs),
(579,357,o),
(520,431,o),
(454,498,cs),
(303,652,l),
(560,652,l),
(575,736,l),
(168,736,l),
(153,652,l),
(336,480,l),
(190,493,o),
(54,381,o),
(30,243,cs),
(4,99,o),
(101,-11,o),
(248,-11,cs)
);
},
{
closed = 1;
nodes = (
(164,74,o),
(114,154,o),
(130,243,cs),
(146,335,o),
(230,400,o),
(328,400,cs),
(437,400,o),
(477,335,o),
(459,242,cs),
(442,158,o),
(363,74,o),
(264,74,cs)
);
}
);
width = 596;
},
{
layerId = "7F84CDEE-FC45-41A5-88A7-11DFAD5E6C3A";
shapes = (
{
closed = 1;
nodes = (
(385,-10,o),
(522,101,o),
(546,241,cs),
(566,354,o),
(505,427,o),
(443,493,cs),
(279,666,l),
(553,666,l),
(566,736,l),
(168,736,l),
(155,666,l),
(340,478,l),
(188,491,o),
(54,375,o),
(30,241,cs),
(5,97,o),
(102,-10,o),
(242,-10,cs)
);
},
{
closed = 1;
nodes = (
(150,59,o),
(97,145,o),
(113,240,cs),
(131,340,o),
(222,407,o),
(325,407,cs),
(443,407,o),
(479,320,o),
(463,240,cs),
(445,149,o),
(360,59,o),
(255,59,cs)
);
}
);
width = 585;
}
);
unicode = 948;
},
{
color = 1;
glyphname = epsilon;
lastChange = "2025-10-31 11:39:54 +0000";
layers = (
{
anchors = (
{
name = top;
pos = (314,536);
}
);
layerId = "EE0A04B7-467B-4BD9-A2DD-E8921F00673F";
shapes = (
{
closed = 1;
nodes = (
(299,-13,o),
(381,3,o),
(459,38,c),
(453,192,l),
(370,156,o),
(322,148,o),
(274,148,cs),
(243,148,o),
(195,153,o),
(199,175,cs),
(202,192,o),
(223,203,o),
(279,203,cs),
(364,203,l),
(388,340,l),
(327,340,ls),
(287,340,o),
(250,343,o),
(255,366,cs),
(258,383,o),
(287,392,o),
(322,392,cs),
(353,392,o),
(400,386,o),
(458,347,c),
(531,493,l),
(470,537,o),
(400,553,o),
(332,553,cs),
(208,553,o),
(94,506,o),
(75,399,cs),
(65,343,o),
(91,302,o),
(144,279,c),
(68,259,o),
(20,212,o),
(10,152,cs),
(-9,44,o),
(102,-13,o),
(230,-13,cs)
);
}
);
width = 534;
},
{
anchors = (
{
name = top;
pos = (266,536);
}
);
layerId = "179DD43A-A894-42A9-B4B6-A7F9368B08A7";
shapes = (
{
closed = 1;
nodes = (
(242,-11,o),
(296,0,o),
(351,23,c),
(346,107,l),
(290,82,o),
(248,74,o),
(213,74,cs),
(168,74,o),
(102,86,o),
(113,146,cs),
(120,185,o),
(164,220,o),
(255,220,cs),
(295,220,l),
(309,299,l),
(273,299,ls),
(202,299,o),
(165,324,o),
(172,364,cs),
(179,400,o),
(219,420,o),
(270,420,cs),
(305,420,o),
(344,412,o),
(379,385,c),
(420,471,l),
(376,492,o),
(331,504,o),
(280,504,cs),
(179,504,o),
(89,458,o),
(74,375,cs),
(65,326,o),
(88,281,o),
(147,258,c),
(71,241,o),
(22,196,o),
(11,137,cs),
(-4,50,o),
(80,-11,o),
(191,-11,cs)
);
}
);
width = 437;
},
{
anchors = (
{
name = top;
pos = (256,536);
}
);
layerId = "7F84CDEE-FC45-41A5-88A7-11DFAD5E6C3A";
shapes = (
{
closed = 1;
nodes = (
(229,-10,o),
(278,1,o),
(329,20,c),
(323,90,l),
(274,66,o),
(230,59,o),
(199,59,cs),
(153,59,o),
(83,74,o),
(95,140,cs),
(102,183,o),
(152,223,o),
(249,223,cs),
(280,223,l),
(292,291,l),
(260,291,ls),
(184,291,o),
(146,320,o),
(154,364,cs),
(161,403,o),
(205,425,o),
(258,425,cs),
(294,425,o),
(331,416,o),
(362,393,c),
(396,466,l),
(356,483,o),
(315,494,o),
(268,494,cs),
(172,494,o),
(86,447,o),
(72,370,cs),
(64,322,o),
(87,277,o),
(147,254,c),
(71,237,o),
(21,191,o),
(11,134,cs),
(-4,50,o),
(74,-10,o),
(182,-10,cs)
);
}
);
width = 418;
}
);
unicode = 949;
},
{
glyphname = zeta;
lastChange = "2025-10-31 11:39:54 +0000";
layers = (
{
layerId = "EE0A04B7-467B-4BD9-A2DD-E8921F00673F";
shapes = (
{
closed = 1;
nodes = (
(393,-119,o),
(419,-72,o),
(428,-21,cs),
(442,54,o),
(412,103,o),
(310,131,cs),
(229,153,o),
(198,189,o),
(210,253,cs),
(230,366,o),
(353,493,o),
(538,596,c),
(563,735,l),
(160,735,l),
(133,585,l),
(303,585,l),
(144,481,o),
(46,360,o),
(25,239,cs),
(0,96,o),
(79,25,o),
(197,-7,cs),
(245,-20,o),
(256,-41,o),
(251,-67,cs),
(246,-96,o),
(223,-130,o),
(204,-154,c),
(361,-167,l)
);
}
);
width = 480;
},
{
layerId = "179DD43A-A894-42A9-B4B6-A7F9368B08A7";
shapes = (
{
closed = 1;
nodes = (
(329,-140,o),
(345,-109,o),
(352,-70,cs),
(363,-5,o),
(337,52,o),
(238,72,cs),
(140,91,o),
(113,147,o),
(126,224,cs),
(153,374,o),
(308,542,o),
(482,641,c),
(499,736,l),
(163,736,l),
(148,653,l),
(382,653,l),
(175,524,o),
(52,371,o),
(26,220,cs),
(2,84,o),
(70,14,o),
(187,-8,cs),
(253,-20,o),
(258,-52,o),
(252,-84,cs),
(249,-104,o),
(239,-131,o),
(222,-158,c),
(314,-167,l)
);
}
);
width = 416;
},
{
layerId = "7F84CDEE-FC45-41A5-88A7-11DFAD5E6C3A";
shapes = (
{
closed = 1;
nodes = (
(316,-144,o),
(330,-115,o),
(336,-80,cs),
(347,-15,o),
(321,43,o),
(223,60,cs),
(121,79,o),
(95,137,o),
(109,218,cs),
(137,376,o),
(298,553,o),
(471,650,c),
(486,736,l),
(163,736,l),
(150,666,l),
(397,666,l),
(182,533,o),
(54,373,o),
(26,216,cs),
(2,81,o),
(68,12,o),
(185,-8,cs),
(253,-20,o),
(258,-55,o),
(253,-87,c),
(249,-106,o),
(242,-131,o),
(226,-159,c),
(305,-167,l)
);
}
);
width = 403;
}
);
unicode = 950;
},
{
color = 1;
glyphname = eta;
lastChange = "2025-10-31 11:39:54 +0000";
layers = (
{
anchors = (
{
name = top;
pos = (365,536);
}
);
layerId = "EE0A04B7-467B-4BD9-A2DD-E8921F00673F";
shapes = (
{
closed = 1;
nodes = (
(194,0,l),
(246,293,ls),
(256,352,o),
(299,384,o),
(342,384,cs),
(385,384,o),
(412,352,o),
(402,293,cs),
(350,0,l),
(540,0,l),
(602,354,ls),
(626,487,o),
(547,553,o),
(453,553,cs),
(376,553,o),
(319,510,o),
(276,465,c),
(99,541,l),
(4,0,l)
);
}
);
width = 635;
},
{
anchors = (
{
name = top;
pos = (326,536);
}
);
layerId = "179DD43A-A894-42A9-B4B6-A7F9368B08A7";
shapes = (
{
closed = 1;
nodes = (
(117,0,l),
(167,282,ls),
(185,383,o),
(261,415,o),
(314,415,cs),
(368,415,o),
(419,382,o),
(402,282,cs),
(352,0,l),
(452,0,l),
(507,312,ls),
(530,445,o),
(461,503,o),
(365,503,cs),
(296,503,o),
(238,472,o),
(194,428,c),
(104,492,l),
(17,0,l)
);
}
);
width = 558;
},
{
anchors = (
{
name = top;
pos = (318,536);
}
);
layerId = "7F84CDEE-FC45-41A5-88A7-11DFAD5E6C3A";
shapes = (
{
closed = 1;
nodes = (
(102,0,l),
(151,280,ls),
(171,390,o),
(253,421,o),
(308,421,cs),
(365,421,o),
(420,388,o),
(401,280,cs),
(352,0,l),
(434,0,l),
(487,303,ls),
(511,435,o),
(442,493,o),
(347,493,cs),
(278,493,o),
(222,464,o),
(178,421,c),
(105,482,l),
(20,0,l)
);
}
);
width = 542;
}
);
unicode = 951;
},
{
glyphname = theta;
lastChange = "2025-10-31 11:39:54 +0000";
layers = (
{
layerId = "EE0A04B7-467B-4BD9-A2DD-E8921F00673F";
shapes = (
{
closed = 1;
nodes = (
(481,-13,o),
(588,187,o),
(620,367,cs),
(658,586,o),
(597,737,o),
(402,737,cs),
(222,737,o),
(89,588,o),
(49,361,cs),
(17,183,o),
(58,-13,o),
(268,-13,cs)
);
},
{
closed = 1;
nodes = (
(226,148,o),
(224,239,o),
(225,290,c),
(417,290,l),
(403,237,o),
(362,148,o),
(294,148,cs)
);
},
{
closed = 1;
nodes = (
(270,493,o),
(305,576,o),
(372,576,cs),
(439,576,o),
(444,492,o),
(443,441,c),
(253,441,l)
);
}
);
width = 636;
},
{
layerId = "179DD43A-A894-42A9-B4B6-A7F9368B08A7";
shapes = (
{
closed = 1;
nodes = (
(456,-11,o),
(550,200,o),
(580,367,cs),
(615,568,o),
(565,736,o),
(383,736,cs),
(186,736,o),
(85,536,o),
(53,357,cs),
(24,194,o),
(52,-11,o),
(250,-11,cs)
);
},
{
closed = 1;
nodes = (
(179,74,o),
(131,172,o),
(152,335,c),
(472,335,l),
(452,240,o),
(389,74,o),
(265,74,cs)
);
},
{
closed = 1;
nodes = (
(187,506,o),
(252,652,o),
(367,652,cs),
(481,652,o),
(498,508,o),
(487,417,c),
(167,417,l)
);
}
);
width = 599;
},
{
layerId = "7F84CDEE-FC45-41A5-88A7-11DFAD5E6C3A";
shapes = (
{
closed = 1;
nodes = (
(450,-10,o),
(543,202,o),
(572,367,cs),
(606,566,o),
(561,736,o),
(379,736,cs),
(179,736,o),
(84,525,o),
(54,356,cs),
(26,196,o),
(50,-10,o),
(246,-10,cs)
);
},
{
closed = 1;
nodes = (
(170,59,o),
(112,158,o),
(137,344,c),
(483,344,l),
(461,241,o),
(394,59,o),
(259,59,cs)
);
},
{
closed = 1;
nodes = (
(171,509,o),
(242,667,o),
(366,667,cs),
(490,667,o),
(507,511,o),
(495,412,c),
(149,412,l)
);
}
);
width = 592;
}
);
unicode = 952;
},
{
color = 1;
glyphname = iota;
lastChange = "2025-10-31 11:39:54 +0000";
layers = (
{
anchors = (
{
name = top;
pos = (192,536);
}
);
layerId = "EE0A04B7-467B-4BD9-A2DD-E8921F00673F";
shapes = (
{
closed = 1;
nodes = (
(194,0,l),
(289,541,l),
(99,541,l),
(4,0,l)
);
}
);
width = 289;
},
{
anchors = (
{
name = top;
pos = (159,536);
}
);
layerId = "179DD43A-A894-42A9-B4B6-A7F9368B08A7";
shapes = (
{
closed = 1;
nodes = (
(117,0,l),
(204,492,l),
(104,492,l),
(17,0,l)
);
}
);
width = 224;
},
{
anchors = (
{
name = top;
pos = (151,536);
}
);
layerId = "7F84CDEE-FC45-41A5-88A7-11DFAD5E6C3A";
shapes = (
{
closed = 1;
nodes = (
(101,0,l),
(186,482,l),
(105,482,l),
(20,0,l)
);
}
);
width = 208;
}
);
unicode = 953;
},
{
glyphname = kappa;
lastChange = "2025-10-31 11:39:54 +0000";
layers = (
{
layerId = "EE0A04B7-467B-4BD9-A2DD-E8921F00673F";
shapes = (
{
closed = 1;
nodes = (
(194,0,l),
(244,283,l),
(352,0,l),
(561,0,l),
(425,324,l),
(651,541,l),
(436,541,l),
(257,360,l),
(289,541,l),
(99,541,l),
(4,0,l)
);
}
);
width = 609;
},
{
layerId = "179DD43A-A894-42A9-B4B6-A7F9368B08A7";
shapes = (
{
closed = 1;
nodes = (
(117,0,l),
(157,227,l),
(308,0,l),
(427,0,l),
(252,266,l),
(506,492,l),
(382,492,l),
(169,294,l),
(204,492,l),
(104,492,l),
(17,0,l)
);
}
);
width = 480;
},
{
layerId = "7F84CDEE-FC45-41A5-88A7-11DFAD5E6C3A";
shapes = (
{
closed = 1;
nodes = (
(102,0,l),
(140,216,l),
(299,0,l),
(400,0,l),
(217,254,l),
(476,482,l),
(371,482,l),
(152,281,l),
(187,482,l),
(105,482,l),
(20,0,l)
);
}
);
width = 454;
}
);
unicode = 954;
},
{
glyphname = lambda;
lastChange = "2025-10-31 11:39:54 +0000";
layers = (
{
layerId = "EE0A04B7-467B-4BD9-A2DD-E8921F00673F";
shapes = (
{
closed = 1;
nodes = (
(148,0,l),
(313,326,l),
(358,0,l),
(553,0,l),
(448,528,ls),
(427,633,o),
(405,737,o),
(272,737,cs),
(212,737,o),
(152,718,o),
(96,690,c),
(109,546,l),
(142,565,o),
(178,586,o),
(214,586,cs),
(245,586,o),
(260,562,o),
(255,532,c),
(255,531,l),
(-51,0,l)
);
}
);
width = 596;
},
{
layerId = "179DD43A-A894-42A9-B4B6-A7F9368B08A7";
shapes = (
{
closed = 1;
nodes = (
(65,0,l),
(276,397,l),
(361,0,l),
(466,0,l),
(324,593,ls),
(307,661,o),
(289,736,o),
(203,736,cs),
(174,736,o),
(146,730,o),
(116,722,c),
(125,642,l),
(143,651,o),
(161,659,o),
(176,659,cs),
(223,659,o),
(241,535,o),
(245,513,c),
(245,512,l),
(-43,0,l)
);
}
);
width = 510;
},
{
layerId = "7F84CDEE-FC45-41A5-88A7-11DFAD5E6C3A";
shapes = (
{
closed = 1;
nodes = (
(48,0,l),
(268,411,l),
(362,0,l),
(448,0,l),
(299,606,ls),
(283,667,o),
(265,736,o),
(189,736,cs),
(166,736,o),
(144,732,o),
(120,728,c),
(129,661,l),
(143,668,o),
(158,673,o),
(169,673,cs),
(218,673,o),
(224,590,o),
(244,509,c),
(244,508,l),
(-41,0,l)
);
}
);
width = 493;
}
);
unicode = 955;
},
{
glyphname = mu;
lastChange = "2025-10-31 11:39:54 +0000";
layers = (
{
layerId = "EE0A04B7-467B-4BD9-A2DD-E8921F00673F";
shapes = (
{
closed = 1;
nodes = (
(162,-160,l),
(196,36,l),
(203,11,o),
(225,-12,o),
(258,-12,cs),
(293,-12,o),
(327,14,o),
(359,74,c),
(536,0,l),
(631,541,l),
(441,541,l),
(390,248,ls),
(379,189,o),
(340,157,o),
(295,157,cs),
(249,157,o),
(223,189,o),
(234,248,cs),
(285,541,l),
(95,541,l),
(-28,-160,l)
);
}
);
width = 634;
},
{
layerId = "179DD43A-A894-42A9-B4B6-A7F9368B08A7";
shapes = (
{
closed = 1;
nodes = (
(90,-183,l),
(132,59,l),
(147,12,o),
(183,-10,o),
(228,-10,cs),
(281,-10,o),
(332,21,o),
(366,64,c),
(456,0,l),
(543,493,l),
(443,493,l),
(393,211,ls),
(377,121,o),
(313,77,o),
(245,77,cs),
(192,77,o),
(142,116,o),
(159,211,cs),
(209,493,l),
(109,493,l),
(-10,-183,l)
);
}
);
width = 576;
},
{
layerId = "7F84CDEE-FC45-41A5-88A7-11DFAD5E6C3A";
shapes = (
{
closed = 1;
nodes = (
(75,-188,l),
(119,64,l),
(135,13,o),
(175,-10,o),
(222,-10,cs),
(278,-10,o),
(333,22,o),
(368,62,c),
(440,0,l),
(525,483,l),
(443,483,l),
(394,204,ls),
(377,107,o),
(308,61,o),
(235,61,cs),
(180,61,o),
(126,101,o),
(144,204,cs),
(193,483,l),
(111,483,l),
(-7,-188,l)
);
}
);
width = 564;
}
);
unicode = 956;
},
{
glyphname = nu;
lastChange = "2025-10-31 11:39:54 +0000";
layers = (
{
layerId = "EE0A04B7-467B-4BD9-A2DD-E8921F00673F";
shapes = (
{
closed = 1;
nodes = (
(382,-4,l),
(694,541,l),
(497,541,l),
(338,225,l),
(289,541,l),
(89,541,l),
(209,-4,l)
);
}
);
width = 595;
},
{
layerId = "179DD43A-A894-42A9-B4B6-A7F9368B08A7";
shapes = (
{
closed = 1;
nodes = (
(301,-1,l),
(593,491,l),
(488,491,l),
(275,113,l),
(196,491,l),
(88,491,l),
(205,-1,l)
);
}
);
width = 506;
},
{
layerId = "7F84CDEE-FC45-41A5-88A7-11DFAD5E6C3A";
shapes = (
{
closed = 1;
nodes = (
(238,0,l),
(525,481,l),
(439,481,l),
(215,91,l),
(130,481,l),
(40,481,l),
(157,0,l)
);
}
);
width = 488;
}
);
unicode = 957;
},
{
glyphname = xi;
lastChange = "2025-11-13 10:44:04 +0000";
layers = (
{
layerId = "EE0A04B7-467B-4BD9-A2DD-E8921F00673F";
shapes = (
{
closed = 1;
nodes = (
(364,-119,o),
(390,-76,o),
(399,-24,cs),
(408,30,o),
(401,106,o),
(288,130,cs),
(219,145,o),
(186,175,o),
(193,216,cs),
(205,284,o),
(289,297,o),
(406,297,c),
(433,449,l),
(324,449,o),
(289,481,o),
(295,514,cs),
(305,571,o),
(393,576,o),
(510,576,c),
(538,735,l),
(132,735,l),
(105,583,l),
(194,583,l),
(153,564,o),
(115,535,o),
(107,490,cs),
(97,433,o),
(145,400,o),
(207,376,c),
(94,349,o),
(21,278,o),
(6,191,cs),
(-17,66,o),
(65,15,o),
(158,-10,cs),
(221,-27,o),
(224,-53,o),
(221,-71,cs),
(216,-99,o),
(195,-130,o),
(176,-154,c),
(332,-167,l)
);
}
);
width = 475;
},
{
layerId = "179DD43A-A894-42A9-B4B6-A7F9368B08A7";
shapes = (
{
closed = 1;
nodes = (
(325,-140,o),
(341,-107,o),
(347,-68,cs),
(357,-5,o),
(340,47,o),
(231,72,cs),
(150,91,o),
(110,131,o),
(123,204,cs),
(141,305,o),
(230,338,o),
(353,338,c),
(367,421,l),
(252,421,o),
(214,461,o),
(225,524,cs),
(244,628,o),
(367,649,o),
(471,649,c),
(487,736,l),
(150,736,l),
(135,652,l),
(259,652,l),
(182,629,o),
(135,578,o),
(124,518,cs),
(114,457,o),
(145,407,o),
(207,380,c),
(116,361,o),
(37,285,o),
(21,192,cs),
(-2,65,o),
(75,21,o),
(172,-6,cs),
(254,-29,o),
(251,-66,o),
(248,-87,cs),
(244,-108,o),
(234,-131,o),
(218,-158,c),
(310,-167,l)
);
}
);
width = 417;
},
{
layerId = "7F84CDEE-FC45-41A5-88A7-11DFAD5E6C3A";
shapes = (
{
closed = 1;
nodes = (
(301,-144,o),
(315,-112,o),
(321,-77,cs),
(332,-13,o),
(293,38,o),
(204,60,cs),
(113,83,o),
(80,122,o),
(94,202,cs),
(112,309,o),
(202,346,o),
(327,346,c),
(339,415,l),
(222,415,o),
(184,457,o),
(196,526,cs),
(216,640,o),
(347,663,o),
(448,663,c),
(461,736,l),
(138,736,l),
(125,666,l),
(256,666,l),
(172,643,o),
(124,587,o),
(112,523,cs),
(101,460,o),
(129,408,o),
(192,381,c),
(105,365,o),
(25,285,o),
(9,192,cs),
(-14,62,o),
(64,20,o),
(152,-3,cs),
(240,-26,o),
(241,-66,o),
(237,-90,cs),
(234,-110,o),
(227,-131,o),
(211,-159,c),
(290,-167,l)
);
}
);
width = 405;
}
);
unicode = 958;
},
{
color = 1;
glyphname = omicron;
lastChange = "2025-10-31 11:39:54 +0000";
layers = (
{
anchors = (
{
name = top;
pos = (376,536);
}
);
layerId = "EE0A04B7-467B-4BD9-A2DD-E8921F00673F";
shapes = (
{
closed = 1;
nodes = (
(471,-13,o),
(600,103,o),
(628,272,cs),
(653,427,o),
(552,553,o),
(379,553,cs),
(206,553,o),
(57,425,o),
(30,270,cs),
(2,115,o),
(105,-13,o),
(278,-13,cs)
);
},
{
closed = 1;
nodes = (
(241,148,o),
(203,205,o),
(215,272,cs),
(226,337,o),
(280,392,o),
(349,392,cs),
(428,392,o),
(455,335,o),
(443,270,cs),
(430,205,o),
(377,148,o),
(308,148,cs)
);
}
);
width = 657;
},
{
anchors = (
{
name = top;
pos = (346,536);
}
);
layerId = "179DD43A-A894-42A9-B4B6-A7F9368B08A7";
shapes = (
{
closed = 1;
nodes = (
(423,-11,o),
(536,105,o),
(561,247,cs),
(586,390,o),
(493,504,o),
(340,504,cs),
(187,504,o),
(56,389,o),
(30,245,cs),
(5,102,o),
(96,-11,o),
(248,-11,cs)
);
},
{
closed = 1;
nodes = (
(171,74,o),
(113,149,o),
(131,247,cs),
(147,343,o),
(225,420,o),
(324,420,cs),
(438,420,o),
(479,343,o),
(460,246,cs),
(442,154,o),
(360,74,o),
(264,74,cs)
);
}
);
width = 598;
},
{
anchors = (
{
name = top;
pos = (340,536);
}
);
layerId = "7F84CDEE-FC45-41A5-88A7-11DFAD5E6C3A";
shapes = (
{
closed = 1;
nodes = (
(415,-10,o),
(523,106,o),
(547,242,cs),
(572,383,o),
(481,494,o),
(332,494,cs),
(183,494,o),
(55,382,o),
(30,240,cs),
(5,99,o),
(94,-10,o),
(242,-10,cs)
);
},
{
closed = 1;
nodes = (
(156,59,o),
(95,138,o),
(114,242,cs),
(131,343,o),
(215,425,o),
(319,425,cs),
(442,425,o),
(483,342,o),
(463,241,cs),
(443,142,o),
(357,59,o),
(255,59,cs)
);
}
);
width = 586;
}
);
unicode = 959;
},
{
glyphname = pi;
lastChange = "2025-10-31 11:39:54 +0000";
layers = (
{
layerId = "EE0A04B7-467B-4BD9-A2DD-E8921F00673F";
shapes = (
{
closed = 1;
nodes = (
(194,0,l),
(263,390,l),
(409,390,l),
(340,0,l),
(530,0,l),
(625,541,l),
(99,541,l),
(4,0,l)
);
}
);
width = 625;
},
{
layerId = "179DD43A-A894-42A9-B4B6-A7F9368B08A7";
shapes = (
{
closed = 1;
nodes = (
(117,0,l),
(189,410,l),
(414,410,l),
(342,0,l),
(442,0,l),
(529,492,l),
(104,492,l),
(17,0,l)
);
}
);
width = 548;
},
{
layerId = "7F84CDEE-FC45-41A5-88A7-11DFAD5E6C3A";
shapes = (
{
closed = 1;
nodes = (
(102,0,l),
(175,414,l),
(415,414,l),
(342,0,l),
(424,0,l),
(509,482,l),
(105,482,l),
(20,0,l)
);
}
);
width = 532;
}
);
unicode = 960;
},
{
glyphname = rho;
lastChange = "2025-10-31 11:39:54 +0000";
layers = (
{
layerId = "EE0A04B7-467B-4BD9-A2DD-E8921F00673F";
shapes = (
{
closed = 1;
nodes = (
(163,-160,l),
(203,66,l),
(240,10,o),
(288,-12,o),
(353,-12,cs),
(510,-12,o),
(618,130,o),
(643,271,cs),
(673,443,o),
(562,553,o),
(396,553,cs),
(228,553,o),
(80,446,o),
(49,271,cs),
(-27,-160,l)
);
},
{
closed = 1;
nodes = (
(258,147,o),
(224,203,o),
(236,270,cs),
(248,343,o),
(306,394,o),
(366,394,cs),
(433,394,o),
(467,338,o),
(456,272,cs),
(445,206,o),
(404,147,o),
(323,147,cs)
);
}
);
width = 671;
},
{
layerId = "179DD43A-A894-42A9-B4B6-A7F9368B08A7";
shapes = (
{
closed = 1;
nodes = (
(79,-183,l),
(125,81,l),
(159,21,o),
(213,-10,o),
(289,-10,cs),
(436,-10,o),
(550,108,o),
(575,247,cs),
(602,400,o),
(509,504,o),
(361,504,cs),
(211,504,o),
(81,399,o),
(55,247,cs),
(-21,-183,l)
);
},
{
closed = 1;
nodes = (
(191,74,o),
(133,145,o),
(149,241,cs),
(167,343,o),
(251,417,o),
(343,417,cs),
(440,417,o),
(489,340,o),
(475,247,cs),
(461,154,o),
(399,74,o),
(286,74,cs)
);
}
);
width = 612;
},
{
layerId = "7F84CDEE-FC45-41A5-88A7-11DFAD5E6C3A";
shapes = (
{
closed = 1;
nodes = (
(63,-188,l),
(111,84,l),
(144,24,o),
(200,-10,o),
(277,-10,cs),
(422,-10,o),
(537,104,o),
(562,242,cs),
(588,391,o),
(499,494,o),
(355,494,cs),
(208,494,o),
(83,390,o),
(57,242,cs),
(-19,-188,l)
);
},
{
closed = 1;
nodes = (
(178,59,o),
(115,133,o),
(133,235,cs),
(152,343,o),
(240,422,o),
(339,422,cs),
(442,422,o),
(496,342,o),
(480,242,cs),
(465,143,o),
(399,59,o),
(279,59,cs)
);
}
);
width = 600;
}
);
unicode = 961;
},
{
glyphname = sigmafinal;
lastChange = "2025-10-31 11:39:54 +0000";
layers = (
{
layerId = "EE0A04B7-467B-4BD9-A2DD-E8921F00673F";
shapes = (
{
closed = 1;
nodes = (
(390,-120,o),
(410,-77,o),
(417,-41,cs),
(431,38,o),
(385,87,o),
(308,130,cs),
(254,160,o),
(200,195,o),
(216,282,cs),
(226,341,o),
(277,392,o),
(337,392,cs),
(380,392,o),
(413,371,o),
(431,336,c),
(547,461,l),
(506,522,o),
(431,552,o),
(351,552,cs),
(186,552,o),
(57,420,o),
(29,263,cs),
(3,111,o),
(73,37,o),
(160,-5,cs),
(193,-21,o),
(237,-41,o),
(230,-81,cs),
(224,-112,o),
(198,-137,o),
(172,-154,c),
(343,-167,l)
);
}
);
width = 553;
},
{
layerId = "179DD43A-A894-42A9-B4B6-A7F9368B08A7";
shapes = (
{
closed = 1;
nodes = (
(339,-136,o),
(354,-106,o),
(359,-71,cs),
(372,12,o),
(326,43,o),
(259,69,cs),
(182,101,o),
(126,149,o),
(145,253,cs),
(159,336,o),
(222,418,o),
(313,418,cs),
(350,418,o),
(394,407,o),
(422,388,c),
(461,464,l),
(423,491,o),
(378,502,o),
(327,502,cs),
(183,502,o),
(70,393,o),
(45,251,cs),
(23,125,o),
(75,36,o),
(181,-4,cs),
(239,-25,o),
(268,-43,o),
(262,-79,cs),
(257,-107,o),
(245,-133,o),
(229,-158,c),
(321,-167,l)
);
}
);
width = 501;
},
{
layerId = "7F84CDEE-FC45-41A5-88A7-11DFAD5E6C3A";
shapes = (
{
closed = 1;
nodes = (
(334,-140,o),
(344,-111,o),
(349,-84,cs),
(364,6,o),
(320,28,o),
(249,57,cs),
(162,93,o),
(112,140,o),
(131,247,cs),
(146,335,o),
(211,423,o),
(308,423,cs),
(344,423,o),
(390,413,o),
(420,398,c),
(443,465,l),
(407,484,o),
(366,492,o),
(322,492,cs),
(182,492,o),
(72,388,o),
(48,249,cs),
(27,129,o),
(76,35,o),
(185,-4,cs),
(248,-26,o),
(274,-43,o),
(268,-79,cs),
(263,-106,o),
(254,-132,o),
(240,-159,c),
(319,-167,l)
);
}
);
width = 491;
}
);
unicode = 962;
},
{
glyphname = sigma;
lastChange = "2025-10-31 11:39:54 +0000";
layers = (
{
layerId = "EE0A04B7-467B-4BD9-A2DD-E8921F00673F";
shapes = (
{
closed = 1;
nodes = (
(440,-13,o),
(595,85,o),
(624,248,cs),
(636,316,o),
(610,361,o),
(569,388,c),
(715,388,l),
(742,541,l),
(377,541,ls),
(200,541,o),
(56,421,o),
(29,264,cs),
(1,109,o),
(102,-13,o),
(278,-13,cs)
);
},
{
closed = 1;
nodes = (
(238,148,o),
(203,206,o),
(214,266,cs),
(226,335,o),
(278,380,o),
(347,380,cs),
(417,380,o),
(455,333,o),
(442,264,cs),
(429,197,o),
(378,148,o),
(308,148,cs)
);
}
);
width = 704;
},
{
layerId = "179DD43A-A894-42A9-B4B6-A7F9368B08A7";
shapes = (
{
closed = 1;
nodes = (
(404,-11,o),
(534,98,o),
(559,238,cs),
(570,302,o),
(555,368,o),
(497,408,c),
(640,408,l),
(655,492,l),
(356,492,ls),
(177,492,o),
(52,368,o),
(29,239,cs),
(5,103,o),
(96,-11,o),
(248,-11,cs)
);
},
{
closed = 1;
nodes = (
(171,74,o),
(114,154,o),
(129,241,cs),
(146,333,o),
(224,408,o),
(325,408,cs),
(425,408,o),
(479,338,o),
(459,240,cs),
(440,147,o),
(362,74,o),
(264,74,cs)
);
}
);
width = 629;
},
{
layerId = "7F84CDEE-FC45-41A5-88A7-11DFAD5E6C3A";
shapes = (
{
closed = 1;
nodes = (
(394,-10,o),
(522,100,o),
(546,236,cs),
(557,300,o),
(543,369,o),
(483,412,c),
(625,412,l),
(638,482,l),
(351,482,ls),
(173,482,o),
(51,357,o),
(29,234,cs),
(6,102,o),
(94,-10,o),
(242,-10,cs)
);
},
{
closed = 1;
nodes = (
(156,59,o),
(96,143,o),
(113,236,cs),
(130,332,o),
(213,413,o),
(320,413,cs),
(426,413,o),
(480,339,o),
(462,235,cs),
(445,135,o),
(354,59,o),
(255,59,cs)
);
}
);
width = 614;
}
);
unicode = 963;
},
{
glyphname = tau;
lastChange = "2025-10-31 11:39:54 +0000";
layers = (
{
layerId = "EE0A04B7-467B-4BD9-A2DD-E8921F00673F";
shapes = (
{
closed = 1;
nodes = (
(322,-11,o),
(368,1,o),
(407,20,c),
(433,169,l),
(408,158,o),
(381,151,o),
(358,151,cs),
(323,151,o),
(308,166,o),
(315,205,cs),
(347,388,l),
(473,388,l),
(500,541,l),
(58,541,l),
(31,388,l),
(157,388,l),
(119,168,ls),
(96,39,o),
(156,-11,o),
(269,-11,cs)
);
}
);
width = 462;
},
{
layerId = "179DD43A-A894-42A9-B4B6-A7F9368B08A7";
shapes = (
{
closed = 1;
nodes = (
(243,-11,o),
(263,-6,o),
(284,3,c),
(298,86,l),
(286,78,o),
(270,74,o),
(255,74,cs),
(219,74,o),
(210,98,o),
(217,137,cs),
(265,408,l),
(397,408,l),
(412,492,l),
(54,492,l),
(39,408,l),
(167,408,l),
(118,128,ls),
(102,39,o),
(143,-11,o),
(218,-11,cs)
);
}
);
width = 386;
},
{
layerId = "7F84CDEE-FC45-41A5-88A7-11DFAD5E6C3A";
shapes = (
{
closed = 1;
nodes = (
(227,-11,o),
(243,-7,o),
(259,0,c),
(271,69,l),
(261,62,o),
(246,59,o),
(234,59,cs),
(198,59,o),
(191,86,o),
(198,123,cs),
(249,412,l),
(382,412,l),
(394,482,l),
(53,482,l),
(41,412,l),
(169,412,l),
(117,120,ls),
(103,39,o),
(140,-11,o),
(208,-11,cs)
);
}
);
width = 371;
}
);
unicode = 964;
},
{
color = 1;
glyphname = upsilon;
lastChange = "2025-10-31 11:39:54 +0000";
layers = (
{
anchors = (
{
name = top;
pos = (363,536);
}
);
layerId = "EE0A04B7-467B-4BD9-A2DD-E8921F00673F";
shapes = (
{
closed = 1;
nodes = (
(427,-12,o),
(548,65,o),
(579,241,cs),
(632,541,l),
(442,541,l),
(390,245,ls),
(381,193,o),
(349,150,o),
(294,150,cs),
(238,150,o),
(225,193,o),
(234,245,cs),
(286,541,l),
(96,541,l),
(43,237,ls),
(13,68,o),
(101,-12,o),
(266,-12,cs)
);
}
);
width = 631;
},
{
anchors = (
{
name = top;
pos = (323,536);
}
);
layerId = "179DD43A-A894-42A9-B4B6-A7F9368B08A7";
shapes = (
{
closed = 1;
nodes = (
(374,-11,o),
(457,66,o),
(485,224,cs),
(533,493,l),
(433,493,l),
(382,202,ls),
(370,133,o),
(315,76,o),
(242,76,cs),
(162,76,o),
(134,121,o),
(148,203,cs),
(199,493,l),
(99,493,l),
(51,221,ls),
(24,70,o),
(81,-11,o),
(229,-11,cs)
);
}
);
width = 551;
},
{
anchors = (
{
name = top;
pos = (315,536);
}
);
layerId = "7F84CDEE-FC45-41A5-88A7-11DFAD5E6C3A";
shapes = (
{
closed = 1;
nodes = (
(363,-11,o),
(442,77,o),
(467,220,cs),
(513,483,l),
(431,483,l),
(380,193,ls),
(367,121,o),
(309,61,o),
(232,61,cs),
(148,61,o),
(117,119,o),
(130,195,cs),
(181,483,l),
(99,483,l),
(52,218,ls),
(26,70,o),
(77,-11,o),
(221,-11,cs)
);
}
);
width = 535;
}
);
unicode = 965;
},
{
glyphname = phi;
lastChange = "2025-10-31 11:39:54 +0000";
layers = (
{
layerId = "EE0A04B7-467B-4BD9-A2DD-E8921F00673F";
shapes = (
{
closed = 1;
nodes = (
(454,-160,l),
(481,-3,l),
(675,5,o),
(834,155,o),
(860,303,cs),
(885,440,o),
(813,555,o),
(640,555,cs),
(455,555,o),
(375,431,o),
(347,271,cs),
(324,144,l),
(212,144,o),
(203,228,o),
(217,308,cs),
(232,389,o),
(271,455,o),
(366,555,c),
(188,555,l),
(96,467,o),
(53,382,o),
(40,306,cs),
(6,116,o),
(125,10,o),
(298,-3,c),
(271,-160,l)
);
},
{
closed = 1;
nodes = (
(534,295,l),
(549,354,o),
(575,395,o),
(627,395,cs),
(691,395,o),
(691,331,o),
(677,280,cs),
(650,188,o),
(599,144,o),
(507,144,c)
);
}
);
width = 883;
},
{
layerId = "179DD43A-A894-42A9-B4B6-A7F9368B08A7";
shapes = (
{
closed = 1;
nodes = (
(342,-180,l),
(373,-8,l),
(547,3,o),
(679,105,o),
(709,277,cs),
(734,418,o),
(679,511,o),
(551,511,cs),
(375,511,o),
(337,357,o),
(313,221,cs),
(287,74,l),
(172,82,o),
(117,160,o),
(138,277,cs),
(151,350,o),
(199,428,o),
(301,509,c),
(193,509,l),
(111,449,o),
(54,362,o),
(37,269,cs),
(7,98,o),
(115,2,o),
(272,-9,c),
(242,-180,l)
);
},
{
closed = 1;
nodes = (
(420,263,ls),
(442,388,o),
(488,426,o),
(535,426,cs),
(613,426,o),
(620,336,o),
(609,273,cs),
(586,146,o),
(512,84,o),
(387,75,c)
);
}
);
width = 741;
},
{
layerId = "7F84CDEE-FC45-41A5-88A7-11DFAD5E6C3A";
shapes = (
{
closed = 1;
nodes = (
(320,-184,l),
(350,-9,l),
(519,2,o),
(648,94,o),
(679,272,cs),
(704,413,o),
(651,502,o),
(534,502,cs),
(359,502,o),
(329,342,o),
(306,211,cs),
(280,60,l),
(165,68,o),
(100,146,o),
(121,267,cs),
(134,342,o),
(184,421,o),
(287,500,c),
(193,500,l),
(116,447,o),
(54,358,o),
(37,262,cs),
(8,94,o),
(113,1,o),
(267,-10,c),
(237,-184,l)
);
},
{
closed = 1;
nodes = (
(397,256,ls),
(422,395,o),
(470,432,o),
(517,432,cs),
(597,432,o),
(607,337,o),
(596,271,cs),
(572,138,o),
(494,72,o),
(363,61,c)
);
}
);
width = 712;
}
);
unicode = 966;
},
{
glyphname = chi;
lastChange = "2025-10-31 11:39:54 +0000";
layers = (
{
layerId = "EE0A04B7-467B-4BD9-A2DD-E8921F00673F";
shapes = (
{
closed = 1;
nodes = (
(126,-160,l),
(243,20,l),
(294,-160,l),
(499,-160,l),
(376,201,l),
(618,541,l),
(417,541,l),
(307,368,l),
(257,541,l),
(52,541,l),
(174,198,l),
(-74,-160,l)
);
}
);
width = 575;
},
{
layerId = "179DD43A-A894-42A9-B4B6-A7F9368B08A7";
shapes = (
{
closed = 1;
nodes = (
(34,-183,l),
(217,81,l),
(307,-183,l),
(420,-183,l),
(290,180,l),
(527,491,l),
(418,491,l),
(254,271,l),
(169,491,l),
(56,491,l),
(182,176,l),
(-74,-183,l)
);
}
);
width = 505;
},
{
layerId = "7F84CDEE-FC45-41A5-88A7-11DFAD5E6C3A";
shapes = (
{
closed = 1;
nodes = (
(17,-188,l),
(213,93,l),
(311,-188,l),
(405,-188,l),
(273,176,l),
(509,481,l),
(419,481,l),
(244,252,l),
(152,481,l),
(58,481,l),
(185,171,l),
(-73,-188,l)
);
}
);
width = 491;
}
);
unicode = 967;
},
{
glyphname = psi;
lastChange = "2025-10-31 11:39:54 +0000";
layers = (
{
layerId = "EE0A04B7-467B-4BD9-A2DD-E8921F00673F";
shapes = (
{
closed = 1;
nodes = (
(469,-160,l),
(495,-12,l),
(659,-12,o),
(818,65,o),
(849,241,cs),
(902,541,l),
(712,541,l),
(659,241,ls),
(649,182,o),
(599,150,o),
(523,150,c),
(626,730,l),
(436,730,l),
(333,150,l),
(257,150,o),
(223,182,o),
(233,241,cs),
(286,541,l),
(96,541,l),
(43,237,ls),
(12,62,o),
(148,-12,o),
(305,-12,c),
(279,-160,l)
);
}
);
width = 902;
},
{
layerId = "179DD43A-A894-42A9-B4B6-A7F9368B08A7";
shapes = (
{
closed = 1;
nodes = (
(338,-183,l),
(368,-10,l),
(506,-10,o),
(635,57,o),
(666,235,cs),
(712,493,l),
(612,493,l),
(566,234,ls),
(545,114,o),
(452,76,o),
(383,76,c),
(499,732,l),
(398,732,l),
(282,76,l),
(207,76,o),
(130,104,o),
(154,236,cs),
(199,493,l),
(99,493,l),
(53,233,ls),
(25,73,o),
(112,-10,o),
(268,-10,c),
(238,-183,l)
);
}
);
width = 730;
},
{
layerId = "7F84CDEE-FC45-41A5-88A7-11DFAD5E6C3A";
shapes = (
{
closed = 1;
nodes = (
(311,-188,l),
(342,-10,l),
(475,-10,o),
(599,55,o),
(630,234,cs),
(674,483,l),
(592,483,l),
(548,233,ls),
(525,100,o),
(423,61,o),
(355,61,c),
(473,732,l),
(390,732,l),
(272,61,l),
(199,61,o),
(111,87,o),
(137,235,cs),
(181,483,l),
(99,483,l),
(55,232,ls),
(27,75,o),
(105,-10,o),
(260,-10,c),
(229,-188,l)
);
}
);
width = 696;
}
);
unicode = 968;
},
{
color = 1;
glyphname = omega;
lastChange = "2025-10-31 11:39:54 +0000";
layers = (
{
anchors = (
{
name = bottom;
pos = (413,0);
},
{
name = top;
pos = (507,536);
}
);
layerId = "EE0A04B7-467B-4BD9-A2DD-E8921F00673F";
shapes = (
{
closed = 1;
nodes = (
(313,-13,o),
(367,9,o),
(424,66,c),
(453,21,o),
(493,-13,o),
(582,-13,cs),
(747,-13,o),
(860,104,o),
(891,276,cs),
(907,369,o),
(896,456,o),
(827,555,c),
(637,555,l),
(711,430,o),
(721,362,o),
(708,287,cs),
(692,200,o),
(653,148,o),
(603,148,cs),
(559,148,o),
(538,188,o),
(550,255,cs),
(582,438,l),
(392,438,l),
(360,255,ls),
(348,188,o),
(317,148,o),
(273,148,cs),
(223,148,o),
(202,200,o),
(218,287,cs),
(231,362,o),
(265,430,o),
(383,555,c),
(193,555,l),
(87,455,o),
(45,360,o),
(31,276,cs),
(3,117,o),
(70,-13,o),
(238,-13,cs)
);
}
);
width = 919;
},
{
anchors = (
{
name = bottom;
pos = (345,0);
},
{
name = top;
pos = (439,536);
}
);
layerId = "179DD43A-A894-42A9-B4B6-A7F9368B08A7";
shapes = (
{
closed = 1;
nodes = (
(261,-11,o),
(320,24,o),
(359,79,c),
(378,27,o),
(423,-11,o),
(496,-11,cs),
(624,-11,o),
(722,100,o),
(748,249,cs),
(767,357,o),
(739,442,o),
(680,509,c),
(570,509,l),
(642,421,o),
(664,340,o),
(648,248,cs),
(629,144,o),
(574,67,o),
(507,67,cs),
(456,67,o),
(414,110,o),
(439,248,cs),
(460,366,l),
(359,366,l),
(338,248,ls),
(326,179,o),
(287,67,o),
(206,67,cs),
(141,67,o),
(113,147,o),
(131,248,cs),
(147,341,o),
(196,421,o),
(300,509,c),
(191,509,l),
(108,440,o),
(50,356,o),
(31,249,cs),
(5,102,o),
(61,-11,o),
(189,-11,cs)
);
}
);
width = 784;
},
{
anchors = (
{
name = bottom;
pos = (332,0);
},
{
name = top;
pos = (426,536);
}
);
layerId = "7F84CDEE-FC45-41A5-88A7-11DFAD5E6C3A";
shapes = (
{
closed = 1;
nodes = (
(251,-10,o),
(311,28,o),
(345,81,c),
(363,28,o),
(407,-10,o),
(478,-10,cs),
(599,-10,o),
(693,99,o),
(719,243,cs),
(738,354,o),
(706,439,o),
(650,500,c),
(556,500,l),
(630,417,o),
(652,336,o),
(635,240,cs),
(616,133,o),
(558,51,o),
(487,51,cs),
(435,51,o),
(390,94,o),
(416,246,cs),
(435,352,l),
(352,352,l),
(333,246,ls),
(321,176,o),
(280,51,o),
(192,51,cs),
(124,51,o),
(95,136,o),
(113,240,cs),
(130,336,o),
(181,420,o),
(283,500,c),
(190,500,l),
(111,437,o),
(50,354,o),
(31,243,cs),
(5,99,o),
(59,-10,o),
(179,-10,cs)
);
}
);
width = 757;
}
);
unicode = 969;
},
{
glyphname = kaiSymbol;
lastChange = "2025-10-31 11:39:54 +0000";
layers = (
{
layerId = "EE0A04B7-467B-4BD9-A2DD-E8921F00673F";
shapes = (
{
closed = 1;
nodes = (
(385,-232,o),
(537,-135,o),
(561,0,c),
(425,324,l),
(651,541,l),
(436,541,l),
(257,360,l),
(289,541,l),
(99,541,l),
(4,0,l),
(194,0,l),
(244,283,l),
(364,-29,l),
(359,-58,o),
(307,-95,o),
(230,-95,cs),
(145,-95,o),
(67,-54,o),
(18,-20,c),
(-8,-170,l),
(64,-210,o),
(124,-232,o),
(209,-232,cs)
);
}
);
width = 609;
},
{
layerId = "179DD43A-A894-42A9-B4B6-A7F9368B08A7";
shapes = (
{
closed = 1;
nodes = (
(291,-192,o),
(407,-113,o),
(427,0,c),
(252,266,l),
(506,492,l),
(382,492,l),
(169,294,l),
(204,492,l),
(104,492,l),
(17,0,l),
(117,0,l),
(157,227,l),
(320,-20,l),
(311,-76,o),
(247,-111,o),
(179,-111,cs),
(118,-111,o),
(60,-86,o),
(18,-51,c),
(0,-151,l),
(53,-176,o),
(101,-192,o),
(164,-192,cs)
);
}
);
width = 480;
},
{
layerId = "7F84CDEE-FC45-41A5-88A7-11DFAD5E6C3A";
shapes = (
{
closed = 1;
nodes = (
(273,-184,o),
(381,-108,o),
(400,0,c),
(217,254,l),
(476,482,l),
(371,482,l),
(152,281,l),
(187,482,l),
(105,482,l),
(20,0,l),
(102,0,l),
(140,216,l),
(312,-18,l),
(301,-79,o),
(235,-114,o),
(169,-114,cs),
(112,-114,o),
(60,-92,o),
(18,-57,c),
(2,-147,l),
(50,-170,o),
(98,-184,o),
(155,-184,cs)
);
}
);
width = 454;
}
);
unicode = 983;
},
{
export = 0;
glyphname = mu.001;
lastChange = "2025-10-31 11:39:54 +0000";
layers = (
{
layerId = "EE0A04B7-467B-4BD9-A2DD-E8921F00673F";
shapes = (
{
closed = 1;
nodes = (
(162,-160,l),
(196,36,l),
(203,11,o),
(225,-12,o),
(258,-12,cs),
(293,-12,o),
(327,14,o),
(359,74,c),
(536,0,l),
(631,541,l),
(441,541,l),
(390,248,ls),
(379,189,o),
(340,157,o),
(295,157,cs),
(249,157,o),
(223,189,o),
(234,248,cs),
(285,541,l),
(95,541,l),
(-28,-160,l)
);
}
);
width = 634;
},
{
layerId = "179DD43A-A894-42A9-B4B6-A7F9368B08A7";
shapes = (
{
closed = 1;
nodes = (
(90,-183,l),
(132,59,l),
(147,12,o),
(183,-10,o),
(228,-10,cs),
(281,-10,o),
(332,21,o),
(366,64,c),
(456,0,l),
(543,493,l),
(443,493,l),
(393,211,ls),
(377,121,o),
(313,77,o),
(245,77,cs),
(192,77,o),
(142,116,o),
(159,211,cs),
(209,493,l),
(109,493,l),
(-10,-183,l)
);
}
);
width = 576;
},
{
layerId = "7F84CDEE-FC45-41A5-88A7-11DFAD5E6C3A";
shapes = (
{
closed = 1;
nodes = (
(75,-188,l),
(119,64,l),
(135,13,o),
(175,-10,o),
(222,-10,cs),
(278,-10,o),
(333,22,o),
(368,62,c),
(440,0,l),
(525,483,l),
(443,483,l),
(394,204,ls),
(377,107,o),
(308,61,o),
(235,61,cs),
(180,61,o),
(126,101,o),
(144,204,cs),
(193,483,l),
(111,483,l),
(-7,-188,l)
);
}
);
width = 564;
}
);
},
{
glyphname = zero;
lastChange = "2025-10-31 11:47:51 +0000";
layers = (
{
layerId = "EE0A04B7-467B-4BD9-A2DD-E8921F00673F";
shapes = (
{
closed = 1;
nodes = (
(511,-14,o),
(665,155,o),
(700,352,cs),
(741,580,o),
(648,714,o),
(441,714,cs),
(242,714,o),
(87,548,o),
(52,350,cs),
(17,152,o),
(111,-14,o),
(311,-14,cs)
);
},
{
closed = 1;
nodes = (
(266,158,o),
(227,240,o),
(247,352,cs),
(266,459,o),
(324,542,o),
(409,542,cs),
(486,542,o),
(524,461,o),
(505,350,cs),
(485,239,o),
(421,158,o),
(343,158,cs)
);
}
);
width = 723;
},
{
layerId = "179DD43A-A894-42A9-B4B6-A7F9368B08A7";
shapes = (
{
closed = 1;
nodes = (
(449,-14,o),
(572,141,o),
(609,352,cs),
(647,565,o),
(579,718,o),
(399,718,cs),
(220,718,o),
(95,564,o),
(58,353,cs),
(20,134,o),
(91,-14,o),
(269,-14,cs)
);
},
{
closed = 1;
nodes = (
(176,78,o),
(134,188,o),
(164,356,cs),
(190,503,o),
(255,626,o),
(381,626,cs),
(489,626,o),
(533,515,o),
(504,352,cs),
(476,193,o),
(395,78,o),
(287,78,cs)
);
}
);
width = 636;
},
{
layerId = "7F84CDEE-FC45-41A5-88A7-11DFAD5E6C3A";
shapes = (
{
closed = 1;
nodes = (
(436,-14,o),
(554,139,o),
(591,352,cs),
(628,561,o),
(580,719,o),
(390,719,cs),
(216,719,o),
(97,567,o),
(59,354,cs),
(20,130,o),
(87,-14,o),
(260,-14,cs)
);
},
{
closed = 1;
nodes = (
(158,62,o),
(115,178,o),
(147,357,cs),
(174,510,o),
(242,640,o),
(376,640,cs),
(490,640,o),
(535,527,o),
(504,352,cs),
(474,184,o),
(389,62,o),
(275,62,cs)
);
}
);
width = 619;
}
);
unicode = 48;
},
{
glyphname = one;
lastChange = "2025-10-31 11:47:51 +0000";
layers = (
{
layerId = "EE0A04B7-467B-4BD9-A2DD-E8921F00673F";
shapes = (
{
closed = 1;
nodes = (
(313,0,l),
(437,705,l),
(91,705,l),
(59,524,l),
(214,524,l),
(122,0,l)
);
}
);
width = 435;
},
{
layerId = "179DD43A-A894-42A9-B4B6-A7F9368B08A7";
shapes = (
{
closed = 1;
nodes = (
(180,0,l),
(305,708,l),
(87,708,l),
(70,612,l),
(186,612,l),
(78,0,l)
);
}
);
width = 330;
},
{
layerId = "7F84CDEE-FC45-41A5-88A7-11DFAD5E6C3A";
shapes = (
{
closed = 1;
nodes = (
(153,0,l),
(278,708,l),
(86,708,l),
(72,630,l),
(180,630,l),
(69,0,l)
);
}
);
width = 309;
}
);
unicode = 49;
},
{
glyphname = two;
lastChange = "2025-10-31 11:47:51 +0000";
layers = (
{
layerId = "EE0A04B7-467B-4BD9-A2DD-E8921F00673F";
shapes = (
{
closed = 1;
nodes = (
(514,0,l),
(542,158,l),
(354,158,l),
(432,242,ls),
(526,343,o),
(579,406,o),
(593,489,cs),
(623,659,o),
(489,712,o),
(365,712,cs),
(219,712,o),
(74,622,o),
(44,453,c),
(221,453,l),
(232,517,o),
(285,543,o),
(330,543,cs),
(376,543,o),
(403,516,o),
(395,472,cs),
(389,437,o),
(361,389,o),
(298,328,cs),
(-40,0,l)
);
}
);
width = 595;
},
{
layerId = "179DD43A-A894-42A9-B4B6-A7F9368B08A7";
shapes = (
{
closed = 1;
nodes = (
(472,0,l),
(488,90,l),
(193,90,l),
(366,262,ls),
(484,379,o),
(538,448,o),
(551,522,cs),
(576,663,o),
(475,717,o),
(362,717,cs),
(228,717,o),
(129,650,o),
(82,503,c),
(189,503,l),
(213,577,o),
(269,626,o),
(346,626,cs),
(430,626,o),
(455,577,o),
(446,525,cs),
(436,473,o),
(393,409,o),
(296,313,cs),
(-18,0,l)
);
}
);
width = 586;
},
{
layerId = "7F84CDEE-FC45-41A5-88A7-11DFAD5E6C3A";
shapes = (
{
closed = 1;
nodes = (
(465,0,l),
(478,76,l),
(162,76,l),
(355,266,ls),
(477,386,o),
(532,458,o),
(544,528,cs),
(569,663,o),
(468,720,o),
(363,720,cs),
(233,720,o),
(139,654,o),
(90,513,c),
(183,513,l),
(210,589,o),
(267,642,o),
(351,642,cs),
(443,642,o),
(466,589,o),
(457,536,cs),
(447,480,o),
(399,414,o),
(297,310,cs),
(-12,0,l)
);
}
);
width = 584;
}
);
unicode = 50;
},
{
glyphname = three;
lastChange = "2025-10-31 11:47:51 +0000";
layers = (
{
layerId = "EE0A04B7-467B-4BD9-A2DD-E8921F00673F";
shapes = (
{
closed = 1;
nodes = (
(444,-14,o),
(568,80,o),
(593,221,cs),
(614,340,o),
(543,397,o),
(447,418,c),
(639,561,l),
(663,700,l),
(157,700,l),
(130,543,l),
(398,543,l),
(211,398,l),
(221,297,l),
(236,297,o),
(290,297,o),
(303,297,cs),
(376,297,o),
(413,270,o),
(405,225,cs),
(397,182,o),
(356,152,o),
(297,152,cs),
(246,152,o),
(197,175,o),
(160,219,c),
(5,110,l),
(60,34,o),
(151,-14,o),
(279,-14,cs)
);
}
);
width = 642;
},
{
layerId = "179DD43A-A894-42A9-B4B6-A7F9368B08A7";
shapes = (
{
closed = 1;
nodes = (
(395,-13,o),
(517,92,o),
(540,224,cs),
(564,357,o),
(483,433,o),
(361,438,c),
(585,630,l),
(600,715,l),
(173,715,l),
(157,626,l),
(456,626,l),
(216,412,l),
(220,358,l),
(242,363,o),
(273,364,o),
(294,364,cs),
(391,364,o),
(455,323,o),
(437,222,cs),
(421,133,o),
(350,78,o),
(267,78,cs),
(183,78,o),
(141,124,o),
(121,208,c),
(30,148,l),
(56,52,o),
(129,-13,o),
(252,-13,cs)
);
}
);
width = 615;
},
{
layerId = "7F84CDEE-FC45-41A5-88A7-11DFAD5E6C3A";
shapes = (
{
closed = 1;
nodes = (
(384,-13,o),
(505,93,o),
(529,225,cs),
(552,360,o),
(470,439,o),
(343,442,c),
(574,644,l),
(587,718,l),
(175,718,l),
(161,642,l),
(467,642,l),
(215,415,l),
(218,370,l),
(243,375,o),
(267,377,o),
(291,377,cs),
(391,377,o),
(463,334,o),
(443,221,cs),
(426,123,o),
(347,63,o),
(259,63,cs),
(170,63,o),
(127,114,o),
(112,206,c),
(35,156,l),
(53,56,o),
(124,-13,o),
(245,-13,cs)
);
}
);
width = 609;
}
);
unicode = 51;
},
{
glyphname = four;
lastChange = "2025-10-31 11:47:51 +0000";
layers = (
{
layerId = "EE0A04B7-467B-4BD9-A2DD-E8921F00673F";
shapes = (
{
closed = 1;
nodes = (
(535,0,l),
(559,136,l),
(648,136,l),
(674,281,l),
(585,281,l),
(659,705,l),
(463,705,l),
(24,274,l),
(32,136,l),
(371,136,l),
(347,0,l)
);
},
{
closed = 1;
nodes = (
(432,481,l),
(397,281,l),
(230,281,l)
);
}
);
width = 695;
},
{
layerId = "179DD43A-A894-42A9-B4B6-A7F9368B08A7";
shapes = (
{
closed = 1;
nodes = (
(459,0,l),
(485,150,l),
(582,150,l),
(597,235,l),
(500,235,l),
(584,711,l),
(446,711,l),
(15,237,l),
(17,150,l),
(385,150,l),
(359,0,l)
);
},
{
closed = 1;
nodes = (
(466,609,l),
(400,235,l),
(128,235,l)
);
}
);
width = 632;
},
{
layerId = "7F84CDEE-FC45-41A5-88A7-11DFAD5E6C3A";
shapes = (
{
closed = 1;
nodes = (
(444,0,l),
(471,153,l),
(569,153,l),
(582,226,l),
(484,226,l),
(570,712,l),
(443,712,l),
(12,229,l),
(15,153,l),
(389,153,l),
(362,0,l)
);
},
{
closed = 1;
nodes = (
(474,635,l),
(402,226,l),
(109,226,l)
);
}
);
width = 619;
}
);
unicode = 52;
},
{
glyphname = five;
lastChange = "2025-10-31 11:47:51 +0000";
layers = (
{
layerId = "EE0A04B7-467B-4BD9-A2DD-E8921F00673F";
shapes = (
{
closed = 1;
nodes = (
(432,-14,o),
(566,81,o),
(594,237,cs),
(621,389,o),
(518,459,o),
(393,459,cs),
(346,459,o),
(311,449,o),
(277,434,c),
(301,540,l),
(616,540,l),
(644,700,l),
(176,700,l),
(94,345,l),
(198,281,l),
(234,301,o),
(273,316,o),
(316,316,cs),
(377,316,o),
(413,286,o),
(404,235,cs),
(395,184,o),
(351,151,o),
(287,151,cs),
(227,151,o),
(179,179,o),
(130,227,c),
(-4,97,l),
(57,29,o),
(136,-14,o),
(261,-14,cs)
);
}
);
width = 635;
},
{
layerId = "179DD43A-A894-42A9-B4B6-A7F9368B08A7";
shapes = (
{
closed = 1;
nodes = (
(363,-13,o),
(482,81,o),
(508,225,cs),
(532,363,o),
(438,447,o),
(306,447,cs),
(267,447,o),
(235,438,o),
(194,426,c),
(247,615,l),
(546,615,l),
(568,704,l),
(180,704,l),
(92,375,l),
(160,339,l),
(194,352,o),
(227,360,o),
(263,360,cs),
(357,360,o),
(420,304,o),
(405,221,cs),
(390,136,o),
(322,77,o),
(223,77,cs),
(156,77,o),
(107,106,o),
(64,154,c),
(-8,85,l),
(48,24,o),
(107,-13,o),
(208,-13,cs)
);
}
);
width = 574;
},
{
layerId = "7F84CDEE-FC45-41A5-88A7-11DFAD5E6C3A";
shapes = (
{
closed = 1;
nodes = (
(347,-13,o),
(463,81,o),
(488,222,cs),
(512,358,o),
(419,444,o),
(286,444,cs),
(249,444,o),
(217,436,o),
(176,424,c),
(234,630,l),
(530,630,l),
(550,705,l),
(179,705,l),
(90,381,l),
(150,350,l),
(184,362,o),
(216,369,o),
(251,369,cs),
(352,369,o),
(418,306,o),
(402,218,cs),
(386,126,o),
(312,62,o),
(208,62,cs),
(140,62,o),
(89,91,o),
(49,139,c),
(-10,83,l),
(43,23,o),
(99,-13,o),
(195,-13,cs)
);
}
);
width = 562;
}
);
unicode = 53;
},
